<?xml version="1.0" standalone="no"?>
<!DOCTYPE svg PUBLIC "-//W3C//DTD SVG 1.1//EN" "http://www.w3.org/Graphics/SVG/1.1/DTD/svg11.dtd" >
<svg>
<metadata>
Created by FontForge 20090914 at Thu Apr  3 21:38:33 2014
 By www-data
Copyright (c) 2014 by SuperBruut / Thijs Janssen. All rights reserved.
</metadata>
<defs>
<font id="LeSuperSerif" horiz-adv-x="654" >
  <font-face 
    font-family="Le Super Serif"
    font-weight="400"
    font-stretch="normal"
    units-per-em="1000"
    panose-1="0 0 0 0 0 0 0 0 0 0"
    ascent="750"
    descent="-250"
    x-height="797.998"
    cap-height="798"
    bbox="-126 -175 2835 1016"
    underline-thickness="50"
    underline-position="-50"
    unicode-range="U+000D-U+20AC"
  />
<missing-glyph horiz-adv-x="358" 
 />
    <glyph glyph-name="A_M_2" unicode="AM" horiz-adv-x="1585" 
d="M570 186h-172v54h51l-40 132h-182l-95 -318h50v-54h-172v54h66l206 690h-50v54h172v-54h-50l151 -504h65v-54zM393 426l-75 252l-75 -252h150zM1070 54h52v-54h-172v54h56l-186 624l-186 -624h49v-54h-172v54h67l206 690h-40v54h153v-54h-41l182 -611l182 611h-40v54h153
v-54h-41l206 -690h65v-54h-172v54h51l-186 624z" />
    <glyph glyph-name="A_M_3" unicode="aM" horiz-adv-x="1532" 
d="M765 678l-186 -624h47h2v-54h-2h-169h-3v54h3h47l-39 132h-293l-40 -132h50v-54h-172v54h66l206 690h-50v54h172v-54h-50l188 -629l187 629h-39v54h152v-54h-41l182 -611l183 611h-40v54h152v-54h-40l205 -690h66v-54h-172v54h50l-185 624l-186 -624h50v-54h-171v54h56z
M449 240l-131 438l-130 -438h261z" />
    <glyph glyph-name="A_P" unicode="aP" horiz-adv-x="1132" 
d="M1063 611c16 -37.333 24 -76.999 24 -118.999c0 -42.667 -8 -82.334 -24 -119.001c-15.333 -36.667 -37 -69 -65 -97s-60.333 -50 -97 -66c-38 -16 -77.667 -24 -119 -24h-200v-132h59v-54h-59h-54h-59v54h59v132h-290l-80 -132h39v-54h-172v54h71l411 690h-62v54h83h54
h200c41.333 0 81 -8 119 -24c36.667 -16 69 -38 97 -66s49.667 -60.333 65 -97zM528 240.001v434l-258 -434h258zM782 240.001c34.667 0 67.334 6.66309 98.001 19.9961s57.334 31.333 80.001 54s40.667 49.334 54 80.001s20 63.334 20 98.001s-6.66699 67.334 -20 98.001
s-31.333 57.334 -54 80.001s-49.334 40.667 -80.001 54s-63.334 20 -98.001 20h-200v-504h200z" />
    <glyph glyph-name="A_P_2" unicode="ap" horiz-adv-x="967" 
d="M879 735c41.333 -41.333 62 -91.3311 62 -149.998c0 -28.667 -5.33301 -55.834 -16 -81.501s-26 -48.834 -46 -69.501c-20 -20 -42.833 -35.167 -68.5 -45.5s-52.834 -15.5 -81.501 -15.5h-148v-134v-53v-132h59v-54h-171v54h58v132h-290l-79 -132h38v-54h-171v54h70
l111 184v1l301 505h-62v54h82h54h148c28.667 0 55.834 -5.5 81.501 -16.5s48.5 -26.5 68.5 -46.5zM527 239.002v435l-258 -435h258zM729 426.002c22 0 42.5 4.16895 61.5 12.502s35.667 19.833 50 34.5s25.666 31.5 33.999 50.5s12.5 39.5 12.5 61.5
s-4.16699 42.667 -12.5 62s-19.666 36.166 -33.999 50.499s-31 25.666 -50 33.999s-39.5 12.5 -61.5 12.5h-148v-318h148z" />
    <glyph glyph-name="A_R_2" unicode="AR" horiz-adv-x="1207" 
d="M1362 -81l-21.9971 -13c-34.667 -22 -72.334 -36 -113.001 -42c-15.333 -2 -30.333 -3 -45 -3c-12 0 -24 0.5 -36 1.5s-23.667 3.16699 -35 6.5c-38.667 9.33301 -73.667 25.333 -105 48c-33.333 24 -60.333 53.333 -81 88l-111 181h-150h-6v-132h58v-54h-171v54h59v132
h-205v53h50l-40 133h-182l-95 -318h50v-54h-172v54h66l206 690h-50v54h172v-54h-50l151 -505h99v505h-59v54h313c41.333 0 81 -8 119 -24c37.333 -16.667 69.666 -38.667 96.999 -66c28 -28.667 49.667 -61.334 65 -98.001c16 -37.333 24 -76.666 24 -117.999
c0 -42.667 -8 -82.334 -24 -119.001c-15.333 -36.667 -37 -69 -65 -97c-27.333 -27.333 -59.666 -49.333 -96.999 -66c-32.667 -13.333 -66.334 -21 -101.001 -23l94 -154c18 -29.333 40.5 -53.5 67.5 -72.5s55.833 -32.167 86.5 -39.5s62.167 -8.66602 94.5 -3.99902
s63.166 16 92.499 34l23 14zM393.003 426l-75 251l-75 -251h150zM658.003 744v-504.002h200c34.667 0 67.334 6.66699 98.001 20s57.334 31.333 80.001 54s40.667 49.334 54 80.001s20 63.334 20 98.001s-6.66699 67.167 -20 97.5s-31.333 57 -54 80
s-49.334 41.167 -80.001 54.5s-63.334 20 -98.001 20h-200z" />
    <glyph glyph-name="C_H" unicode="CH" horiz-adv-x="947" 
d="M100 398c0 -47.333 9 -92 27 -134s42.667 -78.5 74 -109.5s68 -55.5 110 -73.5s87 -27 135 -27h26v-54h-26c-56 -0 -108 10.333 -156 31c-46.667 19.333 -89 48 -127 86c-18.667 18 -35 37.667 -49 59s-26 43.666 -36 66.999c-21.333 50.667 -32 102.334 -32 155.001
c0 54 10.667 106 32 156c20 48 48.333 90.333 85 127c18.667 18 38.5 34.167 59.5 48.5s43.5 26.5 67.5 36.5c50 21.333 102 32 156 32h26v-54h-26c-48 0 -93 -9 -135 -27s-78.667 -42.667 -110 -74s-56 -68 -74 -110s-27 -87 -27 -135zM848 799h59v-53h-59v-319v-53v-319
h59v-53h-59h-54h-59v53h59v319h-322v-133h59v-54h-171v54h58v133v53v133h-58v54h58h54h59v-54h-59v-133h322v319h-59v53h59h54z" />
    <glyph glyph-name="C_O" unicode="CO" horiz-adv-x="929" 
d="M828 615c28 -28 49.6689 -60.334 65.002 -97.001c16.667 -39.333 25 -79.333 25 -120c0 -39.333 -8.33301 -78.666 -25 -117.999c-15.333 -37.333 -37 -70 -65 -98c-14.667 -14 -30 -26.5 -46 -37.5s-33.333 -20.167 -52 -27.5c-37.333 -16 -77 -24 -119 -24
c-41.333 0 -81 8 -119 24c-36.667 15.333 -69 37 -97 65c-28.667 28 -50.334 60.667 -65.001 98c-16 38 -24 77.333 -24 118c0 42 8 82 24 120c15.333 36.667 37 69 65 97c27.333 27.333 59.666 49.333 96.999 66c38 16 77.667 24 119 24c42 0 81.667 -8 119 -24
c36 -15.333 68.667 -37.333 98 -66zM611.002 145.999c34.667 0 67.334 6.66699 98.001 20s57.5 31.5 80.5 54.5s41.167 49.667 54.5 80s20 62.833 20 97.5s-6.66699 67.5 -20 98.5s-31.5 57.833 -54.5 80.5s-49.833 40.667 -80.5 54s-63.334 20 -98.001 20
s-67.334 -6.66699 -98.001 -20s-57.334 -31.333 -80.001 -54s-40.667 -49.5 -54 -80.5s-20 -63.833 -20 -98.5s6.66699 -67.167 20 -97.5s31.333 -57 54 -80s49.334 -41.167 80.001 -54.5s63.334 -20 98.001 -20zM100.002 397.999c0 -47.333 9 -92.001 27 -134.001
s42.667 -78.5 74 -109.5s68 -55.5 110 -73.5s87 -27 135 -27h26v-54h-26c-56 0 -108 10.333 -156 31c-46.667 19.333 -89 48 -127 86c-36.667 36.667 -65 78.667 -85 126c-21.333 50.667 -32 102.334 -32 155.001c0 54 10.667 106 32 156c20 48 48.333 90.333 85 127
s79 65 127 85c50 21.333 102 32 156 32h26v-54h-26c-48 0 -93 -9 -135 -27s-78.667 -42.667 -110 -74s-56 -68 -74 -110s-27 -87 -27 -135z" />
    <glyph glyph-name="D_O" unicode="DO" horiz-adv-x="1176" 
d="M1144 554c20.667 -48 31.002 -99.9971 31.002 -155.997c0 -54 -10.333 -105.667 -31 -155c-20 -46.667 -48.667 -88.667 -86 -126c-36 -37.333 -78.333 -66 -127 -86c-48 -20.667 -99.667 -31 -155 -31s-107 10.333 -155 31c-20 9.33301 -39.333 19.666 -58 30.999
s-36.334 24.666 -53.001 39.999c-30.667 -28.667 -67.334 -52.334 -110.001 -71.001c-24.667 -10.667 -50 -18.5 -76 -23.5s-52.333 -7.5 -79 -7.5h-67h-56h-56v54h56h2v690h-2h-56v54h56h56h67c53.333 0 105 -10.667 155 -32c42 -17.333 78.667 -40.666 110 -69.999
c16.667 15.333 34.334 28.666 53.001 39.999s38 21.333 58 30c50 21.333 101.667 32 155 32s105 -10.667 155 -32c49.333 -20.667 91.666 -49 126.999 -85c38 -38 66.667 -80.333 86 -127zM510.002 178.003c25.333 30 45 63.667 59 101s21 77 21 119s-7 81.667 -21 119
s-33.667 71 -59 101c-24.667 -30 -44 -63.667 -58 -101s-21 -77 -21 -119s7 -81.667 21 -119s33.333 -71 58 -101zM245.002 54.0029c44 0 85.333 7.50098 124 22.501s73.334 36.167 104.001 63.5c-13.333 15.333 -25.333 31.666 -36 48.999s-20 35.333 -28 54
c-20.667 49.333 -31 101 -31 155c0 56 10.333 108 31 156c16 37.333 37.333 72 64 104c-30.667 26.667 -65.334 47.667 -104.001 63s-80 23 -124 23h-67v-690h67zM776.002 54.0039c47.333 0 92 9 134 27s78.667 42.5 110 73.5s56.166 67.5 74.499 109.5
s27.5 86.667 27.5 134c0 48 -9.16699 93 -27.5 135s-43.166 78.667 -74.499 110s-68 56 -110 74s-86.667 27 -134 27c-44 0 -85.333 -7.66699 -124 -23s-73.334 -36.333 -104.001 -63c13.333 -16 25.333 -32.5 36 -49.5s20 -35.167 28 -54.5c20.667 -48 31 -100 31 -156
c0 -54 -10.333 -105.667 -31 -155c-16 -36.667 -37.333 -71 -64 -103c30.667 -27.333 65.334 -48.5 104.001 -63.5s80 -22.5 124 -22.5z" />
    <glyph glyph-name="E_T_2" unicode="et" horiz-adv-x="786" 
d="M625 798h124v-54h-124v-690h58v-54h-58h-54h-59v54h59v690h-499v54h499h54zM184 612h254v-54h-254v-318h222v-54h-222v-132h254v-54h-254h-54h-58v54h58v132v54v318h-58v54h58h54z" />
    <glyph glyph-name="E_T_E" unicode="ETE" horiz-adv-x="1155" 
d="M626 798h504v-53h-504v-691h59v-54h-59h-53h-59v54h59v691h-501v53h501h53zM878 612h252v-54h-252v-318h220v-54h-220v-132h252v-54h-252h-54h-59v54h59v132v54v318h-59v54h59h54zM184 612h254v-54h-254v-318h222v-54h-222v-132h254v-54h-254h-54h-58v54h58v132v54v318
h-58v54h58h54z" />
    <glyph glyph-name="E_U" unicode="EU" horiz-adv-x="1191" 
d="M1062 90c-28 -28 -60.0029 -50 -96.0029 -66c-39.333 -16 -79.333 -24 -120 -24c-42 0 -82 8 -120 24c-37.333 16.667 -69.666 38.667 -96.999 66c-14 14 -26.667 29.167 -38 45.5s-20.666 33.5 -27.999 51.5c-16 38.667 -24 78.334 -24 119.001v438h-53h-6h-295v-132
h264v-54h-264v-504h301v-54h-301h-54h-59v54h59v504v54v132h-59v54h59h54h295h6h53h54h59v-54h-59v-438c0 -34.667 6.66699 -67.334 20 -98.001s31.333 -57.334 54 -80.001s49.334 -40.667 80.001 -54s63.667 -20 99 -20c34.667 0 67.5 6.66699 98.5 20
s57.833 31.333 80.5 54s40.667 49.334 54 80.001s20 63.334 20 98.001v438h-59v54h59h54h58v-54h-58v-438c0 -40.667 -8 -80.334 -24 -119.001c-8 -18 -17.5 -35.167 -28.5 -51.5s-23.833 -31.5 -38.5 -45.5z" />
    <glyph glyph-name="F_T" unicode="FT" horiz-adv-x="1060" 
d="M180 798h355v-54h-355v-318h258v-54h-258v-318h59v-54h-59h-54h-59v54h59v318v54v318h-59v54h59h54zM766 798h261v-54h-261v-690h60v-54h-60h-53h-59v54h59v690h-124v54h124h53z" />
    <glyph glyph-name="G_E" unicode="GE" horiz-adv-x="1234" 
d="M905 744l0.00292969 -133.002h264v-53h-264v-504h301v-54h-301h-54h-59v54h59v318h-36c-1.33301 -22.667 -4.5 -44.667 -9.5 -66s-11.833 -42.333 -20.5 -63c-20.667 -48 -49.334 -90 -86.001 -126c-36 -36.667 -78 -65.334 -126 -86.001
c-50.667 -21.333 -102.334 -32 -155.001 -32c-54 0 -106 10.667 -156 32c-46.667 19.333 -89 48 -127 86c-36.667 36.667 -65 78.667 -85 126c-10 24.667 -17.833 50 -23.5 76s-8.5 52.333 -8.5 79c0 27.333 2.83301 54 8.5 80s13.5 51.333 23.5 76
c20 46.667 48.333 89 85 127c18.667 18 38.5 34.167 59.5 48.5s43.5 26.5 67.5 36.5c24.667 10 50 17.833 76 23.5s52.667 8.5 80 8.5h26v-54h-26c-48 0 -93 -9 -135 -27s-78.667 -42.667 -110 -74s-56 -68 -74 -110s-27 -87 -27 -135c0 -47.333 9 -92 27 -134
s42.667 -78.667 74 -110s68 -56 110 -74s87 -27 135 -27c45.333 0 88 8.33301 128 25s75.5 39.334 106.5 68.001s56.167 62.334 75.5 101.001s30.666 80.334 33.999 125.001h-207v54h207h54h35v132v53v133h-59v54h59h54h301v-54h-301z" />
    <glyph glyph-name="G_O" unicode="GO" horiz-adv-x="1234" 
d="M135 117c-36.667 36.667 -65.0029 78.999 -85.0029 126.999c-21.333 50 -32 101.667 -32 155s10.667 105 32 155c20.667 49.333 49 91.666 85 126.999c18 18.667 37.667 35 59 49s44 26 68 36c50 21.333 101.667 32 155 32h27v-54h-27c-48 0 -92.833 -9 -134.5 -27
s-78.167 -42.667 -109.5 -74s-56 -67.833 -74 -109.5s-27 -86.5 -27 -134.5c0 -47.333 9 -92 27 -134s42.667 -78.667 74 -110s67.833 -56 109.5 -74s86.5 -27 134.5 -27c52.667 0 102.334 11.333 149.001 34c-12 8.66699 -22.667 18.334 -32 29.001
c-38 38 -66.667 80.333 -86 127c-21.333 50 -32 101.667 -32 155s10.667 105 32 155c20 48.667 48.667 91 86 127c18 18.667 37.667 35 59 49s43.666 26 66.999 36c50 21.333 101.667 32 155 32c54.667 0 106.334 -10.667 155.001 -32c49.333 -20.667 92 -49 128 -85
c35.333 -35.333 63.333 -77.666 84 -126.999c21.333 -50 32 -101.667 32 -155s-10.667 -105 -32 -155c-20 -47.333 -48 -89.666 -84 -126.999c-37.333 -36.667 -80 -65.334 -128 -86.001c-24 -10.667 -49 -18.5 -75 -23.5s-52.667 -7.5 -80 -7.5c-26.667 0 -53 2.5 -79 7.5
s-51.333 12.833 -76 23.5c-7.33301 3.33301 -14.666 7 -21.999 11l-22 12l-22 -12c-7.33301 -4 -14.666 -7.66699 -21.999 -11c-24.667 -10.667 -50 -18.5 -76 -23.5s-52.333 -7.5 -79 -7.5c-55.333 -0 -107 10.333 -155 31c-48.667 21.333 -91 50 -127 86zM469.997 398.999
c0 -58.667 13.3301 -112.332 39.9971 -160.999s62 -89 106 -121c41.333 29.333 74.833 66 100.5 110s40.5 92.333 44.5 145h-207v54h208h54h58v-54h-59c-3.33301 -45.333 -13.666 -88 -30.999 -128c-10 -24 -22.167 -46.5 -36.5 -67.5s-30.5 -40.833 -48.5 -59.5
c-5.33301 -5.33301 -10.666 -10.333 -15.999 -15s-11 -9.33398 -17 -14.001c46.667 -22.667 96.334 -34 149.001 -34c48 0 93 9 135 27s78.667 42.667 110 74s56 68 74 110s27 86.667 27 134c0 48 -9 92.833 -27 134.5s-42.667 78.167 -74 109.5s-68 56 -110 74
s-87 27 -135 27c-47.333 0 -92 -9 -134 -27s-78.667 -42.667 -110 -74s-56 -67.833 -74 -109.5s-27 -86.5 -27 -134.5z" />
    <glyph glyph-name="H_A_2" unicode="ha" horiz-adv-x="1054" 
d="M961 54h70v-54h-171v54h38l-79 132h-290v-132h58v-54h-58h-54h-59v54h59v132v0h-322v-132h58v-54h-58h-54h-59v54h59v690h-59v54h59h54h58v-54h-58v-504h322v504h-59v54h59h54h58v-54h-38zM787 240l-258 434v-434h258z" />
    <glyph glyph-name="L_A" unicode="la" horiz-adv-x="788" 
d="M107 0h-59v54h59v690h-59v54h59h54h59v-54h-59v-690h582v-54h-582h-54zM410 186h-171v54h66l150 504h-49v54h171v-54h-50l151 -504h65v-54h-171v54h50l-40 132h-182l-39 -132h49v-54zM566 426l-75 252l-75 -252h150z" />
    <glyph glyph-name="L_A_2" unicode="LA" horiz-adv-x="902" 
d="M106 0h-58v54h58v690h-58v54h58h54h59v-54h-59v-690h390v-54h-390h-54zM794 54h65v-53h-172v53h51l-96 319h-182l-39 -133h49v-54h-171v54h66l150 505h-49v53h171v-53h-50zM626 426l-75 252l-75 -252h150z" />
    <glyph glyph-name="L_E" unicode="LE" horiz-adv-x="689" 
d="M351 186h-59v54h59v318v54v132h-59v54h59h54h253v-54h-253v-132h221v-54h-221v-318h253v-54h-253h-54zM160 54h497v-54h-497h-54h-58v54h58v690h-58v54h58h54h59v-54h-59v-690z" />
    <glyph glyph-name="L_E_2" unicode="le" horiz-adv-x="686" 
d="M405 744v-318h221v-54h-221v-132h253v-54h-253h-54h-59v54h59v132v54v318h-59v54h59h54h253v-54h-253zM160 54h497v-54h-497h-54h-58v54h58v690h-58v54h58h54h59v-54h-59v-690z" />
    <glyph glyph-name="L_E_E_2" unicode="lee" horiz-adv-x="1131" 
d="M843 798h254v-54h-254v-318h221v-54h-221v-132h254v-54h-254h-53h-60v54h60v132v54v318h-60v54h60h53zM405 744v-318h221v-54h-221v-132h253v-54h-253h-54h-59v54h59v132v54v318h-59v54h59h54h253v-54h-253zM160 54h937v-54h-937h-54h-58v54h58v690h-58v54h58h54h59v-54
h-59v-690z" />
    <glyph glyph-name="L_I" unicode="LI" horiz-adv-x="562" 
d="M107 0h-59v54h59v690h-59v54h59h54h59v-54h-59v-690h358v-54h-358h-54zM509 186h-172v54h59v504h-59v54h172v-54h-59v-504h59v-54z" />
    <glyph glyph-name="L_I_E" unicode="LIE" horiz-adv-x="1022" 
d="M731 744v-318h221v-54h-221v-132h253v-54h-253h-53h-60v54h60v132v54v318h-60v54h60h53h253v-54h-253zM984 0h-823h-54h-59v54h59v690h-59v54h59h54h59v-54h-59v-690h823v-54zM450 744v-504h59v-54h-171v54h58v504h-58v54h171v-54h-59z" />
    <glyph glyph-name="L_L" unicode="LL" horiz-adv-x="650" 
d="M106 0h-58v54h58v690h-58v54h58h54h59v-54h-59v-690h440v-54h-440h-54zM323 186h-59v54h59v504h-59v54h59h54h59v-54h-59v-504h223v-54h-223h-54z" />
    <glyph glyph-name="L_O" unicode="LO" horiz-adv-x="915" 
d="M107 0h-59v54h59v690h-59v54h59h54h59v-54h-59v-690h699v-54h-699h-54zM354 276c-27.333 27.333 -49.333 59.666 -66 96.999c-16 36.667 -24 76.334 -24 119.001c0 42 8 81.667 24 119c16.667 37.333 38.667 69.666 66 96.999c28 28 60.333 50 97 66
c38 16 77.667 24 119 24s81 -8 119 -24c36.667 -16 69 -38 97 -66c27.333 -27.333 49.333 -59.666 66 -96.999c16 -37.333 24 -77 24 -119c0 -42.667 -8 -82.334 -24 -119.001c-16.667 -37.333 -38.667 -69.666 -66 -96.999c-28 -28 -60.333 -50 -97 -66
c-38 -16 -77.667 -24 -119 -24s-81 8 -119 24c-36.667 16 -69 38 -97 66zM570 744c-34.667 0 -67.334 -6.66699 -98.001 -20s-57.334 -31.333 -80.001 -54s-40.667 -49.334 -54 -80.001s-20 -63.334 -20 -98.001s6.66699 -67.334 20 -98.001s31.333 -57.334 54 -80.001
s49.334 -40.667 80.001 -54s63.334 -20 98.001 -20s67.334 6.66699 98.001 20s57.334 31.333 80.001 54s40.667 49.334 54 80.001s20 63.334 20 98.001s-6.66699 67.334 -20 98.001s-31.333 57.334 -54 80.001s-49.334 40.667 -80.001 54s-63.334 20 -98.001 20z" />
    <glyph glyph-name="L_O_O" unicode="LOO" horiz-adv-x="1261" 
d="M1219 0h-1058h-54h-59v54h59v691h-59v53h59h54h59v-53h-59v-691h1058v-54zM1195 611c16 -37.333 23.999 -77.001 23.999 -119.001c0 -41.333 -8 -81 -24 -119c-8 -18 -17.333 -35.167 -28 -51.5s-23 -31.5 -37 -45.5c-28 -28 -60.667 -50 -98 -66
c-38 -16 -77.333 -24 -118 -24c-42 0 -82 8 -120 24c-18.667 8 -36 17.667 -52 29c-16 -11.333 -33.333 -21 -52 -29c-39.333 -16 -79.333 -24 -120 -24c-41.333 0 -81 8 -119 24c-36.667 16 -69 38 -97 66s-49.667 60.333 -65 97c-16.667 39.333 -25 79 -25 119
c0 40.667 8.33301 80.334 25 119.001c14.667 36.667 36.334 69.334 65.001 98.001c27.333 27.333 59.666 49 96.999 65c38 16 77.667 24 119 24c40.667 0 80.667 -8 120 -24c9.33301 -4 18.333 -8.33301 27 -13s17 -9.66699 25 -15c8 5.33301 16.333 10.333 25 15
s17.667 9 27 13c38 16 78 24 120 24c40.667 0 80 -8 118 -24c38.667 -16.667 71.334 -38.334 98.001 -65.001c14 -14 26.333 -29.167 37 -45.5s20 -33.833 28 -52.5zM569.999 239.999c23.333 0 45.833 3.00391 67.5 9.00391s41.834 14.667 60.501 26l-1 1
c-27.333 27.333 -49.333 59.666 -66 96.999c-16 38 -24 77.667 -24 119c0 42 8 81.667 24 119s38 70 66 98c0.666992 0 1 0.333008 1 1c-18.667 11.333 -38.834 20 -60.501 26s-44.167 9 -67.5 9c-34.667 0 -67.334 -6.66699 -98.001 -20s-57.334 -31.5 -80.001 -54.5
s-40.667 -49.833 -54 -80.5s-20 -63.334 -20 -98.001s6.66699 -67.334 20 -98.001s31.333 -57.334 54 -80.001s49.334 -40.667 80.001 -54s63.334 -20 98.001 -20zM821.999 492.003c0 36.667 -7.16699 70.834 -21.5 102.501s-33.833 59.167 -58.5 82.5
c-25.333 -23.333 -45.166 -50.833 -59.499 -82.5s-21.5 -65.834 -21.5 -102.501s7.16699 -70.834 21.5 -102.501s34.166 -59.167 59.499 -82.5c24.667 23.333 44.167 50.833 58.5 82.5s21.5 65.834 21.5 102.501zM913.999 240.003c34.667 0 67.167 6.66309 97.5 19.9961
s57 31.333 80 54s41.167 49.334 54.5 80.001s20 63.334 20 98.001s-6.66699 67.334 -20 98.001s-31.5 57.5 -54.5 80.5s-49.667 41.167 -80 54.5s-62.833 20 -97.5 20c-24 0 -46.667 -3 -68 -9s-41.333 -14.667 -60 -26v-1c29.333 -29.333 51.333 -62 66 -98
c16 -37.333 24 -77 24 -119c0 -41.333 -8 -81 -24 -119c-14.667 -35.333 -36.667 -67.666 -66 -96.999v-1c18.667 -11.333 38.667 -20 60 -26s44 -9 68 -9z" />
    <glyph glyph-name="L_U" unicode="LU" horiz-adv-x="888" 
d="M682 798h172.001v-54h-60v-321c0 -32 -5.83301 -62.333 -17.5 -91s-28.834 -54.334 -51.501 -77.001c-22.667 -22 -48.167 -39 -76.5 -51s-58.5 -18 -90.5 -18s-62.333 6 -91 18s-54.334 29 -77.001 51c-22 22.667 -39 48.334 -51 77.001s-18 59 -18 91v321h-59v54h172
v-54h-60v-321c0 -25.333 4.83301 -49.166 14.5 -71.499s22.834 -41.666 39.501 -57.999s36.167 -29.333 58.5 -39s46.166 -14.5 71.499 -14.5c24.667 0 48.167 4.83301 70.5 14.5s41.833 22.667 58.5 39s29.834 35.666 39.501 57.999s14.5 46.166 14.5 71.499v321h-59v54z
M106.001 0h-58v54h58v690h-58v54h58h54h59v-54h-59v-690h634v-54h-634h-54z" />
    <glyph glyph-name="L_Y" unicode="LY" horiz-adv-x="690" 
d="M106 0h-58v54h58v690h-58v54h58h54h59v-54h-59v-690h465v-54h-465h-54zM330 744h-70v54h171v-54h-37l64 -107l66 107h-38v54h172v-54h-72l-100 -166v-338h58v-54h-58h-54h-59v54h59v338z" />
    <glyph glyph-name="L_Y_2" unicode="ly" horiz-adv-x="910" 
d="M161 54h684v-54h-684h-54h-59v54h59v690h-59v54h59h54h59v-54h-59v-690zM866 798v-54h-76l-187 -336v-163h59v-54h-59h-53h-59v54h59v163l-172 336h-82v54h171v-54h-29l140 -272l150 272h-34v54h172z" />
    <glyph glyph-name="N_N" unicode="NN" horiz-adv-x="1094" 
d="M138 54h60v-53h-60h-53h-59v53h59v690h-59v54h172v-54h-40l362 -618v618h-58v54h58h54h59v-54h-39l362 -618v618h-59v54h59h54h58v-54h-58v-690h58v-53h-171v53h39l-362 618v-618h59v-53h-171v53h38l-362 618v-618z" />
    <glyph glyph-name="O_O" unicode="OO" horiz-adv-x="1199" 
d="M216 31c-46.667 19.333 -89.001 48.001 -127.001 86.001c-37.333 37.333 -66 79.333 -86 126c-20.667 49.333 -31 101 -31 155c0 56 10.333 108 31 156c19.333 46.667 48 89 86 127c36.667 36.667 79 65 127 85c50 21.333 101.667 32 155 32s105 -10.667 155 -32
c12.667 -5.33301 24.834 -11.333 36.501 -18s23.167 -13.667 34.5 -21l34 21c11.333 6.66699 23.333 12.667 36 18c50.667 21.333 102.667 32 156 32s105 -10.667 155 -32c48 -20 90.333 -48.333 127 -85s65 -79 85 -127c21.333 -50 32 -102 32 -156
c0 -52.667 -10.667 -104.334 -32 -155.001c-20 -47.333 -48.333 -89.333 -85 -126c-38 -38 -80.333 -66.667 -127 -86c-48 -20.667 -99.667 -31 -155 -31c-54.667 -0 -106.667 10.333 -156 31c-12.667 5.33301 -24.667 11.166 -36 17.499s-22.666 13.5 -33.999 21.5
c-11.333 -8 -22.833 -15.167 -34.5 -21.5s-23.834 -12.166 -36.501 -17.499c-48 -20.667 -99.667 -31 -155 -31s-107 10.333 -155 31zM822.999 744.001c-34 0 -66.167 -4.49902 -96.5 -13.499s-58.833 -21.833 -85.5 -38.5c2.66699 -2 6.66699 -5.66699 12 -11
c36.667 -36.667 65 -79 85 -127c21.333 -50 32 -102 32 -156c0 -52.667 -10.667 -104.334 -32 -155.001c-20 -47.333 -48.333 -89.333 -85 -126l-6 -6c-2 -2 -4 -3.66699 -6 -5c26.667 -16.667 55.167 -29.5 85.5 -38.5s62.5 -13.5 96.5 -13.5c47.333 0 92 9 134 27
s78.667 42.5 110 73.5s56 67.5 74 109.5s27 86.667 27 134c0 48 -9 93 -27 135s-42.667 78.667 -74 110s-68 56 -110 74s-86.667 27 -134 27zM477.999 398.002c0 -52 10.667 -100.333 32 -145s50.333 -83 87 -115c36.667 32 65.667 70.333 87 115s32 93 32 145
s-10.667 100.5 -32 145.5s-50.333 83.5 -87 115.5c-36.667 -32 -65.667 -70.5 -87 -115.5s-32 -93.5 -32 -145.5zM370.999 744.002c-47.333 0 -92 -9 -134 -27s-78.667 -42.667 -110 -74s-56 -68 -74 -110s-27 -87 -27 -135c0 -47.333 9 -92 27 -134s42.667 -78.5 74 -109.5
s68 -55.5 110 -73.5s86.667 -27 134 -27c34 0 66.167 4.5 96.5 13.5s58.833 21.833 85.5 38.5c-2.66699 2 -6.66699 5.66699 -12 11c-37.333 37.333 -66 79.333 -86 126c-20.667 49.333 -31 101 -31 155c0 56 10.333 108 31 156c19.333 46.667 48 89 86 127
c5.33301 5.33301 9.33301 9 12 11c-26.667 16.667 -55.167 29.5 -85.5 38.5s-62.5 13.5 -96.5 13.5z" />
    <glyph glyph-name="O_U" unicode="OU" horiz-adv-x="1158" 
d="M1078 744l-0.00195312 -437.001c0 -41.333 -8 -81.333 -24 -120c-8 -18 -17.333 -35.167 -28 -51.5s-23 -31.5 -37 -45.5c-28.667 -28 -61.334 -50 -98.001 -66c-38 -16 -77.667 -24 -119 -24c-42 0 -82 8 -120 24c-9.33301 4 -18.5 8.5 -27.5 13.5
s-17.5 10.5 -25.5 16.5l-22 -12c-7.33301 -4 -15 -7.66699 -23 -11c-47.333 -20.667 -99 -31 -155 -31c-54 0 -105.667 10.333 -155 31c-48 21.333 -90 50 -126 86c-38 38 -66.667 80.333 -86 127c-10.667 24.667 -18.5 50 -23.5 76s-7.5 52.333 -7.5 79
c0 55.333 10.333 107 31 155c20 48.667 48.667 91 86 127c18 18.667 37.667 35 59 49s43.666 26 66.999 36c50.667 21.333 102.334 32 155.001 32c54.667 0 106.334 -10.667 155.001 -32c49.333 -20.667 92 -49 128 -85c36.667 -36.667 65 -79 85 -127
c20.667 -48 31 -99.667 31 -155c0 -26.667 -2.5 -53 -7.5 -79s-12.833 -51.333 -23.5 -76c-10 -24 -22.167 -46.5 -36.5 -67.5s-30.5 -40.833 -48.5 -59.5l-17.5 -15.5l-17.5 -15.5c18.667 -10 38.334 -17.833 59.001 -23.5s42.667 -8.5 66 -8.5
c34.667 0 67.334 6.66699 98.001 20s57.5 31.333 80.5 54s41.167 49.334 54.5 80.001s20 63.667 20 99v437h-59v54h59h53h60v-54h-60zM53.998 398.999c0 -47.333 9 -92.001 27 -134.001s42.667 -78.667 74 -110s68 -56 110 -74s86.667 -27 134 -27c28 0 55 3.16699 81 9.5
s50.667 15.166 74 26.499c-14 14 -26.333 29.167 -37 45.5s-20 33.5 -28 51.5c-16 38.667 -24 78.667 -24 120v207h-59v53h59h53h60v-53h-60v-207c0 -37.333 7.5 -72.166 22.5 -104.499s35.5 -60.166 61.5 -83.499c43.333 32 78 72.167 104 120.5s39 101.5 39 159.5
c0 48 -9 92.833 -27 134.5s-42.667 78.167 -74 109.5s-68 56 -110 74s-87 27 -135 27c-47.333 0 -92 -9 -134 -27s-78.667 -42.667 -110 -74s-56 -67.833 -74 -109.5s-27 -86.5 -27 -134.5z" />
    <glyph glyph-name="P_O" unicode="PO" horiz-adv-x="1178" 
d="M1094 117c-37.333 -37.333 -80.002 -66.001 -128.002 -86.001c-24 -10.667 -49 -18.5 -75 -23.5s-52.667 -7.5 -80 -7.5c-54 0 -105.667 10.333 -155 31c-48 20.667 -90 49.334 -126 86.001c-14.667 14 -27.834 29 -39.501 45s-22.5 32.667 -32.5 50l-4 -2
c-37.333 -16 -76.666 -24 -117.999 -24h-201v-132h59v-54h-172v54h60v690h-60v54h314c41.333 0 80.666 -8 117.999 -24s70 -38 98 -66l3 -3c30.667 24.667 64.334 45 101.001 61c50.667 21.333 102.334 32 155.001 32c54.667 0 106.334 -10.667 155.001 -32
c49.333 -20.667 92 -49 128 -85c36 -37.333 64 -79.666 84 -126.999c21.333 -50 32 -102 32 -156c0 -52.667 -10.667 -104.334 -32 -155.001c-20 -47.333 -48 -89.333 -84 -126zM465.998 397.999c0 -19.333 1.66797 -38 5.00098 -56s7.66602 -35.667 12.999 -53
c32 22.667 57.333 51.667 76 87s28 74 28 116c0 24.667 -3.33301 48 -10 70s-16 42.667 -28 62c-26 -30 -46.5 -64.167 -61.5 -102.5s-22.5 -79.5 -22.5 -123.5zM335.999 239.999c34.667 0 68.333 7.33301 101 22c-16 44 -24 89.333 -24 136c0 56 10.333 108 31 156
c18.667 43.333 43 81 73 113c-23.333 23.333 -50.5 42 -81.5 56s-64.167 21 -99.5 21h-201v-504h201zM505.998 237.999c14.667 -27.333 32.501 -52.3359 53.501 -75.0029s44.667 -42 71 -58s54.666 -28.5 84.999 -37.5s62.166 -13.5 95.499 -13.5c48 0 93 9 135 27
s78.667 42.5 110 73.5s56 67.5 74 109.5s27 86.667 27 134c0 48 -9 93 -27 135s-42.667 78.667 -74 110s-68 56 -110 74s-87 27 -135 27c-42.667 0 -82.667 -7.16699 -120 -21.5s-71.333 -34.166 -102 -59.499l15.5 -25.5c5 -8.33301 9.5 -17.166 13.5 -26.499
c16 -37.333 24 -77 24 -119c0 -41.333 -8 -81 -24 -119c-16.667 -37.333 -38.667 -69.666 -66 -96.999c-13.333 -13.333 -28.666 -26 -45.999 -38z" />
    <glyph glyph-name="P_S" unicode="PS" horiz-adv-x="870" 
d="M827 298c10 -26 15.0029 -54.0049 15.0029 -84.0049c0 -32 -5.83301 -62.167 -17.5 -90.5s-28.5 -53.5 -50.5 -75.5c-22.667 -22.667 -48.167 -39.834 -76.5 -51.501s-58.5 -17.5 -90.5 -17.5c-46.667 0 -89.334 12.667 -128.001 38s-67.667 59.666 -87 102.999
c-1.33301 2.66699 -2.5 5.16699 -3.5 7.5s-1.83301 4.83301 -2.5 7.5l-9 26l50 17l9 -24c1.33301 -2 2.16602 -4 2.49902 -6s1.16602 -4.33301 2.49902 -7c14.667 -33.333 37 -59.666 67 -78.999s63 -29 99 -29c24.667 0 48.167 4.66699 70.5 14s41.666 22.333 57.999 39
s29.333 35.834 39 57.501s14.5 45.167 14.5 70.5c0 30.667 -5.83301 56.334 -17.5 77.001s-26 37.334 -43 50.001s-35.333 22.334 -55 29.001s-37.167 11.334 -52.5 14.001c-1.33301 -2.66699 -2.66602 -6 -3.99902 -10c-16 -37.333 -38 -70 -66 -98
s-60.333 -49.667 -97 -65c-39.333 -16.667 -79 -25 -119 -25h-201v-132h60v-54h-172v54h59v690h-59v54h313c41.333 0 81 -8 119 -24l24 -12c8 -4 16 -8.66699 24 -14c37.333 31.333 80.333 47 129 47c27.333 0 53 -5 77 -15s45.667 -24.333 65 -43
c18.667 -19.333 33 -41 43 -65s15 -49.667 15 -77v-27h-53v27c0 20 -3.83301 39 -11.5 57s-18.167 33.667 -31.5 47s-29 23.833 -47 31.5s-37 11.5 -57 11.5c-16 0 -31.167 -2.5 -45.5 -7.5s-27.833 -11.833 -40.5 -20.5l6 -6c27.333 -27.333 49.333 -59.666 66 -96.999
c16 -37.333 24 -77 24 -119c0 -19.333 -2 -38 -6 -56c15.333 -3.33301 29.5 -7 42.5 -11s25.5 -9 37.5 -15c26.667 -12 49 -27.333 67 -46c19.333 -18.667 34.333 -40.667 45 -66zM587.003 491.995c0 36 -7.00098 69.8301 -21.001 101.497s-33.333 58.834 -58 81.501
c-7.33301 -11.333 -13.166 -23.666 -17.499 -36.999s-6.5 -27.666 -6.5 -42.999c0 -31.333 9 -59.833 27 -85.5s42 -45.5 72 -59.5c2.66699 12.667 4 26.667 4 42zM335.002 239.992c26.667 0 51.998 3.83496 75.998 11.502s46.167 18.5 66.5 32.5s38.333 30.667 54 50
s28.167 40.666 37.5 63.999c-32 13.333 -59.333 32.333 -82 57c-38 40 -57 86.667 -57 140c0 42 12 79.667 36 113c-19.333 11.333 -40.166 20.166 -62.499 26.499s-45.166 9.5 -68.499 9.5h-201v-504h201z" />
    <glyph glyph-name="Q_U" unicode="QU" horiz-adv-x="1398" 
d="M885 744l0.00292969 -509c0 -25.333 4.66699 -49 14 -71s22.333 -41.333 39 -58s36.167 -29.667 58.5 -39s46.166 -14 71.499 -14s49 4.66699 71 14s41.333 22.333 58 39s29.667 36 39 58s14 45.667 14 71v509h-58v54h58h54h59v-54h-59v-509
c0 -32 -5.83301 -62.167 -17.5 -90.5s-28.834 -53.833 -51.501 -76.5s-48.167 -39.834 -76.5 -51.501s-58.5 -17.5 -90.5 -17.5s-62.333 5.83301 -91 17.5s-54.334 28.834 -77.001 51.501c-22 22.667 -39 48.167 -51 76.5s-18 58.5 -18 90.5v509h-59v54h59h54h58v-54h-58z
M546.003 31c-24 -10.667 -49.002 -18.501 -75.002 -23.501s-52.667 -7.5 -80 -7.5c-26.667 0 -53 2.5 -79 7.5s-51.333 12.833 -76 23.5c-47.333 20 -89.666 48.667 -126.999 86c-37.333 38 -65.666 80 -84.999 126c-21.333 50.667 -32 102.334 -32 155.001
c0 54 10.667 106 32 156c10 24 22.167 46.5 36.5 67.5s30.5 40.833 48.5 59.5c36 36 78.333 64.333 127 85c50 21.333 101.667 32 155 32c54.667 0 106.334 -10.667 155.001 -32c49.333 -20.667 92 -49 128 -85c36 -37.333 64 -79.666 84 -126.999
c21.333 -50 32 -102 32 -156c0 -52.667 -10.667 -104.334 -32 -155.001c-10.667 -26 -24.667 -51.333 -42 -76l121 -121c30.667 -32 66 -56.333 106 -73s82 -25 126 -25c40 0 78.167 6.83301 114.5 20.5s69.166 33.5 98.499 59.5
c11.333 9.33301 21.666 19.666 30.999 30.999s18 23 26 35l15 22l44 -30l-14 -22c-18 -27.333 -40 -52.666 -66 -75.999c-34 -30.667 -72.5 -54 -115.5 -70s-87.5 -24 -133.5 -24c-51.333 0 -101.333 10.333 -150 31c-46 20.667 -86.333 48.667 -121 84l-116 117
c-1.33301 -2 -2.66602 -3.66699 -3.99902 -5l-4 -4c-37.333 -37.333 -80 -66 -128 -86zM46.001 397.999c0 -47.333 9 -92 27 -134s42.667 -78.5 74 -109.5s68 -55.5 110 -73.5s86.667 -27 134 -27c50 0 96.667 9.66699 140 29s81 46 113 80l-258 259l37 38l255 -254
c18 28 32.333 58 43 90s16 66 16 102c0 48 -9 93 -27 135s-42.667 78.667 -74 110s-68 56 -110 74s-87 27 -135 27c-47.333 0 -92 -9 -134 -27s-78.667 -42.667 -110 -74s-56 -68 -74 -110s-27 -87 -27 -135z" />
    <glyph glyph-name="Q_U_2" unicode="qu" horiz-adv-x="1446" 
d="M838 798h54.0049h58v-54h-58v-509c0 -25.333 4.83301 -49 14.5 -71s22.667 -41.333 39 -58s35.666 -29.667 57.999 -39s46.166 -14 71.499 -14s49.166 4.66699 71.499 14s41.666 22.333 57.999 39s29.333 36 39 58s14.5 45.667 14.5 71v509h-59v54h59h54h58v-54h-58v-509
c0 -32 -6 -62.167 -18 -90.5s-29.333 -53.833 -52 -76.5c-22 -22.667 -47.333 -39.834 -76 -51.501s-59 -17.5 -91 -17.5s-62.333 5.83301 -91 17.5s-54.334 28.834 -77.001 51.501c-22 22.667 -39 48.167 -51 76.5s-18 58.5 -18 90.5v509h-59v54h59zM990.005 -137
c-34.667 0 -68.8311 3.16602 -102.498 9.49902s-66.834 15.166 -99.501 26.499c-31.333 11.333 -61.333 25.333 -90 42s-55.667 35.667 -81 57c-16.667 14 -32.334 28.667 -47.001 44l-12 -6c-4 -2 -8 -3.66699 -12 -5c-24 -10.667 -49 -18.5 -75 -23.5
s-52.667 -7.5 -80 -7.5c-26.667 0 -53 2.5 -79 7.5s-51.333 12.833 -76 23.5c-48 20.667 -90 49.334 -126 86.001c-37.333 37.333 -66 79.333 -86 126c-20.667 49.333 -31 101 -31 155c0 56 10.333 108 31 156c19.333 46.667 48 89 86 127c18 18.667 37.667 35 59 49
s43.666 26 66.999 36c50 21.333 101.667 32 155 32c54.667 0 106.334 -10.667 155.001 -32c49.333 -20.667 92 -49 128 -85c36 -37.333 64 -79.666 84 -126.999c21.333 -50 32 -102 32 -156c0 -52.667 -10.667 -104.334 -32 -155.001c-20 -47.333 -48 -89.333 -84 -126
c-17.333 -17.333 -36 -33 -56 -47c48 -48 103.833 -85.5 167.5 -112.5s131.834 -40.5 204.501 -40.5c54 0 104.833 8.83301 152.5 26.5s89.5 42 125.5 73s65 67.333 87 109s34.333 86.5 37 134.5l1 27l53 -2v-27c-2 -27.333 -6.33301 -53.833 -13 -79.5
s-16.334 -51.167 -29.001 -76.5c-24 -45.333 -57 -86.666 -99 -123.999c-43.333 -37.333 -91.833 -65.833 -145.5 -85.5s-110.167 -29.5 -169.5 -29.5zM391.008 53.999c51.333 0 98.665 10 141.998 30c-8 10 -15.667 20.333 -23 31l-21 32
c-35.333 59.333 -59.333 121.666 -72 186.999l-5 27l52 10l6 -26c8.66699 -44.667 22.334 -86.667 41.001 -126s42 -75.666 70 -108.999c46.667 31.333 84.334 72 113.001 122s43 105.333 43 166c0 48 -9 93 -27 135s-42.667 78.667 -74 110s-68 56 -110 74s-87 27 -135 27
c-47.333 0 -92 -9 -134 -27s-78.667 -42.667 -110 -74s-56 -68 -74 -110s-27 -87 -27 -135c0 -47.333 9 -92 27 -134s42.667 -78.5 74 -109.5s68 -55.5 110 -73.5s86.667 -27 134 -27z" />
    <glyph glyph-name="R_I_2" unicode="ri" horiz-adv-x="774" 
d="M734 14l21 -48.999l-25 -11c-36 -16 -74.667 -24 -116 -24h-1c-38.667 0 -76.334 7.66699 -113.001 23c-18.667 7.33301 -36 16.5 -52 27.5s-31 23.167 -45 36.5c-29.333 28.667 -52 61.667 -68 99l-109 258h-94v-320h59v-54h-171v54h58v690h-58v54h258
c28.667 0 55.834 -5.5 81.501 -16.5s48.5 -26.5 68.5 -46.5s35.333 -42.833 46 -68.5s16 -52.5 16 -80.5c0 -58.667 -20.667 -108.667 -62 -150c-19.333 -19.333 -41.333 -34.333 -66 -45s-50.667 -16.334 -78 -17.001l101 -237c13.333 -32 31.833 -59.333 55.5 -82
s50.167 -40 79.5 -52s60.5 -18.167 93.5 -18.5s65.167 6.16699 96.5 19.5zM132 427.001l146 0.00292969c22 0 42.667 4.16699 62 12.5s36.166 19.666 50.499 33.999s25.666 31.166 33.999 50.499s12.5 40 12.5 62s-4.16699 42.5 -12.5 61.5s-19.666 35.667 -33.999 50
s-31.166 25.666 -50.499 33.999s-40 12.5 -62 12.5h-146v-317zM684 744.004v-505h59v-53h-59h-54h-58v53h58v505h-58v54h171v-54h-59z" />
    <glyph glyph-name="R_N" unicode="RN" horiz-adv-x="1284" 
d="M1205 804h59v-54h-59v-690h59v-54h-171v54h38l-361 618v-432h59v-54h-59h-54h-59v54h59v504h-59v54h172v-54h-39l361 -618v618h-58v54h58h54zM743 73l28.001 -45.9971l-22 -14c-35.333 -21.333 -73 -35 -113 -41c-15.333 -2 -30.666 -3 -45.999 -3
c-11.333 0 -22.833 0.5 -34.5 1.5s-23.5 3.16699 -35.5 6.5c-38 8.66699 -73 24.667 -105 48c-34 23.333 -61 52.333 -81 87v1l-45 74h-156v-133h59v-54h-172v54h59v690h-59v54h314c40.667 0 80 -8 118 -24c18.667 -8 36.167 -17.333 52.5 -28s31.5 -23.334 45.5 -38.001
c27.333 -27.333 49 -59.666 65 -96.999c7.33301 -18.667 13.166 -37.834 17.499 -57.501s6.5 -40.167 6.5 -61.5c0 -20.667 -2.16699 -40.834 -6.5 -60.501s-10.166 -38.834 -17.499 -57.501c-8 -18.667 -17.333 -36.167 -28 -52.5s-23 -31.5 -37 -45.5
c-28.667 -28.667 -61.334 -50.334 -98.001 -65.001c-32 -12.667 -65.667 -20.667 -101 -24l28 -47c18 -29.333 40.5 -53.333 67.5 -72s56 -31.667 87 -39s62.667 -8.66602 95 -3.99902s63.166 16 92.499 34zM133.001 241.003l201 -0.00195312
c34.667 0 67.167 6.66699 97.5 20s57 31.333 80 54s41.167 49.167 54.5 79.5s20 62.833 20 97.5s-6.66699 67.334 -20 98.001s-31.5 57.334 -54.5 80.001s-49.667 40.667 -80 54s-62.833 20 -97.5 20h-201v-503z" />
    <glyph glyph-name="R_O" unicode="RO" horiz-adv-x="1176" 
d="M1090 681c38 -38 66.668 -80.332 86.001 -126.999c20.667 -48 31 -100 31 -156c0 -54 -10.333 -105.667 -31 -155c-20 -46.667 -48.667 -88.667 -86 -126c-36 -37.333 -78.333 -66 -127 -86c-48 -20.667 -99.667 -31 -155 -31s-107 10.333 -155 31
c-47.333 20 -89.666 48.667 -126.999 86c-14 14 -26.833 29 -38.5 45s-22.167 32.667 -31.5 50c-1.33301 0 -2.66602 -0.666992 -3.99902 -2c-16.667 -6.66699 -33.334 -11.834 -50.001 -15.501s-34 -6.16699 -52 -7.5l80 -133h71v-54h-100l-1 -1v1h-70v54h38l-79 132h-156
v-132h58v-54h-171v54h59v690h-59v54h313c41.333 0 81 -8 119 -24c37.333 -16.667 69.666 -38.667 96.999 -66l3 -3c15.333 12.667 31.5 24 48.5 34s34.5 19 52.5 27c50 21.333 101.667 32 155 32s105 -10.667 155 -32c49.333 -20.667 91.666 -49 126.999 -85z
M463.001 398.001c0 -19.333 1.66797 -38 5.00098 -56s7.66602 -35.667 12.999 -53c32 22.667 57.333 51.667 76 87s28 74 28 116c0 24.667 -3.33301 48 -10 70s-16 42.667 -28 62c-26 -30 -46.5 -64.167 -61.5 -102.5s-22.5 -79.5 -22.5 -123.5zM319.002 240.001h13.999
c34.667 0 68.334 7.33301 101.001 22c-16 44 -24 89.333 -24 136c0 56 10.333 108 31 156c16.667 41.333 41 79 73 113c-23.333 23.333 -50.333 42 -81 56s-64 21 -100 21h-200v-504h185v1zM808.001 54.001c47.333 0 92.002 8.99609 134.002 26.9961s78.667 42.5 110 73.5
s56.166 67.5 74.499 109.5s27.5 86.667 27.5 134c0 48 -9.16699 93 -27.5 135s-43.166 78.667 -74.499 110s-68 56 -110 74s-86.667 27 -134 27c-42 0 -82 -7.16699 -120 -21.5s-72 -34.166 -102 -59.499c6 -8.66699 11.167 -17.167 15.5 -25.5s8.5 -17.166 12.5 -26.499
c16 -37.333 24 -77 24 -119c0 -41.333 -8 -81 -24 -119c-15.333 -36.667 -37 -69 -65 -97c-7.33301 -7.33301 -14.833 -14.166 -22.5 -20.499s-15.5 -12.166 -23.5 -17.499c14.667 -27.333 32.5 -52.333 53.5 -75s44.667 -42 71 -58s54.666 -28.5 84.999 -37.5
s62.166 -13.5 95.499 -13.5z" />
    <glyph glyph-name="R_O_2" unicode="ro" horiz-adv-x="1305" 
d="M1222 681c18 -18.667 34.165 -38.498 48.498 -59.498s26.5 -43.5 36.5 -67.5c10.667 -24.667 18.5 -50 23.5 -76s7.5 -52.667 7.5 -80c0 -54 -10.333 -105.667 -31 -155c-20 -47.333 -48.333 -89.333 -85 -126c-37.333 -37.333 -79.666 -66 -126.999 -86
c-48 -20.667 -99.667 -31 -155 -31c-38.667 0 -77 5.66699 -115 17c-26.667 -26.667 -58.334 -47.667 -95.001 -63c-36 -16 -74.667 -24 -116 -24h-1c-38 0 -76 7.66699 -114 23c-18 7.33301 -35.167 16.333 -51.5 27s-31.166 23 -44.499 37c-29.333 28 -52 60.667 -68 98
l-109 257h-94v-318h59v-54h-171v54h58v690h-58v54h260c28.667 0 55.834 -5.5 81.501 -16.5s48.5 -26.5 68.5 -46.5s35.333 -42.833 46 -68.5s16 -52.834 16 -81.501s-5.33301 -56 -16 -82s-26 -49 -46 -69c-19.333 -19.333 -41.5 -34.166 -66.5 -44.499
s-51.5 -15.833 -79.5 -16.5l101 -237c13.333 -31.333 31.833 -58.5 55.5 -81.5s50.167 -40.5 79.5 -52.5s60.5 -18.167 93.5 -18.5s65.167 6.16699 96.5 19.5c10.667 5.33301 20.834 10.666 30.501 15.999s19.167 11.666 28.5 18.999c-42.667 20 -79.667 46.333 -111 79
c-36.667 36 -65.334 78 -86.001 126c-20.667 49.333 -31 101 -31 155c0 27.333 2.5 54 7.5 80s12.833 51.333 23.5 76c19.333 46.667 48 89 86 127c36.667 36.667 79 65 127 85c50 21.333 101.667 32 155 32s105 -10.667 155 -32c46.667 -20 89 -48.333 127 -85z
M131.998 426.002l148 0.00195312c22 0 42.5 4.16699 61.5 12.5s35.667 19.833 50 34.5s25.666 31.5 33.999 50.5s12.5 39.5 12.5 61.5s-4.16699 42.667 -12.5 62s-19.666 36.166 -33.999 50.499s-31 25.666 -50 33.999s-39.5 12.5 -61.5 12.5h-148v-318zM939.998 54.0039
c47.333 0 91.999 9.00098 133.999 27.001s78.667 42.5 110 73.5s56 67.5 74 109.5s27 86.667 27 134c0 48 -9 93 -27 135s-42.667 78.667 -74 110s-68 56 -110 74s-86.667 27 -134 27s-92 -9 -134 -27s-78.667 -42.667 -110 -74s-56.166 -68 -74.499 -110
s-27.5 -87 -27.5 -135c0 -36 5.33301 -70.5 16 -103.5s25.5 -63.333 44.5 -91s41.667 -52.167 68 -73.5s55.166 -38.333 86.499 -51c26.667 34.667 43.334 74 50.001 118s1 87.667 -17 131l-10 25l50 21l10 -25c16 -38 24 -77.333 24 -118
c-0.666992 -19.333 -2.83398 -38.5 -6.50098 -57.5s-9.16699 -37.5 -16.5 -55.5c-8 -20.667 -18 -39.334 -30 -56.001c12.667 -3.33301 25.334 -5.5 38.001 -6.5s25.667 -1.5 39 -1.5z" />
    <glyph glyph-name="R_S" unicode="RS" horiz-adv-x="866" 
d="M191 0l-171.001 -0.00585938v54h58v690h-58v54h313c41.333 0 81 -8 119 -24c26 -11.333 49.333 -25.666 70 -42.999l4 4l4 4c39.333 39.333 86.666 59 141.999 59c26.667 0 52.167 -5 76.5 -15s46.166 -24.667 65.499 -44c18.667 -19.333 33 -41 43 -65
s15 -49.333 15 -76v-28h-54v28c0 20 -3.83301 38.833 -11.5 56.5s-18 33.167 -31 46.5s-28.5 23.833 -46.5 31.5s-37 11.5 -57 11.5c-22 0 -42.5 -4.5 -61.5 -13.5s-35.167 -21.167 -48.5 -36.5c22.667 -25.333 40 -53 52 -83c16 -37.333 24 -77 24 -119
c0 -7.33301 -0.166992 -14.5 -0.5 -21.5s-1.16602 -14.167 -2.49902 -21.5c5.33301 -2.66699 11 -4.66699 17 -6l18 -4c16 -2.66699 31 -6.16699 45 -10.5s27.667 -9.5 41 -15.5s25.5 -12.833 36.5 -20.5s21.167 -16.5 30.5 -26.5c9.33301 -9.33301 17.833 -19.5 25.5 -30.5
s13.834 -22.833 18.501 -35.5c5.33301 -13.333 9.16602 -26.833 11.499 -40.5s3.5 -28.167 3.5 -43.5c0 -31.333 -5.83301 -61.333 -17.5 -90s-28.5 -54 -50.5 -76s-47.333 -38.833 -76 -50.5s-58.667 -17.5 -90 -17.5c-47.333 0 -90.333 12.667 -129 38
s-67.334 59.333 -86.001 102l-11 24l49 22l11 -25c14 -32.667 36.167 -58.834 66.5 -78.501s63.5 -29.5 99.5 -29.5c24.667 0 48 4.66699 70 14s41.333 22.333 58 39s29.667 35.834 39 57.501s14 45.167 14 70.5c0 30.667 -5.83301 56.334 -17.5 77.001
s-26 37.334 -43 50.001s-35.167 22.334 -54.5 29.001s-36.666 11.334 -51.999 14.001c-7.33301 1.33301 -14.166 2.83301 -20.499 4.5s-12.5 3.5 -18.5 5.5c-1.33301 -3.33301 -2.66602 -7 -3.99902 -11s-3 -7.66699 -5 -11c-15.333 -37.333 -37 -70 -65 -98
c-27.333 -27.333 -59.666 -49.333 -96.999 -66c-38 -15.333 -77 -23.333 -117 -24l94 -153c17.333 -28 39.166 -51.667 65.499 -71s55.833 -32.666 88.5 -39.999c32 -8 64.167 -9.5 96.5 -4.5s62.5 16.167 90.5 33.5l24 15l28 -46l-24 -14c-34.667 -22 -72 -35.667 -112 -41
c-13.333 -2.66699 -28.333 -4 -45 -4c-23.333 0 -47 3 -71 9c-38 8 -73 24 -105 48c-32.667 22.667 -60 51.667 -82 87l-111 181h-140v-132h59v-54zM584.999 491.994c0 29.333 -4.5 57 -13.5 83s-21.833 49.667 -38.5 71c-3.33301 -8 -5.5 -16 -6.5 -24s-1.5 -16 -1.5 -24
c0 -24 5.16699 -46.333 15.5 -67s24.833 -38.334 43.5 -53.001c0.666992 2.66699 1 7.33398 1 14.001zM131.999 743.994v-503.998h201c28 0 54.833 4.5 80.5 13.5s49 21.5 70 37.5s39.333 34.833 55 56.5s27.5 45.5 35.5 71.5c-8.66699 5.33301 -16.667 11.166 -24 17.499
s-14.666 13.5 -21.999 21.5c-18.667 19.333 -32.834 41 -42.501 65s-14.5 49 -14.5 75c0 31.333 7 61 21 89c-21.333 17.333 -45.5 31.166 -72.5 41.499s-55.833 15.5 -86.5 15.5h-201z" />
    <glyph glyph-name="R_Y" unicode="RY" horiz-adv-x="1206" 
d="M549 708c28 -28.667 49.668 -61.332 65.001 -97.999c16 -37.333 24 -76.666 24 -117.999c0 -42.667 -8 -82.334 -24 -119.001c-15.333 -36.667 -37 -69 -65 -97c-27.333 -27.333 -59.666 -49.333 -96.999 -66c-16.667 -6.66699 -33.334 -11.834 -50.001 -15.501
s-34 -6.16699 -52 -7.5l80 -133h71v-54h-100l-1 -1v1h-71v54h39l-79 132h-157v-132h59v-54h-171v54h58v690h-58v54h313c41.333 0 81 -8 119 -24c37.333 -16.667 69.666 -38.667 96.999 -66zM333.001 240.002c34.667 0 67.334 6.66504 98.001 19.998s57.334 31.333 80.001 54
s40.667 49.334 54 80.001s20 63.334 20 98.001s-6.66699 67.167 -20 97.5s-31.333 57 -54 80s-49.334 41.167 -80.001 54.5s-63.334 20 -98.001 20h-201v-504h186v1l1 -1h14zM994.001 798h188v-54h-71l-209 -353v-337h60v-54h-60h-53h-59v54h59v337l-209 353h-70v54h188v-54
h-56l173 -293l174 293h-55v54z" />
    <glyph glyph-name="S_U" unicode="SU" horiz-adv-x="982" 
d="M131 747c19.333 19.333 41.1709 33.999 65.5039 43.999s50.166 15 77.499 15c26 0 51.167 -5 75.5 -15s46.166 -24.667 65.499 -44c19.333 -18.667 34 -40.167 44 -64.5s15 -49.833 15 -76.5v-28h-54v28c0 20 -3.83301 38.833 -11.5 56.5s-18.167 33.167 -31.5 46.5
s-28.833 23.833 -46.5 31.5s-36.5 11.5 -56.5 11.5c-20.667 0 -40 -3.83301 -58 -11.5s-33.667 -18.167 -47 -31.5s-23.833 -28.833 -31.5 -46.5s-11.5 -36.5 -11.5 -56.5c0 -19.333 3.66699 -37.833 11 -55.5s17.5 -33.5 30.5 -47.5s28.333 -25.833 46 -35.5
s37.167 -16.5 58.5 -20.5c3.33301 -0.666992 6.5 -1.16699 9.5 -1.5s6.16699 -1.16602 9.5 -2.49902v140h-59v54h59h54v-54v-157c2 -0.666992 4.16699 -1.33398 6.5 -2.00098s4.5 -1.33398 6.5 -2.00098c12.667 -6.66699 24.667 -13.834 36 -21.501
s21.666 -16.167 30.999 -25.5c19.333 -19.333 34 -41.666 44 -66.999c10 -26 15 -54 15 -84c0 -23.333 -3.33301 -46 -10 -68s-16 -42.667 -28 -62c21.333 -16 44.833 -28.5 70.5 -37.5s52.834 -13.5 81.501 -13.5c34.667 0 67.5 6.66699 98.5 20s57.833 31.5 80.5 54.5
s40.667 49.833 54 80.5s20 63.334 20 98.001v449h-59v53h59h54h58v-53h-58v-449c0 -42.667 -8 -82.334 -24 -119.001c-16.667 -38 -39 -70.667 -67 -98c-28.667 -28.667 -60.667 -50.334 -96 -65.001c-39.333 -16 -79.333 -24 -120 -24c-42 0 -82 8 -120 24
c-25.333 10.667 -48 24 -68 40c-22 -21.333 -46.667 -37.333 -74 -48s-56 -16 -86 -16c-28.667 0 -56.167 4.83301 -82.5 14.5s-50.166 23.5 -71.499 41.5c-21.333 18.667 -38.666 40 -51.999 64s-22 50 -26 78c-2.66699 10.667 -4 22.667 -4 36v27h54v-27
c0 -4.66699 0.166992 -9.16699 0.5 -13.5s0.833008 -9.16602 1.5 -14.499c3.33301 -22 10.333 -42.5 21 -61.5s24 -35.167 40 -48.5s34.167 -23.833 54.5 -31.5s41.833 -11.5 64.5 -11.5c23.333 0 45.166 4.16699 65.499 12.5s38.833 19.833 55.5 34.5
c-12 12.667 -22.5 26.334 -31.5 41.001s-17.167 30 -24.5 46c-16 36.667 -24 76.334 -24 119.001v92c-4.66699 1.33301 -9.33398 2.5 -14.001 3.5s-9.33398 1.83301 -14.001 2.5c-25.333 4.66699 -49.5 13 -72.5 25s-43.167 27.667 -60.5 47
c-18.667 19.333 -32.834 41 -42.501 65s-14.5 49 -14.5 75c0 26.667 5 52.167 15 76.5s24.333 45.833 43 64.5zM430.005 223.999c0 38.667 -8.5 69.166 -25.5 91.499s-36.833 39.5 -59.5 51.5v-71c0 -31.333 5.33301 -61 16 -89s25.667 -53 45 -75
c16 26.667 24 57.334 24 92.001z" />
    <glyph glyph-name="S_U_R" unicode="SUR" horiz-adv-x="1558" 
d="M1504 610c16 -38 24.0059 -77.334 24.0059 -118.001c0 -42 -8 -82 -24 -120c-7.33301 -18 -16.666 -35 -27.999 -51s-24 -31 -38 -45s-29 -26.667 -45 -38s-33 -20.666 -51 -27.999c-34 -14.667 -68 -22.334 -102 -23.001l80 -134h70v-53h-100v-1v1h-72v53h40l-80 133
h-156v-133h59v-53h-171v53h58v691h-5h-53h-6v-448c0 -42.667 -8 -82.334 -24 -119.001c-14.667 -36 -36.667 -68.667 -66 -98c-28.667 -28.667 -61 -50.334 -97 -65.001c-38 -16 -77.667 -24 -119 -24c-42 0 -82 8 -120 24c-25.333 10.667 -48 24 -68 40
c-44.667 -42.667 -98.334 -64 -161.001 -64c-28 0 -55.333 4.83301 -82 14.5s-50.667 23.5 -72 41.5c-20.667 18.667 -37.667 40 -51 64s-22.333 50 -27 78c-2 12 -3 24 -3 36v27h54v-27v-13.5c0 -4.33301 0.666992 -9.16602 2 -14.499c3.33301 -22 10.333 -42.5 21 -61.5
s24 -35.167 40 -48.5s34 -23.833 54 -31.5s41.333 -11.5 64 -11.5c23.333 0 45.333 4.16699 66 12.5s39 19.833 55 34.5c-11.333 12.667 -21.5 26.334 -30.5 41.001s-17.167 30 -24.5 46c-16.667 38.667 -25 78.334 -25 119.001v92
c-4.66699 1.33301 -9.33398 2.5 -14.001 3.5s-9.33398 1.83301 -14.001 2.5c-25.333 4.66699 -49.5 13 -72.5 25s-43.167 27.667 -60.5 47c-18.667 19.333 -32.834 41 -42.501 65s-14.5 49 -14.5 75c0 26.667 5 52 15 76s24.667 45.667 44 65
c39.333 39.333 86.666 59 141.999 59c26.667 0 52.167 -5 76.5 -15s45.833 -24.667 64.5 -44c19.333 -19.333 34.166 -41 44.499 -65s15.5 -49.333 15.5 -76v-28h-54v28c0 20 -3.83301 38.833 -11.5 56.5s-18.167 33.167 -31.5 46.5s-29 23.833 -47 31.5s-37 11.5 -57 11.5
s-39 -3.83301 -57 -11.5s-33.667 -18.167 -47 -31.5s-23.833 -28.833 -31.5 -46.5s-11.5 -36.5 -11.5 -56.5c0 -19.333 3.66699 -37.833 11 -55.5s17.333 -33.5 30 -47.5s27.834 -25.833 45.501 -35.5s37.167 -16.5 58.5 -20.5
c3.33301 -0.666992 6.66602 -1.16699 9.99902 -1.5s6.33301 -1.16602 9 -2.49902v140h-58v54h58h54v-54v-157c3.33301 -0.666992 7.66602 -2.33398 12.999 -5.00098c13.333 -6 25.666 -12.833 36.999 -20.5s21.666 -16.5 30.999 -26.5c18 -18 32.667 -40 44 -66
c4.66699 -13.333 8.33398 -26.833 11.001 -40.5s4 -28.167 4 -43.5c0 -23.333 -3.33301 -46 -10 -68s-16.334 -42.667 -29.001 -62c21.333 -16 44.833 -28.5 70.5 -37.5s53.167 -13.5 82.5 -13.5c34.667 0 67.334 6.66699 98.001 20s57.334 31.5 80.001 54.5
s40.667 49.833 54 80.5s20 63.334 20 98.001v448l-59 -10v53l59 10h54h6h53h259c42 0 82 -8 120 -24c37.333 -16.667 69.333 -38.334 96 -65.001c29.333 -29.333 51.333 -62 66 -98zM344.006 295.999c0 -31.333 5.33301 -61 16 -89s25.667 -53 45 -75
c16.667 28 25 58.667 25 92c0 38 -8.5 68.333 -25.5 91s-37.167 40 -60.5 52v-71zM1222.01 239.999c34.667 0 67.334 6.50098 98.001 19.501s57.5 31 80.5 54s41 49.667 54 80s19.5 63.166 19.5 98.499c0 34.667 -6.5 67.167 -19.5 97.5s-31 57 -54 80
s-49.833 41.167 -80.5 54.5s-63.334 20 -98.001 20h-200v-504h185h1h1h13z" />
    <glyph glyph-name="T_E" unicode="TE" horiz-adv-x="730" 
d="M205 744v-690h58v-54h-58h-54h-59v54h59v690h-124v54h124h54h499v-54h-499zM397 0h-59v54h59v132v54v318h-59v54h59h53h254v-54h-254v-318h221v-54h-221v-132h254v-54h-254h-53z" />
    <glyph glyph-name="T_E_2" unicode="te" horiz-adv-x="862" 
d="M330 54h59v-54h-59h-54h-58v54h58v690h-249v54h249h54h504v-54h-504v-690zM582 558v-318h220v-54h-220v-132h252v-54h-252h-54h-59v54h59v132v54v318h-59v54h59h54h252v-54h-252z" />
    <glyph glyph-name="T_H" unicode="TH" horiz-adv-x="928" 
d="M827 798h59v-54h-59v-690h59v-54h-59h-53h-60v54h60v318h-323v-318h59v-54h-59h-53h-59v54h59v504h-59v54h171v-54h-59v-132h323v318h-60v54h60h53zM205 54h59v-54h-59h-54h-59v54h59v690h-124v54h124h54h435v-54h-435v-690z" />
    <glyph glyph-name="T_T" unicode="TT" horiz-adv-x="952" 
d="M667 798h261v-54h-261v-690h59v-54h-59h-53h-60v54h60v690h-100v54h100h53zM342 798h100v-54h-100v-690h59v-54h-59h-54h-59v54h59v690h-261v54h261h54z" />
    <glyph glyph-name="U_U" unicode="UU" horiz-adv-x="1072" 
d="M694 -1c-39.333 0 -79.3301 8.33203 -119.997 24.999c-15.333 6.66699 -29 13.667 -41 21c-13.333 -8 -27.333 -15 -42 -21c-38.667 -16.667 -78.334 -25 -119.001 -25s-80.334 8.33301 -119.001 25c-36 14.667 -68.667 36.667 -98 66
c-28.667 28.667 -50.334 61 -65.001 97c-16 38 -24 77.667 -24 119v438h-60v54h60h53h59v-54h-59v-438c0 -35.333 6.66699 -68.333 20 -99s31.5 -57.334 54.5 -80.001s49.833 -40.667 80.5 -54s63.334 -20 98.001 -20c40.667 0 78.667 9.33301 114 28
c-3.33301 2 -6.33301 5 -9 9c-28 28 -50 60.333 -66 97c-16 38 -24 77.667 -24 119v438h-58v54h58h54h59v-54h-59v-438c0 -39.333 8.33301 -75.833 25 -109.5s39 -62.167 67 -85.5c28.667 23.333 51.167 51.833 67.5 85.5s24.5 70.167 24.5 109.5v438h-59v54h59h53h60v-54
h-60v-438c0 -41.333 -8 -81 -24 -119c-14.667 -36 -36.334 -68.333 -65.001 -97c-3.33301 -4 -6.33301 -7 -9 -9c35.333 -18.667 73.333 -28 114 -28c34.667 0 67.5 6.66699 98.5 20s57.833 31.333 80.5 54s40.667 49.334 54 80.001s20 63.667 20 99v438h-59v54h59h54h59
v-54h-59v-438c0 -41.333 -8 -81 -24 -119c-16 -36.667 -38 -69 -66 -97c-14.667 -14 -30 -26.667 -46 -38s-33 -20.666 -51 -27.999c-40.667 -16.667 -80.667 -25 -120 -25z" />
    <glyph glyph-name="W_N" unicode="WN" horiz-adv-x="1529" 
d="M1437 798h59v-54h-59v-690h59v-53h-171v53h38l-361 618v-618h59v-53h-172v53h38l-369 620v-620h59v-54h-172v54h39l-412 690h-70v54h187v-54h-55l370 -620v620h-59v54h188v-54h-55l370 -620v620h-59v54h188v-54h-55l361 -618v618h-58v54h58h54z" />
    <glyph glyph-name="W_W_W_2" unicode="www" horiz-adv-x="2871" 
d="M2776 798h59v-54h-59v-690h59v-54h-171v54h38l-369 620v-620h58v-54h-171v54h38l-369 620v-620h58v-54h-171v54h38l-369 620v-620h59v-54h-172v54h39l-370 620v-620h59v-54h-171v54h38l-370 620v-620h59v-54h-171v54h38l-412 690h-70v54h171v-54h-38l369 -620v620h-58v54
h171v-54h-38l369 -620v620h-58v54h58h54h59v-54h-38l369 -620v620h-59v54h172v-54h-39l370 -620v620h-59v54h59h54h58v-54h-38l370 -620v620h-59v54h171v-54h-38l369 -620v620h-58v54h58h54z" />
    <glyph glyph-name="A_M" unicode="am" horiz-adv-x="1575" 
d="M1367 798h171v-54h-59v-690h59v-54h-59h-53h-59v54h59v620l-370 -620h38v-54h-171v54h59v620l-370 -620h39v-54h-172v54h71l412 690h-39v54h171v-54h-58v-620l370 620h-39v54zM196 0h-171v54h65l207 690h-51v54h172v-54h-49l150 -504h66v-54h-172v54h50l-40 132h-181
l-96 -318h50v-54zM407 426l-74 252l-75 -252h149z" />
    <glyph glyph-name="L_E_E" unicode="LEE" horiz-adv-x="1122" 
d="M843 744v-132h221v-54h-221v-318h253v-54h-253h-53h-60v54h60v318v54v132h-60v54h60h53h253v-54h-253zM351 186h-59v54h59v318v54v132h-59v54h59h54h253v-54h-253v-132h221v-54h-221v-318h253v-54h-253h-54zM160 54h936v-54h-936h-54h-58v54h58v690h-58v54h58h54h59v-54
h-59v-690z" />
    <glyph glyph-name="W_W_W" unicode="WWW" horiz-adv-x="2825" 
d="M2748 744l-206 -690h41v-54h-153v54h40l-182 611l-182 -611h40v-54h-152v54h40l-186 623l-186 -623h41v-54h-153v54h40l-182 611l-182 -611h40v-54h-152v54h40l-186 623l-186 -623h40v-54h-152v54h40l-183 611l-181 -611h40v-54h-152v54h40l-207 690h-66v54h172v-54h-50
l187 -623l185 623h-56v54h172v-54h-51l186 -623l186 623h-50v54h171v-54h-49l186 -623l185 623h-55v54h171v-54h-51l186 -623l186 623h-50v54h171v-54h-49l186 -623l186 623h-56v54h171v-54h-51l186 -623l186 623h-50v54h172v-54h-66z" />
    <glyph glyph-name="R_I" unicode="RI" horiz-adv-x="887" 
d="M743 73l28.001 -45.999l-23 -13c-34 -22 -71.333 -36 -112 -42c-15.333 -2 -30.666 -3 -45.999 -3c-11.333 0 -23 0.5 -35 1.5s-23.667 3.16699 -35 6.5c-39.333 9.33301 -74.333 25.333 -105 48c-34 24 -61 53.333 -81 88h-1l-44 74h-156v-133h59v-54h-172v54h59v690
h-59v54h313c41.333 0 81 -8 119 -24c37.333 -16 69.666 -37.667 96.999 -65c28 -28.667 49.667 -61.334 65 -98.001c16 -37.333 24 -77 24 -119s-8 -81.333 -24 -118c-15.333 -37.333 -37 -70 -65 -98c-28.667 -28.667 -61 -50.334 -97 -65.001
c-32 -12.667 -65.667 -20.667 -101 -24l28 -47c18 -29.333 40.333 -53.333 67 -72s55.5 -31.667 86.5 -39s62.667 -8.66602 95 -3.99902s63.166 16 92.499 34zM133.001 241.001l200 -0.00195312c34.667 0 67.334 6.66699 98.001 20s57.334 31.333 80.001 54
s40.667 49.167 54 79.5s20 62.833 20 97.5s-6.66699 67.334 -20 98.001s-31.333 57.334 -54 80.001s-49.334 40.667 -80.001 54s-63.334 20 -98.001 20h-200v-503zM806.001 743.999v-504h59v-54h-59h-54h-58v54h58v504h-58v54h171v-54h-59z" />
    <glyph glyph-name="E_T" unicode="ET" horiz-adv-x="915" 
d="M630 798h249v-54h-249v-690h59v-54h-59h-53h-59v54h59v690h-505v54h505h53zM185 558v-319h221v-53h-221v-132h253v-54h-253h-54h-59v54h59v132v53v319h-59v53h59h54h253v-53h-253z" />
    <glyph glyph-name="E_A" unicode="EA" horiz-adv-x="1026" 
d="M130 0h-58v54h58v318v54v318h-58v54h58h54h302v-54h-302v-318h264v-54h-264v-318h538v-54h-538h-54zM660 744h-50v54h172v-54h-50l206 -690h66v-54h-172v54h50l-95 318h-182l-39 -133h49v-53h-171v53h66zM771 426l-75 251l-75 -251h150z" />
    <glyph glyph-name="E_N" unicode="EN" horiz-adv-x="1179" 
d="M131 0h-59v54h59v318v54v318h-59v54h59h54h301v-54h-301v-318h263v-54h-263v-318h633v-54h-633h-54zM608 186h-58v53h58v505h-58v54h171v-54h-39l362 -618v618h-59v54h59h54h58v-54h-58v-690h58v-53h-171v53h39l-362 618v-433h59v-53h-59h-54z" />
    <glyph glyph-name="E_E" unicode="EE" horiz-adv-x="979" 
d="M131 0h-59v54h59v318v54v318h-59v54h59h54h301v-54h-301v-318h264v-54h-264v-318h762v-54h-762h-54zM614 186h-60v54h60v132v54v318h-60v54h60h53h280v-54h-280v-318h248v-54h-248v-132h280v-54h-280h-53z" />
    <glyph glyph-name="H_A_N" unicode="han" horiz-adv-x="1578" 
d="M997 186h-59v53h59v504h-59v54h171v-54h-39l362 -617v617h-59v54h59h54h59v-54h-59v-689h59v-54h-172v54h39l-362 617v-432h59v-53h-59h-53zM99 0h-59v54h59v690h-59v54h59h54h59v-54h-59v-504h322v504h-59v0v54v0h171v0v-54v0h-38l412 -690h70v-54h-171v54h38l-79 132
h-290v-132h58v-54h-58h-54h-59v54h59v132v0h-322v-132h59v-54h-59h-54zM787 240l-258 434v-434h258z" />
    <glyph glyph-name="H_A_N_2" unicode="HAN" horiz-adv-x="1760" 
d="M1674 744v-690h59v-53h-171v53h39l-363 618v-433h60v-53h-60h-53h-59v53h59v505h-59v54h172v-54h-40l362 -618v618h-58v54h58h54h59v-54h-59zM488 242v316h-322v-504h59v-54h-172v54h59v690h-59v54h172v-54h-59v-132h322v132h-59v54h171v-54h-58v-502h58v-54h-171v54h59z
M1106 54h67v-54h-172v54h50l-40 132h-293l-39 -132h50v-54h-172v54h66l206 690h-50v54h171v-54h-49zM995 240l-130 438l-131 -438h261z" />
    <glyph glyph-name="R_A_W" unicode="RAW" horiz-adv-x="2151" 
d="M244 0h-170.999v54h59v690h-59v54h313c41.333 0 81 -8 119 -24c37.333 -16.667 69.666 -38.667 96.999 -66c28 -28.667 49.667 -61.334 65 -98.001c16 -37.333 24 -76.666 24 -117.999c0 -42.667 -8 -82.334 -24 -119.001c-15.333 -36.667 -37 -69 -65 -97
c-27.333 -27.333 -59.666 -49.333 -96.999 -66c-32.667 -13.333 -66.334 -21 -101.001 -23l28 -47c18 -29.333 40.333 -53.5 67 -72.5s55.5 -32.167 86.5 -39.5s62.667 -8.66602 95 -3.99902s63.166 16 92.499 34l23 14l28 -46l-23 -13
c-17.333 -11.333 -35.5 -20.333 -54.5 -27s-38.167 -11.667 -57.5 -15c-15.333 -2 -30.666 -3 -45.999 -3c-12 0 -23.833 0.5 -35.5 1.5s-23.167 3.16699 -34.5 6.5c-38.667 10 -74 26 -106 48c-33.333 24 -60.333 53.333 -81 88l-44 74h-156v-132h58v-54zM186.001 744
v-504.002h200c34.667 0 67.334 6.66699 98.001 20s57.334 31.333 80.001 54s40.667 49.334 54 80.001s20 63.334 20 98.001s-6.66699 67.167 -20 97.5s-31.333 57 -54 80s-49.334 41.167 -80.001 54.5s-63.334 20 -98.001 20h-200zM1161 53.998h65v-54h-171v54h50l-95 318
h-182l-40 -133h50v-53h-172v53h66l150 505h-49v54h172v-54h-51zM994.001 425.998l-76 251l-74 -251h150zM1860 53.998h41v-54h-153v54h40l-182 611l-182 -611h41v-54h-153v54h40l-206 690h-67v54h172v-54h-49l186 -623l186 623h-56v54h172v-54h-52l186 -623l186 623h-50v54
h171v-54h-65z" />
    <glyph glyph-name="E_T_A" unicode="ETA" horiz-adv-x="1330" 
d="M963 745h-49v53h172v-53h-51l207 -691h65v-54h-171v54h50l-40 132h-293l-39 -132h49v-54h-171v54h66zM1130 240l-131 438l-130 -438h261zM37 798h483h54h281v-53h-281v-691h59v-54h-59h-54h-58v54h58v691h-483v53zM96 240v318h-59v54h59h54h253v-54h-253v-318h220v-54
h-220v-132h253v-54h-253h-54h-59v54h59v132v54z" />
    <glyph glyph-name="A_W_A" unicode="AWA" horiz-adv-x="1965" 
d="M523 744h-66v54h172v-54h-50l187 -623l185 623h-56v54h172v-54h-51l186 -623l186 623h-50v54h171v-54h-65l-206 -690h40v-54h-152v54h40l-183 611l-181 -611h40v-54h-152v54h40zM182 0h-172v54h66l206 690h-50v54h171v-54h-49l205 -690h67v-54h-172v54h49l-39 132h-293
l-39 -132h50v-54zM448 239l-130 438l-131 -438h261zM1734 744h-50l206 -690h66v-54h-172v54h50l-40 132h-292l-40 -132h50v-54h-171v54h65l206 690h-50v54h172v-54zM1778 239l-130 438l-130 -438h260z" />
    <glyph glyph-name="T_I" unicode="TI" horiz-adv-x="645" 
d="M510 54v504h-58v54h171v-54h-59v-504h59v-54h-59h-54h-58v54h58zM260 740h-249v54h249h54h309v-54h-309v-686h59v-54h-59h-54h-59v54h59v686z" />
    <glyph glyph-name="L_S" unicode="LS" horiz-adv-x="656" 
d="M106 54v690h-58v54h58h54h59v-54h-59v-690h463v-54h-463h-54h-58v54h58zM310 382l-0.00390625 -27.0029v-10c0 -3.33301 0.666992 -6.66602 2 -9.99902c5.33301 -31.333 19.833 -57.333 43.5 -78s51.5 -31 83.5 -31c18 0 34.833 3.33301 50.5 10
s29.334 15.834 41.001 27.501s20.834 25.334 27.501 41.001s10 32.5 10 50.5c0 22 -4.16699 40.167 -12.5 54.5s-18.5 26.166 -30.5 35.499s-25 16.333 -39 21s-26.667 8 -38 10c-20 3.33301 -39 9.66602 -57 18.999s-33.667 21.333 -47 36
c-14 15.333 -24.833 32.333 -32.5 51s-11.5 38.334 -11.5 59.001c0 21.333 4.16699 41.5 12.5 60.5s19.5 35.667 33.5 50s30.5 25.666 49.5 33.999s39.5 12.5 61.5 12.5c21.333 0 41.5 -4.16699 60.5 -12.5s35.667 -19.666 50 -33.999s25.666 -31 33.999 -50
s12.5 -39.167 12.5 -60.5v-27h-54v27c0 14 -2.66699 27.333 -8 40s-12.666 23.667 -21.999 33s-20.333 16.666 -33 21.999s-26 8 -40 8s-27.333 -2.66699 -40 -8s-23.667 -12.666 -33 -21.999s-16.666 -20.333 -21.999 -33s-8 -26 -8 -40c0 -28 9.66699 -52.333 29 -73
s44 -33.667 74 -39c50.667 -9.33301 90 -28 118 -56c31.333 -31.333 47 -70.666 47 -117.999c0 -24.667 -4.66699 -48 -14 -70s-22.666 -41.667 -39.999 -59s-37 -30.5 -59 -39.5s-45.333 -13.5 -70 -13.5c-22 0 -43.167 3.66699 -63.5 11s-38.833 18.333 -55.5 33
c-16.667 14 -30.167 30.333 -40.5 49s-17.5 38.667 -21.5 60c-0.666992 5.33301 -1 10.333 -1 15v14v27h53z" />
    <glyph glyph-name="C_A" unicode="CA" horiz-adv-x="934" 
d="M748 55h50l-96 319h-181l-39 -132h49v-54h-172v54h67l150 504h-50v53h172v-53h-50l206 -691h65v-53h-171v53zM686 427l-74 251l-75 -251h149zM446 0c-56 0 -108 10.332 -156 30.999c-46.667 19.333 -89 48 -127 86c-36.667 36.667 -65 78.667 -85 126
c-21.333 50.667 -32 102.334 -32 155.001c0 54 10.667 106 32 156c20 48 48.333 90.333 85 127s79 65 127 85c50 21.333 102 32 156 32h26v-54h-26c-48 0 -93 -9 -135 -27s-78.667 -42.667 -110 -74s-56 -68 -74 -110s-27 -87 -27 -135c0 -47.333 9 -92 27 -134
s42.667 -78.5 74 -109.5s68 -55.5 110 -73.5s87 -27 135 -27h26v-54h-26z" />
    <glyph glyph-name="E_T_T_I" unicode="ETTI" horiz-adv-x="1293" 
d="M1261 744h-310v-690h59v-54h-59h-53h-60v54h60v690h-100v54h100h53h310v-54zM1202 558v-504h59v-54h-59h-54h-59v54h59v504h-59v54h172v-54h-59zM626 744v-690h59v-54h-59h-54h-59v54h59v690h-499v54h499h54h100v-54h-100zM186 558v-318h220v-54h-220v-132h252v-54h-252
h-54h-59v54h59v132v54v318h-59v54h59h54h252v-54h-252z" />
    <glyph glyph-name="T_I_O" unicode="tio" horiz-adv-x="1302" 
d="M565 562v-504h59v-54h-59h-54h-59v54h59v504h-59v53h172v-53h-59zM1095 591c18.667 -7.33301 36 -16.498 52 -27.498s31.333 -23.5 46 -37.5c14 -14 26.333 -29.167 37 -45.5s20 -33.5 28 -51.5c16 -39.333 24 -79 24 -119c0 -42 -8 -82 -24 -120
c-16 -36.667 -37.667 -69 -65 -97c-14.667 -14 -30 -26.5 -46 -37.5s-33.333 -20.167 -52 -27.5c-37.333 -16 -77 -24 -119 -24c-41.333 0 -81 8 -119 24c-36.667 15.333 -69 37 -97 65c-28 29.333 -50 61.666 -66 96.999c-16 38 -24 78 -24 120c0 40 8 79.667 24 119
c16.667 37.333 38.667 69.666 66 96.999c28 28 60.333 49.667 97 65c38 16 77.667 24 119 24c42 0 81.667 -8 119 -24zM976 58.002c34.667 0 67.334 6.5 98.001 19.5s57.5 31 80.5 54s41.167 49.667 54.5 80s20 63.166 20 98.499c0 34.667 -6.66699 67.334 -20 98.001
s-31.5 57.334 -54.5 80.001s-49.833 40.667 -80.5 54s-63.334 20 -98.001 20s-67.334 -6.66699 -98.001 -20s-57.334 -31.333 -80.001 -54s-40.667 -49.334 -54 -80.001s-20 -63.334 -20 -98.001c0 -35.333 6.66699 -68.166 20 -98.499s31.333 -57 54 -80
s49.334 -41 80.001 -54s63.334 -19.5 98.001 -19.5zM1282 744.002h-968v-686h59v-54h-59h-53h-59v54h59v686h-250v54h250h53h968v-54z" />
    <glyph glyph-name="E_T_T_E" unicode="ETTE" horiz-adv-x="1485" 
d="M897 744h-100v54h100h53h500v-54h-500v-690h59v-54h-59h-53h-59v54h59v690zM1142 239v319h-59v53h59h54h254v-53h-254v-319h221v-53h-221v-132h254v-54h-254h-54h-59v54h59v132v53zM571 744h-499v54h499h54h100v-54h-100v-690h59v-54h-59h-54h-59v54h59v690zM131 0h-59
v54h59v132v53v319h-59v53h59h54h253v-53h-253v-319h221v-53h-221v-132h253v-54h-253h-54z" />
    <glyph glyph-name="O_G" unicode="OG" horiz-adv-x="1296" 
d="M1221 426h59.0029v-54h-60c-1.33301 -22.667 -4.66602 -44.667 -9.99902 -66s-12 -42.333 -20 -63c-20.667 -48 -49.334 -90 -86.001 -126c-38 -38 -80.333 -66.667 -127 -86c-48 -20.667 -99.667 -31 -155 -31c-54.667 -0 -106.667 10.333 -156 31
c-12 5.33301 -23.833 11.166 -35.5 17.499s-23.167 13.5 -34.5 21.5c-11.333 -8 -22.833 -15.167 -34.5 -21.5s-23.834 -12.166 -36.501 -17.499c-48 -20.667 -99.667 -31 -155 -31c-54.667 -0 -106.667 10.333 -156 31c-46.667 20 -88.667 48.667 -126 86
c-36.667 36 -65.334 78 -86.001 126c-20.667 51.333 -31 103 -31 155c0 53.333 10.333 105.333 31 156c19.333 46.667 48 89 86 127c38 37.333 80 65.666 126 84.999c25.333 10 50.833 17.833 76.5 23.5s52.167 8.5 79.5 8.5s53.833 -2.83301 79.5 -8.5
s50.834 -13.5 75.501 -23.5c26 -11.333 49.667 -24.333 71 -39c11.333 7.33301 22.833 14.333 34.5 21s23.5 12.667 35.5 18c25.333 10 50.833 17.833 76.5 23.5s52.167 8.5 79.5 8.5h27v-54h-27c-34 0 -66.167 -4.5 -96.5 -13.5s-58.833 -21.833 -85.5 -38.5
c5.33301 -5.33301 9.33301 -9 12 -11c38 -38 66.667 -80.333 86 -127c20.667 -50.667 31 -102.667 31 -156c0 -52 -10.333 -103.667 -31 -155c-20.667 -48 -49.334 -90 -86.001 -126l-12 -12c26.667 -16.667 55.167 -29.334 85.5 -38.001s62.5 -13 96.5 -13
c45.333 0 88 8.16699 128 24.5s75.5 38.833 106.5 67.5s56.167 62.334 75.5 101.001s30.666 80.334 33.999 125.001h-207v54h208h54zM715.003 398c0 52 -10.667 100.5 -32 145.5s-50.333 83.5 -87 115.5c-36.667 -32 -65.667 -70.5 -87 -115.5s-32 -93.5 -32 -145.5
s10.667 -100.333 32 -145s50.333 -83 87 -115c36.667 32 65.667 70.333 87 115s32 93 32 145zM370.003 54c34 0 66.168 4.33105 96.501 12.998s58.833 21.334 85.5 38.001l-12 12c-36.667 36 -65.334 78 -86.001 126c-20.667 50.667 -31 102.334 -31 155.001
c0 53.333 10.333 105.333 31 156c19.333 46.667 48 89 86 127c2 1.33301 4 3 6 5l6 6c-26.667 16.667 -55.167 29.5 -85.5 38.5s-62.5 13.5 -96.5 13.5c-48 0 -92.833 -9 -134.5 -27s-78.167 -42.667 -109.5 -74s-56 -68 -74 -110s-27 -87 -27 -135c0 -47.333 9 -92 27 -134
s42.667 -78.5 74 -109.5s67.833 -55.5 109.5 -73.5s86.5 -27 134.5 -27z" />
    <glyph glyph-name="A_R_T" unicode="ART" horiz-adv-x="1416" 
d="M1386 744h-196v-504h60v-54h-60h-53h-59v54h59v504h-195v54h195h53h196v-54zM572 186l-0.000976562 -132h59v-54h-59h-54h-59v54h59v132h-291l-78 -132h38v-54h-172v54h71l412 690h-39v54h113h147c28.667 0 56 -5.33301 82 -16s49 -26 69 -46
c20 -20.667 35.333 -43.834 46 -69.501s16 -52.5 16 -80.5c0 -28.667 -5.33301 -56 -16 -82s-26 -49 -46 -69c-18 -17.333 -38 -31.333 -60 -42s-45.333 -17 -70 -19l23.5 -63.5l31 -83l32 -83l24.5 -63.5c12 -30 29.333 -56.333 52 -79s49 -40.334 79 -53.001
c32 -13.333 64.5 -20 97.5 -20s65.167 6.66699 96.5 20s58.5 31.833 81.5 55.5s40.5 50.167 52.5 79.5s18.167 60.333 18.5 93s-6.16699 65 -19.5 97l-11 24l50 21l10 -25c16 -37.333 24 -76.333 24 -117c0 -39.333 -7.66699 -77.333 -23 -114
c-15.333 -37.333 -36.333 -69.666 -63 -96.999c-30 -29.333 -63 -51.666 -99 -66.999c-38 -16 -77.333 -24 -118 -24h-2c-40.667 1.33301 -79 9.33301 -115 24c-37.333 15.333 -69.666 36.833 -96.999 64.5s-48.333 60.167 -63 97.5l-17.5 45l-22.5 59l-24.5 64.5
l-23.5 61.5l-19 50.5l-12 31.5h-111v-133v-54zM877.999 586c0 22 -4.16699 42.501 -12.5 61.501s-19.666 35.667 -33.999 50s-31.166 25.666 -50.499 33.999s-40 12.5 -62 12.5h-147v-318h147c22 0 42.667 4.16699 62 12.5s36.166 19.833 50.499 34.5
s25.666 31.667 33.999 51s12.5 40 12.5 62zM517.999 240.001v133v53v248l-259 -434h259z" />
    <glyph glyph-name="A_Y" unicode="ay" horiz-adv-x="1094" 
d="M559 54h66v-54h-171v54h49l-39 132h-293l-40 -132h50v-54h-171v54h65l207 690h-50v54h171v-54h-49zM448 240l-130 437l-131 -437h261zM901 798h172v-54h-71l-208 -353v-337h58v-54h-58h-54h-59v54h59v337l-209 353h-70v54h171v-54h-38l172 -293l174 293h-39v54z" />
    <glyph glyph-name="A_Y_2" unicode="AY" horiz-adv-x="1087" 
d="M560 54h66v-54h-172v54h50l-40 132h-293l-39 -132h50v-54h-172v54h66l206 690h-50v54h171v-54h-49zM448 240l-130 437l-131 -437h261zM902 798h171v-54h-70l-209 -536v-154h59v-54h-59h-54h-59v54h59v154l-207 536h-72v54h172v-54h-43l177 -457l179 457h-44v54z" />
    <glyph glyph-name="D_A" unicode="DA" horiz-adv-x="1155" 
d="M614 398c0 -52.667 -10.667 -104.334 -32 -155.001c-10 -23.333 -22 -45.666 -36 -66.999s-30.333 -41 -49 -59c-38 -38 -80.333 -66.667 -127 -86c-48 -20.667 -100 -31 -156 -31h-66h-56h-57v54h57h2v690h-2h-57v54h57h56h66c54 0 106 -10.667 156 -32
c24 -10 46.5 -22.167 67.5 -36.5s40.833 -30.5 59.5 -48.5c36.667 -36.667 65 -79 85 -127c21.333 -50 32 -102 32 -156zM214 54c48 0 93 9 135 27s78.667 42.5 110 73.5s56 67.5 74 109.5s27 86.667 27 134c0 48 -9 93 -27 135s-42.667 78.667 -74 110s-68 56 -110 74
s-87 27 -135 27h-66v-690h66zM1064 54h66v-54h-172v54h50l-40 132h-293l-39 -132h50v-54h-172v54h66l206 690h-50v54h171v-54h-49zM952 239l-130 438l-131 -438h261z" />
    <glyph glyph-name="D_U" unicode="DU" horiz-adv-x="986" 
d="M961 744l-59.001 -0.00390625v-438c0 -41.333 -8 -81 -24 -119c-16 -36.667 -38 -69 -66 -97c-14 -14 -29.167 -26.667 -45.5 -38s-33.833 -20.666 -52.5 -27.999c-37.333 -16 -77 -24 -119 -24c-41.333 0 -81 8 -119 24c-10 4.66699 -19.833 9.5 -29.5 14.5
s-19.167 10.833 -28.5 17.5c-14 -9.33301 -30 -17.666 -48 -24.999c-48 -20.667 -99.667 -31 -155 -31h-67h-55h-58v54h58h1v690h-1h-58v54h58h55h67c53.333 0 105 -10.667 155 -32c48 -20 90.333 -48.333 127 -85s65 -79 85 -127c21.333 -50 32 -102 32 -156
c0 -52.667 -10.667 -104.334 -32 -155.001c-20 -47.333 -48.333 -89.333 -85 -126c-5.33301 -5.33301 -10.5 -10.166 -15.5 -14.499l-15.5 -13.5c38.667 -23.333 81.667 -35 129 -35c34.667 0 67.334 6.66699 98.001 20s57.5 31.333 80.5 54s41.167 49.334 54.5 80.001
s20 63.334 20 98.001v438h-58v54h58h54h59v-54zM214.999 53.9961c29.333 0 57.3311 3.33105 83.998 9.99805s52 16.334 76 29.001c-13.333 13.333 -25.166 28 -35.499 44s-19.166 32.667 -26.499 50c-16 38 -24 77.667 -24 119v224h-59v53h59h53h59v-53h-59v-224
c0 -36 7.16699 -69.833 21.5 -101.5s33.833 -59.167 58.5 -82.5c42 32 75.5 71.833 100.5 119.5s37.5 99.834 37.5 156.501c0 48 -9 93 -27 135s-42.667 78.667 -74 110s-67.833 56 -109.5 74s-86.5 27 -134.5 27h-67v-690h67z" />
    <glyph glyph-name="D_J" unicode="DJ" horiz-adv-x="1002" 
d="M810 798l170.996 -0.000976562v-54h-59v-438c0 -42 -8 -82 -24 -120c-8 -18 -17.333 -35.167 -28 -51.5s-23 -31.5 -37 -45.5c-29.333 -28.667 -62 -50.667 -98 -66c-37.333 -16 -77 -24 -119 -24c-41.333 0 -81 8 -119 24c-12 5.33301 -23.667 11.333 -35 18
s-22.333 14.334 -33 23.001c-10 -6.66699 -20 -12.667 -30 -18s-20.667 -10.333 -32 -15c-48 -20.667 -99.667 -31 -155 -31h-67h-54h-1h-57v54h57h1v690h-1h-57v54h57h1h54h67c53.333 0 105 -10.667 155 -32c23.333 -10 45.833 -22 67.5 -36s41.5 -30.333 59.5 -49
s34.167 -38.5 48.5 -59.5s26.5 -43.5 36.5 -67.5c21.333 -50 32 -102 32 -156c0 -52.667 -10.667 -104.334 -32 -155.001c-19.333 -46 -47.666 -88 -84.999 -126l-10 -10c-3.33301 -3.33301 -6.66602 -6.33301 -9.99902 -9c20 -14 42 -25 66 -33s49.333 -12 76 -12
c34.667 0 67.334 6.66699 98.001 20s57.334 31.333 80.001 54s40.667 49.334 54 80.001s20 63.667 20 99v438h-58v54zM211.996 53.999c32 0 62.8301 4.16895 92.4971 12.502s57.5 20.166 83.5 35.499c-11.333 12 -21.5 25.167 -30.5 39.5s-16.833 29.166 -23.5 44.499
c-6 15.333 -11 30.5 -15 45.5s-6.66699 30.5 -8 46.5h-60v54h59h54h59v-54h-57c2.66699 -28 9.83398 -54.333 21.501 -79s26.5 -46.667 44.5 -66c38.667 32 69.334 70.833 92.001 116.5s34 95.167 34 148.5c0 48 -9.16699 93 -27.5 135s-43.166 78.667 -74.499 110
s-68 56 -110 74s-86.667 27 -134 27h-67v-690h67z" />
    <glyph glyph-name="M_M" unicode="MM" horiz-adv-x="1967" 
d="M1942 54v-54h-172v54h51l-187 624l-185 -624h51v-54h-172v54h56l-186 624l-186 -624h49h8v-54h-8h-164h-7v54h7h50l-185 624l-187 -624h51v-54h-171v54h56l-186 624l-186 -624h49v-54h-171v54h66l206 690h-40v54h153v-54h-41l182 -611l183 611h-40v54h152v-54h-40
l182 -611l182 611h-40v54h153v-54h-41l182 -611l182 611h-40v54h153v-54h-41l206 -690h66z" />
    <glyph glyph-name="A_R_3" unicode="Ar" horiz-adv-x="1090" 
d="M983 708c29.333 -29.333 51.334 -61.667 66.001 -97c16 -37.333 24 -77 24 -119s-8 -81.333 -24 -118c-14.667 -36 -36.667 -68.667 -66 -98c-27.333 -27.333 -59.666 -49.333 -96.999 -66c-32.667 -13.333 -66.334 -21 -101.001 -23l80 -133h70v-54h-100l-1 -1v1h-70v54
h38l-79 132h-157v-132h60v-54h-172v54h50l-39 132h-294l-39 -132h50v-54h-172v54h66l206 690h-50v54h172v-54h-50l159 -534v534h-59v54h313c42 0 81.667 -8 119 -24c37.333 -16.667 69.666 -38.667 96.999 -66zM449.001 239.999l-131 437l-131 -437h262zM767.001 239.999
c34.667 0 67.334 6.66504 98.001 19.998s57.334 31.5 80.001 54.5s40.667 49.667 54 80s20 62.833 20 97.5s-6.66699 67.334 -20 98.001s-31.333 57.334 -54 80.001s-49.334 40.667 -80.001 54s-63.334 20 -98.001 20h-201v-504h186l1 1l1 -1h13z" />
    <glyph glyph-name="A_R_4" unicode="ar" horiz-adv-x="1086" 
d="M1256 -94c-17.333 -10.667 -35.499 -19.498 -54.499 -26.498s-38.5 -11.833 -58.5 -14.5c-13.333 -2.66699 -28.333 -4 -45 -4c-24 0 -47.333 3 -70 9c-38.667 8 -74 24 -106 48c-16 11.333 -30.833 24.333 -44.5 39s-25.834 30.667 -36.501 48l-111 182h-156v-133h59
v-54h-172v54h50l-40 132h-293l-39 -132h50v-54h-171v54h65l206 690h-50v54h171v-54h-49l159 -534v534h-59v54h313c41.333 0 81 -8 119 -24c18.667 -8 36 -17.333 52 -28s31 -23.334 45 -38.001c28.667 -28.667 50.334 -61 65.001 -97c16 -37.333 24 -77 24 -119
s-8 -81.333 -24 -118c-15.333 -37.333 -37 -70 -65 -98c-28.667 -28.667 -61 -50.334 -97 -65.001c-32 -12.667 -65.667 -20.667 -101 -24l94 -154c18 -29.333 40.5 -53.333 67.5 -72s56 -31.667 87 -39s62.667 -8.83301 95 -4.5s63.166 15.5 92.499 33.5l22 15l28 -46z
M455.001 240.002l-130 438l-131 -438h261zM574.001 241.002l200 -0.00195312c34.667 0 67.334 6.66699 98.001 20s57.334 31.333 80.001 54s40.667 49.167 54 79.5s20 62.833 20 97.5s-6.66699 67.334 -20 98.001s-31.333 57.334 -54 80.001s-49.334 40.667 -80.001 54
s-63.334 20 -98.001 20h-200v-503z" />
    <glyph glyph-name="H_A" unicode="HA" horiz-adv-x="1194" 
d="M488 242v316h-322v-504h59v-54h-172v54h59v690h-59v54h172v-54h-59v-132h322v132h-59v54h171v-54h-58v-502h58v-54h-171v54h59zM1173 54v-54h-172v54h50l-40 132h-293l-39 -132h50v-54h-171v54h65l206 690h-50v54h171v-54h-49l206 -690h66zM995 240l-130 437l-131 -437
h261z" />
    <glyph glyph-name="A_E" unicode="AE" horiz-adv-x="915" 
d="M527 798h54h301v-54h-301v-505h264v-53h-264v-132h301v-54h-301h-54h-59v54h59v132h-291l-79 -132h39v-54h-172v54h70l412 690h-62v54h83zM268 239h259v435z" />
    <glyph glyph-name="A_E_2" unicode="ae" horiz-adv-x="942" 
d="M626 798h301v-54h-301v-504h264v-54h-264v-132h16h285v-54h-285h-16h-53h-59h-44v54h44h7l-40 132h-293l-39 -132h49v-54h-172v54h67l205 690h-49v54h171v-54h-50l203 -678v120v54v504h-59v54h59h53zM465 240l-131 437l-130 -437h261z" />
    <glyph glyph-name="R_A" unicode="RA" horiz-adv-x="1246" 
d="M796 72l28 -45.999l-23 -13c-17.333 -11.333 -35.5 -20.333 -54.5 -27s-38.167 -11.667 -57.5 -15c-15.333 -2 -30.666 -3 -45.999 -3c-12 0 -23.833 0.5 -35.5 1.5s-23.167 3.16699 -34.5 6.5c-38.667 10 -74 26 -106 48c-32 23.333 -59 52.666 -81 87.999l-44 74h-156
v-132h58v-54h-171v54h59v690h-59v54h313c41.333 0 81 -8 119 -24c37.333 -16.667 69.666 -38.667 96.999 -66c28 -28.667 49.667 -61.334 65 -98.001c16 -37.333 24 -76.666 24 -117.999c0 -42.667 -8 -82.334 -24 -119.001c-15.333 -36.667 -37 -69 -65 -97
c-27.333 -27.333 -59.666 -49.333 -96.999 -66c-32.667 -13.333 -66.667 -21 -102 -23l29 -47c18 -29.333 40.333 -53.5 67 -72.5s55.5 -32.167 86.5 -39.5s62.667 -8.66602 95 -3.99902s63.166 16 92.499 34zM186 240.001l200 -0.00195312
c34.667 0 67.334 6.66699 98.001 20s57.334 31.333 80.001 54s40.667 49.334 54 80.001s20 63.334 20 98.001s-6.66699 67.167 -20 97.5s-31.333 57 -54 80s-49.334 41.167 -80.001 54.5s-63.334 20 -98.001 20h-200v-504zM1226 53.999v-54h-171v54h50l-95 318h-182
l-40 -133h50v-53h-172v53h66l150 505h-49v54h172v-54h-51l207 -690h65zM994 425.999l-76 251l-74 -251h150z" />
    <glyph glyph-name="I_T" unicode="IT" horiz-adv-x="669" 
d="M210 54v-54h-59h-53h-60v54h60v504h-60v54h172v-54h-59v-504h59zM402 54h59v-54h-59h-54h-59v54h59v686h-310v54h310h54h248v-54h-248v-686z" />
    <glyph glyph-name="A_W_A_Y" unicode="AWAY" horiz-adv-x="2410" 
d="M523 744h-66v54h172v-54h-50l187 -623l185 623h-56v54h172v-54h-51l186 -623l186 623h-50v54h171v-54h-65l-206 -690h40v-54h-152v54h40l-183 611l-181 -611h40v-54h-152v54h40zM182 0h-172v54h66l206 690h-50v54h171v-54h-49l205 -690h67v-54h-172v54h49l-39 132h-293
l-39 -132h50v-54zM448 239l-130 438l-131 -438h261zM1734 744h-50l206 -690h66v-54h-172v54h50l-40 132h-292l-40 -132h50v-54h-171v54h65l206 690h-50v54h172v-54zM1778 239l-130 438l-130 -438h260zM2094 286l178 458h-44v54h171v-54h-69l-209 -536v-154h58v-54h-58h-54
h-59v54h59v154l-207 536h-72v54h171v-54h-41z" />
    <glyph glyph-name="R_E_2" unicode="re" horiz-adv-x="1144" 
d="M859 798h253v-54h-253v-318h221v-54h-221v-133h253v-53h-253h-53h-60v53h60v133v54v318h-60v54h60h53zM796 72l28.001 -46.002l-22 -13c-18 -11.333 -36.333 -20.333 -55 -27s-38 -11.667 -58 -15c-15.333 -2 -30.333 -3 -45 -3c-12 0 -23.833 0.5 -35.5 1.5
s-23.167 3.16699 -34.5 6.5c-38.667 10 -74 26 -106 48c-32.667 24 -60 53.333 -82 88l-44 74h-156v-132h59v-54h-171v54h58v690h-58v54h312c40.667 0 80.667 -8 120 -24c36 -16 68 -38 96 -66c29.333 -29.333 51.333 -62 66 -98c16 -37.333 24 -76.666 24 -117.999
c0 -42.667 -8 -82.334 -24 -119.001c-14.667 -35.333 -36.667 -67.666 -66 -96.999c-28 -28 -60 -50 -96 -66c-34 -13.333 -68 -21 -102 -23l28 -47c18 -29.333 40.5 -53.5 67.5 -72.5s56 -32.167 87 -39.5s62.667 -8.66602 95 -3.99902s63.166 16 92.499 34z
M186.001 239.998l200 -0.00195312c34.667 0 67.334 6.66699 98.001 20s57.5 31.333 80.5 54s41 49.334 54 80.001s19.5 63.334 19.5 98.001s-6.5 67.167 -19.5 97.5s-31 57 -54 80s-49.833 41.167 -80.5 54.5s-63.334 20 -98.001 20h-200v-504z" />
    <glyph glyph-name="R_E" unicode="RE" horiz-adv-x="1146" 
d="M859 744v-133h216v-53h-216v-319h248v-53h-248h-53h-60v53h60v505h-60v54h60h53h248v-54h-248zM796 72l29.001 -46.002l-23 -13c-17.333 -11.333 -35.5 -20.333 -54.5 -27s-38.5 -11.667 -58.5 -15c-15.333 -2 -30.333 -3 -45 -3c-12 0 -23.833 0.5 -35.5 1.5
s-23.167 3.16699 -34.5 6.5c-38.667 10 -74 26 -106 48c-32.667 24 -60 53.333 -82 88l-44 74h-156v-132h59v-54h-171v54h59v690h-59v54h312c42 0 82 -8 120 -24c36 -16 68 -38 96 -66c29.333 -29.333 51.333 -62 66 -98c16 -37.333 24 -76.666 24 -117.999
c0 -42.667 -8 -82.334 -24 -119.001c-14.667 -35.333 -36.667 -67.666 -66 -96.999c-28 -28 -60 -50 -96 -66c-34 -13.333 -68 -21 -102 -23l28 -47c18 -29.333 40.5 -53.5 67.5 -72.5s56 -32.167 87 -39.5s62.667 -8.66602 95 -3.99902s63.166 16 92.499 34z
M186.001 239.998l200 -0.00195312c34.667 0 67.334 6.66699 98.001 20s57.5 31.333 80.5 54s41 49.334 54 80.001s19.5 63.334 19.5 98.001s-6.5 67.167 -19.5 97.5s-31 57 -54 80s-49.833 41.167 -80.5 54.5s-63.334 20 -98.001 20h-200v-504z" />
    <glyph glyph-name=".notdef" horiz-adv-x="358" 
 />
    <glyph glyph-name="NULL" horiz-adv-x="0" 
 />
    <glyph glyph-name="NULL" horiz-adv-x="0" 
 />
    <glyph glyph-name="nonmarkingreturn" unicode="&#xd;" horiz-adv-x="358" 
 />
    <glyph glyph-name="space" unicode=" " horiz-adv-x="256" 
 />
    <glyph glyph-name="exclam" unicode="!" horiz-adv-x="279" 
d="M168 802h59v-53h-59v-597h-54v597h-59v53h59h54zM142 98c14 0 25.833 -4.83301 35.5 -14.5s14.5 -21.167 14.5 -34.5s-4.83301 -24.833 -14.5 -34.5s-21.5 -14.5 -35.5 -14.5s-25.667 4.83301 -35 14.5s-14 21.167 -14 34.5s4.66699 24.833 14 34.5s21 14.5 35 14.5z" />
    <glyph glyph-name="quotedbl" unicode="&#x22;" horiz-adv-x="271" 
d="M173 700l-2 258h47v-258h-45zM56 700l-2 258h47v-258h-45z" />
    <glyph glyph-name="numbersign" unicode="#" horiz-adv-x="666" 
d="M478 499l-26 -198h138v-59h-146l-33 -242h-58l32 242h-144l-33 -242h-58l32 242h-129v59h137l26 198h-138v59h146l33 243h59l-33 -243h144l33 243h59l-33 -243h129v-59h-137zM419 499h-144l-26 -198h144z" />
    <glyph glyph-name="dollar" unicode="$" horiz-adv-x="510" 
d="M406 555v27.001c0 18.667 -3 36.334 -9 53.001s-14.5 31.667 -25.5 45s-23.833 24.333 -38.5 33s-30.334 14.334 -47.001 17.001v-315c20.667 -6 40.334 -14.667 59.001 -26s35 -25 49 -41c18 -19.333 31.667 -41.333 41 -66s14 -50 14 -76c0 -55.333 -19 -103 -57 -143
c-30 -30.667 -65.333 -49.667 -106 -57v-99h-54v97c-22 3.33301 -43 9.83301 -63 19.5s-38 22.834 -54 39.501c-38 40 -57 87.667 -57 143v28h54v-28c0 -18.667 3 -36.334 9 -53.001s14.5 -31.5 25.5 -44.5s23.667 -24 38 -33s30.166 -14.833 47.499 -17.5v315
c-42.667 12.667 -78.667 35 -108 67c-17.333 19.333 -30.666 41.333 -39.999 66s-14 50 -14 76c0 27.333 4.83301 53.166 14.5 77.499s23.5 46.166 41.5 65.499c30 30.667 65.333 49.667 106 57v100h54v-98c22 -3.33301 43 -9.83301 63 -19.5s38 -22.834 54 -39.501
c38 -40 57 -87.667 57 -143v-27h-54zM123 582.001c0 -34 10 -64.832 30 -92.499s46.333 -47.834 79 -60.501v298c-15.333 -4 -29.666 -10.333 -42.999 -19s-24.833 -19.5 -34.5 -32.5s-17.334 -27.333 -23.001 -43s-8.5 -32.5 -8.5 -50.5zM395 206.002
c0 34 -10 64.832 -30 92.499s-46.333 47.834 -79 60.501v-298c16 4 30.667 10.5 44 19.5s24.833 19.833 34.5 32.5s17.167 27 22.5 43s8 32.667 8 50z" />
    <glyph glyph-name="percent" unicode="%" horiz-adv-x="937" 
d="M839 323c18 -18 31.668 -38.333 41.001 -61s14 -46.667 14 -72s-4.66699 -49.666 -14 -72.999s-23 -43.666 -41 -60.999c-36.667 -36.667 -81.334 -55 -134.001 -55c-25.333 0 -49.333 4.66699 -72 14s-43 23 -61 41c-18 17.333 -31.667 37.666 -41 60.999
s-14 47.666 -14 72.999s4.66699 49.333 14 72s23 43 41 61c18 17.333 38.333 30.833 61 40.5s46.667 14.5 72 14.5s49.5 -4.83301 72.5 -14.5s43.5 -23.167 61.5 -40.5zM705.001 54c18.667 0 36.334 3.5 53.001 10.5s31.167 16.667 43.5 29s22 26.666 29 42.999
s10.5 34.166 10.5 53.499c0 18.667 -3.5 36.167 -10.5 52.5s-16.667 30.666 -29 42.999s-26.833 22 -43.5 29s-34.334 10.5 -53.001 10.5s-36.167 -3.5 -52.5 -10.5s-30.666 -16.667 -42.999 -29s-22 -26.666 -29 -42.999s-10.5 -33.833 -10.5 -52.5
c0 -19.333 3.5 -37.166 10.5 -53.499s16.667 -30.666 29 -42.999s26.666 -22 42.999 -29s33.833 -10.5 52.5 -10.5zM421.001 506c0 -25.333 -4.66602 -49.5 -13.999 -72.5s-23 -43.167 -41 -60.5c-18 -18 -38.333 -31.667 -61 -41s-46.667 -14 -72 -14
c-52.667 0 -97.334 18.333 -134.001 55c-18 17.333 -31.667 37.5 -41 60.5s-14 47.167 -14 72.5c0 52.667 18.333 97.334 55 134.001c18 17.333 38.5 30.833 61.5 40.5s47.167 14.5 72.5 14.5s49.333 -4.83301 72 -14.5s43 -23.167 61 -40.5
c36.667 -36.667 55 -81.334 55 -134.001zM233.002 371c18.667 0 36.167 3.5 52.5 10.5s30.666 16.667 42.999 29s22 26.666 29 42.999s10.5 33.833 10.5 52.5s-3.5 36.334 -10.5 53.001s-16.667 31.167 -29 43.5s-26.666 22 -42.999 29s-33.833 10.5 -52.5 10.5
s-36.334 -3.5 -53.001 -10.5s-31.167 -16.667 -43.5 -29s-22 -26.833 -29 -43.5s-10.5 -34.334 -10.5 -53.001s3.5 -36.167 10.5 -52.5s16.667 -30.666 29 -42.999s26.833 -22 43.5 -29s34.334 -10.5 53.001 -10.5zM318.002 -85l-49 21l351 844l49 -20z" />
    <glyph glyph-name="ampersand" unicode="&#x26;" horiz-adv-x="621" 
d="M578 15c-2 2 -11.666 12.501 -28.999 31.501l-64 70.5l-16 -23c-5.33301 -7.33301 -11.666 -14.333 -18.999 -21c-22.667 -23.333 -48.5 -41 -77.5 -53s-59.5 -18 -91.5 -18c-66.667 0 -123.667 23.667 -171 71c-22.667 22.667 -40 48.5 -52 77.5s-18 59.833 -18 92.5
c0 46 12.333 88.667 37 128c24.667 38.667 56.667 67.667 96 87c0.666992 0 2.5 0.833008 5.5 2.5l11.5 6.5c-10 15.333 -19.5 31.333 -28.5 48s-17.167 32.667 -24.5 48c-3.33301 6 -6.5 13.167 -9.5 21.5s-5.5 18.166 -7.5 29.499s-3.33301 20 -4 26s-1 13.333 -1 22
c0 50 16.667 91 50 123c32 30 71.333 45 118 45c23.333 0 45.166 -4.5 65.499 -13.5s38.166 -21 53.499 -36s27.333 -32.833 36 -53.5s13 -42.334 13 -65.001c0 -32 -10.667 -62.667 -32 -92c-10.667 -15.333 -21.667 -28.333 -33 -39s-21.333 -19.334 -30 -26.001
c-10 -7.33301 -23.167 -16 -39.5 -26l-48.5 -29c6 -10 13 -19.333 21 -28c8.66699 -11.333 19.667 -24.666 33 -39.999l43 -50l48.5 -56l51.5 -57c0.666992 3.33301 1.16699 7 1.5 11s0.5 8.33301 0.5 13v27h54v-27c0 -24.667 -4 -49 -12 -73l76.5 -83.5
c21 -22.333 31.5 -34.166 31.5 -35.499l19 -19l-40 -37zM185.001 586.001c15.333 -32 32.6709 -62.668 52.0039 -92.001l48.5 28.5c16.333 9.66699 29.166 18.167 38.499 25.5c18 13.333 34.667 30.166 50 50.499s23 41.5 23 63.5c0 16 -3 30.833 -9 44.5
s-14.167 25.667 -24.5 36s-22.333 18.5 -36 24.5s-28.5 9 -44.5 9c-14 0 -27.833 -2.33301 -41.5 -7s-25.834 -11.667 -36.501 -21s-19.334 -21.166 -26.001 -35.499s-10 -31.166 -10 -50.499c0 -7.33301 0.166992 -13.333 0.5 -18s1.5 -11.667 3.5 -21
c1.33301 -7.33301 3.16602 -14 5.49902 -20zM281.006 56c36 0 68.834 9.49707 98.501 28.4971s52.167 43.833 67.5 74.5l-57 63.5l-55.5 63l-49.5 57c-15.333 17.667 -28 32.834 -38 45.501c-8.66699 10.667 -17.334 22.334 -26.001 35.001
c-6.66699 -3.33301 -12 -6.16602 -16 -8.49902s-6.66699 -3.83301 -8 -4.5c-32 -16 -57.333 -38.833 -76 -68.5s-28 -62.5 -28 -98.5c0 -26 4.83301 -50.333 14.5 -73s23 -42.5 40 -59.5s37 -30.333 60 -40s47.5 -14.5 73.5 -14.5z" />
    <glyph glyph-name="quotesingle" unicode="'" horiz-adv-x="213" 
d="M126 700l-88 258l47 15l86 -258z" />
    <glyph glyph-name="parenleft" unicode="(" horiz-adv-x="358" 
d="M187 788c33.333 29.333 69.332 44.0039 107.999 44.0039h27v-54h-27c-26 0 -50.667 -10.333 -74 -31c-24.667 -20.667 -47.334 -51.667 -68.001 -93c-21.333 -44 -37.666 -93.667 -48.999 -149s-17 -114 -17 -176c0 -62.667 5.66699 -121.667 17 -177
s27.666 -105 48.999 -149c20.667 -41.333 43.334 -72.333 68.001 -93c24.667 -21.333 49.334 -32 74.001 -32h27v-53h-27c-38.667 0 -74.667 14.667 -108 44c-16 13.333 -30.833 29.166 -44.5 47.499s-26.167 39.166 -37.5 62.499c-23.333 48 -41.166 101.667 -53.499 161
s-18.5 122.333 -18.5 189c0 66 6.16699 128.833 18.5 188.5s30.166 113.167 53.499 160.5c11.333 23.333 23.833 44.166 37.5 62.499s28.5 34.166 44.5 47.499z" />
    <glyph glyph-name="parenright" unicode=")" horiz-adv-x="364" 
d="M174 788c30.667 -26 58 -62.667 82 -110c23.333 -47.333 41.166 -100.833 53.499 -160.5s18.5 -122.5 18.5 -188.5c0 -66.667 -6.16699 -129.667 -18.5 -189s-30.166 -113 -53.499 -161c-24 -47.333 -51.333 -84 -82 -110c-33.333 -29.333 -69.666 -44 -108.999 -44h-26
v53h26c25.333 0 50.333 10.667 75 32c24.667 20.667 47.334 51.667 68.001 93c21.333 44 37.666 93.667 48.999 149s17 114.333 17 177c0 62 -5.66699 120.667 -17 176s-27.666 105 -48.999 149c-20.667 41.333 -43.334 72.333 -68.001 93c-23.333 20.667 -48.333 31 -75 31
h-26v54h26c39.333 0 75.666 -14.667 108.999 -44z" />
    <glyph glyph-name="plus" unicode="+" horiz-adv-x="891" 
d="M418 372h-371v54h371v372h54v-372h371v-54h-371v-372h-54v372z" />
    <glyph glyph-name="comma" unicode="," horiz-adv-x="194" 
d="M102 98c14 0 25.833 -4.83301 35.5 -14.5s14.5 -21.167 14.5 -34.5c0 -15.333 -6.33301 -28.333 -19 -39l-52 -64l-25 14l18 49c-14 10 -21 23.333 -21 40c0 13.333 4.66699 24.833 14 34.5s21 14.5 35 14.5z" />
    <glyph glyph-name="hyphen" unicode="-" horiz-adv-x="412" 
d="M359 372h-306v53h306v-53z" />
    <glyph glyph-name="period" unicode="." horiz-adv-x="206" 
d="M102 98c14 0 25.833 -4.83301 35.5 -14.5s14.5 -21.167 14.5 -34.5s-4.83301 -24.833 -14.5 -34.5s-21.5 -14.5 -35.5 -14.5s-25.667 4.83301 -35 14.5s-14 21.167 -14 34.5s4.66699 24.833 14 34.5s21 14.5 35 14.5z" />
    <glyph glyph-name="slash" unicode="/" horiz-adv-x="441" 
d="M422 806l-345 -827h-59l345 827h59z" />
    <glyph glyph-name="zero" unicode="0" horiz-adv-x="874" 
d="M35 27l109.001 110.002c-27.333 30.667 -49.666 66.334 -66.999 107.001c-20.667 48 -31 99.667 -31 155s10.333 107 31 155c19.333 46.667 48 89 86 127c18 18.667 37.667 35 59 49s43.666 26 66.999 36c50.667 21.333 102.334 32 155.001 32c54 0 106 -10.667 156 -32
c38 -16 73.667 -38.333 107 -67l109 110l38 -38l-109 -109c29.333 -33.333 51.666 -69.333 66.999 -108c10 -24.667 17.833 -49.834 23.5 -75.501s8.5 -52.167 8.5 -79.5s-2.83301 -53.833 -8.5 -79.5s-13.5 -50.834 -23.5 -75.501c-10 -24 -22.167 -46.5 -36.5 -67.5
s-30.5 -40.833 -48.5 -59.5c-36 -36 -78.333 -64.667 -127 -86c-24.667 -10.667 -50 -18.5 -76 -23.5s-52.667 -7.5 -80 -7.5c-54 0 -105.667 10.333 -155 31c-40.667 17.333 -76.334 39.666 -107.001 66.999l-110 -109zM790.001 399.002c0 43.333 -7.33301 84 -22 122
s-35 72 -61 102l-487 -486c30 -26 64.167 -46.333 102.5 -61s78.833 -22 121.5 -22c48 0 93 9 135 27s78.667 42.667 110 74s56 68 74 110s27 86.667 27 134zM100.001 399.002c0 -42.667 7.33301 -83.167 22 -121.5s34.667 -72.833 60 -103.5l486 488
c-30 25.333 -64 45.333 -102 60s-78.667 22 -122 22c-47.333 0 -92 -9 -134 -27s-78.5 -42.667 -109.5 -74s-55.5 -67.833 -73.5 -109.5s-27 -86.5 -27 -134.5z" />
    <glyph glyph-name="one" unicode="1" horiz-adv-x="231" 
d="M89 0h-59v54h59v690h-59v54h59h53h60v-54h-60v-690h60v-54h-60h-53z" />
    <glyph glyph-name="two" unicode="2" horiz-adv-x="675" 
d="M142 0l-27.999 0.000976562h-85v54h74l357 366c38 36.667 57 81.334 57 134.001c0 26 -5 50.5 -15 73.5s-23.5 43 -40.5 60s-37 30.5 -60 40.5s-47.5 15 -73.5 15c-21.333 0 -41.666 -3.33301 -60.999 -10s-37 -16.167 -53 -28.5s-29.833 -26.833 -41.5 -43.5
s-20.5 -35 -26.5 -55h54v-53h-171v53h62c5.33301 25.333 14.666 49.166 27.999 71.499s29.666 42.166 48.999 59.499c22.667 19.333 47.5 34.166 74.5 44.499s55.5 15.5 85.5 15.5c32.667 0 63.667 -6.16699 93 -18.5s55.333 -29.833 78 -52.5
c23.333 -23.333 41 -49.666 53 -78.999s18 -60.333 18 -93c0 -31.333 -6.66699 -63 -20 -95c-12.667 -30 -30 -55.667 -52 -77l-320 -328h468v-54h-504z" />
    <glyph glyph-name="three" unicode="3" horiz-adv-x="533" 
d="M480 168c-13.333 -32 -32.668 -61.0039 -58.001 -87.0039c-25.333 -25.333 -54.666 -45 -87.999 -59c-33.333 -14.667 -69 -22 -107 -22h-190v54h190c30.667 0 59.334 5.83301 86.001 17.5s50 27.5 70 47.5s35.833 43.333 47.5 70s17.5 55.334 17.5 86.001
s-5.83301 59.334 -17.5 86.001s-27.5 50 -47.5 70s-43.333 35.833 -70 47.5s-55.334 17.5 -86.001 17.5h-52v54h52c28 0 54.667 5 80 15s47.833 23.667 67.5 41s35.667 37.833 48 61.5s20.166 49.167 23.499 76.5h-409v54h438h27c0 -19.333 -1.83301 -42.166 -5.5 -68.499
s-9.16699 -48.166 -16.5 -65.499c-13.333 -32 -32.666 -61 -57.999 -87c-11.333 -11.333 -23.333 -21.333 -36 -30s-26 -16.667 -40 -24c14 -6.66699 27.333 -14.5 40 -23.5s24.667 -18.833 36 -29.5c24.667 -26.667 44 -56 58 -88c14.667 -35.333 22 -71 22 -107
s-7.33301 -71.667 -22 -107z" />
    <glyph glyph-name="four" unicode="4" horiz-adv-x="559" 
d="M476 797v-551h61v-53h-61v-139h61v-54h-61h-54h-61v54h61v139h-406v42l411 577h49v-15zM90 246h332v467z" />
    <glyph glyph-name="five" unicode="5" horiz-adv-x="520" 
d="M324 22c-33.333 -14.667 -68.666 -22.002 -105.999 -22.002h-191v54h191c30 0 58.333 5.83301 85 17.5s50 27.5 70 47.5s35.833 43.333 47.5 70s17.5 55.334 17.5 86.001s-5.83301 59.334 -17.5 86.001s-27.5 50 -47.5 70s-43.333 35.833 -70 47.5s-55 17.5 -85 17.5
h-164l-27 27v248l27 27h438v-54h-411v-194h137c35.333 0 70.666 -7.33301 105.999 -22c16.667 -7.33301 32.167 -15.833 46.5 -25.5s28.166 -20.5 41.499 -32.5c26 -26.667 45.333 -56 58 -88c14.667 -33.333 22 -69 22 -107s-7.33301 -73.667 -22 -107
c-12.667 -32 -32 -61 -58 -87c-25.333 -25.333 -54.666 -45 -87.999 -59z" />
    <glyph glyph-name="six" unicode="6" horiz-adv-x="571" 
d="M535 305c8.66699 -34.667 9.99902 -67.666 3.99902 -98.999c-5.33301 -34.667 -17 -66.667 -35 -96c-24 -38.667 -56 -69.334 -96 -92.001c-19.333 -10 -39.5 -17.833 -60.5 -23.5s-42.5 -8.5 -64.5 -8.5c-23.333 0 -46.5 3.33301 -69.5 10s-44.833 16.334 -65.5 29.001
c-29.333 17.333 -54.333 40.666 -75 69.999c-19.333 27.333 -33 57.666 -41 90.999c-8 31.333 -9.33301 64.333 -4 99c6 33.333 17.667 65.333 35 96c2 2.66699 3.83301 5.33398 5.5 8.00098s3.5 5.33398 5.5 8.00098l261 425h63l-205 -335
c5.33301 2 10.666 3.83301 15.999 5.5l17 5.5c18.667 4 38 6 58 6c24 0 47.333 -3.33301 70 -10s44.334 -16 65.001 -28c29.333 -18.667 54.333 -42.334 75 -71.001c20.667 -27.333 34.334 -57.333 41.001 -90zM457.999 138.001c14.667 23.333 24.166 48.166 28.499 74.499
s3.16602 53.166 -3.50098 80.499c-6.66699 26.667 -17.834 50.834 -33.501 72.501s-35.167 39.834 -58.5 54.501c-32 20 -67.667 30 -107 30c-7.33301 0 -15 -0.333008 -23 -1s-15.667 -2 -23 -4c-24 -5.33301 -46.167 -14.833 -66.5 -28.5s-38.166 -30.167 -53.499 -49.5
l-16 -27c-11.333 -22 -18.5 -45.167 -21.5 -69.5s-1.83301 -48.5 3.5 -72.5c6.66699 -26.667 17.834 -51 33.501 -73s35.167 -40.333 58.5 -55c32.667 -20 68.334 -30 107.001 -30c36 0 69.5 8.66699 100.5 26s55.833 41.333 74.5 72z" />
    <glyph glyph-name="seven" unicode="7" 
d="M115 27l440 727h-537v53h608v-41l-464 -766h-64z" />
    <glyph glyph-name="eight" unicode="8" horiz-adv-x="532" 
d="M430 46c-21.333 -21.333 -45.833 -37.832 -73.5 -49.499s-57.167 -17.5 -88.5 -17.5s-60.833 5.83301 -88.5 17.5s-52.167 28.167 -73.5 49.5c-22 22 -38.833 47 -50.5 75s-17.5 57.333 -17.5 88s5.83301 60 17.5 88s28.5 53 50.5 75
c17.333 17.333 35.333 30.666 54 39.999c-19.333 10.667 -37.333 24.334 -54 41.001c-22 21.333 -38.833 46 -50.5 74s-17.5 57.333 -17.5 88c0 31.333 5.83301 60.833 17.5 88.5s28.5 52.5 50.5 74.5c21.333 22 45.833 38.833 73.5 50.5s57.167 17.5 88.5 17.5
s60.833 -5.83301 88.5 -17.5s52.167 -28.5 73.5 -50.5c22 -22 38.833 -46.833 50.5 -74.5s17.5 -57.167 17.5 -88.5c0 -30.667 -5.83301 -60 -17.5 -88s-28.5 -52.667 -50.5 -74c-16.667 -16.667 -34.667 -30.334 -54 -41.001c10 -5.33301 19.5 -11.333 28.5 -18
s17.5 -14 25.5 -22c22 -22 38.833 -47 50.5 -75s17.5 -57.333 17.5 -88s-5.83301 -60 -17.5 -88s-28.5 -53 -50.5 -75zM91 615.001c0 -24 4.66699 -46.667 14 -68s22 -40 38 -56s34.667 -28.667 56 -38s44.333 -14 69 -14c24 0 46.667 4.66699 68 14s40 22 56 38
s28.667 34.667 38 56s14 44 14 68c0 24.667 -4.66699 47.667 -14 69s-22 40 -38 56s-34.667 28.667 -56 38s-44 14 -68 14c-24.667 0 -47.667 -4.66699 -69 -14s-40 -22 -56 -38s-28.667 -34.667 -38 -56s-14 -44.333 -14 -69zM91 209.001c0 -24 4.66699 -46.667 14 -68
s22 -40 38 -56s34.667 -28.667 56 -38s44.333 -14 69 -14c24 0 46.667 4.66699 68 14s40 22 56 38s28.667 34.667 38 56s14 44 14 68s-4.66699 46.833 -14 68.5s-22 40.5 -38 56.5s-34.667 28.667 -56 38s-44 14 -68 14c-24.667 0 -47.667 -4.66699 -69 -14s-40 -22 -56 -38
s-28.667 -34.833 -38 -56.5s-14 -44.5 -14 -68.5z" />
    <glyph glyph-name="nine" unicode="9" horiz-adv-x="548" 
d="M528 634c8.66699 -34.667 10.001 -68 4.00098 -100c-4 -27.333 -12.667 -54 -26 -80l-165 -454h-57l128 354c-11.333 -8 -23.666 -14.5 -36.999 -19.5s-26.666 -9.16699 -39.999 -12.5c-18 -4.66699 -37.333 -7 -58 -7c-24 0 -47.5 3.16699 -70.5 9.5
s-44.833 16.166 -65.5 29.499c-30 18 -55 41 -75 69c-10 13.333 -18.333 27.666 -25 42.999s-12 31.333 -16 48c-3.33301 16 -5.5 32.333 -6.5 49s-0.166992 33.334 2.5 50.001c4.66699 33.333 16.667 65.666 36 96.999c23.333 38 55.333 68.333 96 91
c18.667 10.667 38.667 18.5 60 23.5s42.666 7.5 63.999 7.5c48.667 0 93.667 -12.667 135 -38c30.667 -19.333 55.667 -42.666 75 -69.999c9.33301 -13.333 17.666 -27.666 24.999 -42.999s12.666 -31 15.999 -47zM458.001 477c11.333 22 18.666 45.333 21.999 70
s2 49.334 -4 74.001c-6.66699 26.667 -17.834 50.834 -33.501 72.501s-35.167 39.834 -58.5 54.501c-16 10 -33.167 17.5 -51.5 22.5s-36.833 7.5 -55.5 7.5c-36 0 -69.333 -8.5 -100 -25.5s-55.667 -40.833 -75 -71.5c-14 -23.333 -23.167 -48.333 -27.5 -75
s-3.5 -53.334 2.5 -80.001c6.66699 -26.667 17.834 -50.834 33.501 -72.501s35.167 -39.834 58.5 -54.501c32.667 -20 68.667 -30 108 -30c7.33301 0 14.833 0.333008 22.5 1s15.167 2 22.5 4c28 6 52.833 17 74.5 33s39.834 35.667 54.501 59l6 9v2h1z" />
    <glyph glyph-name="colon" unicode=":" horiz-adv-x="205" 
d="M102 98c14 0 25.833 -4.83301 35.5 -14.5s14.5 -21.167 14.5 -34.5s-4.83301 -24.833 -14.5 -34.5s-21.5 -14.5 -35.5 -14.5s-25.667 4.83301 -35 14.5s-14 21.167 -14 34.5s4.66699 24.833 14 34.5s21 14.5 35 14.5zM102 430c14 0 25.833 -5 35.5 -15s14.5 -22 14.5 -36
c0 -13.333 -4.83301 -24.833 -14.5 -34.5s-21.5 -14.5 -35.5 -14.5s-25.667 4.83301 -35 14.5s-14 21.167 -14 34.5c0 14 4.66699 26 14 36s21 15 35 15z" />
    <glyph glyph-name="semicolon" unicode=";" horiz-adv-x="204" 
d="M102 430c14 0 25.833 -5 35.5 -15s14.5 -22 14.5 -36c0 -13.333 -4.83301 -24.833 -14.5 -34.5s-21.5 -14.5 -35.5 -14.5s-25.667 4.83301 -35 14.5s-14 21.167 -14 34.5c0 14 4.66699 26 14 36s21 15 35 15zM102 98c14 0 25.833 -4.83301 35.5 -14.5
s14.5 -21.167 14.5 -34.5c0 -15.333 -6.33301 -28.333 -19 -39l-52 -64l-25 14l18 49c-14 10 -21 23.333 -21 40c0 13.333 4.66699 24.833 14 34.5s21 14.5 35 14.5z" />
    <glyph glyph-name="less" unicode="&#x3c;" horiz-adv-x="458" 
d="M402 697l-330 -330l367 -367h-75l-349 348v38l349 349h77z" />
    <glyph glyph-name="equal" unicode="=" horiz-adv-x="594" 
d="M14 466h566v-54h-566v54zM14 193v53h566v-53h-566z" />
    <glyph glyph-name="greater" unicode="&#x3e;" horiz-adv-x="463" 
d="M54 38l330 330l-367 367h75l349 -348v-38l-349 -349h-77z" />
    <glyph glyph-name="question" unicode="?" horiz-adv-x="562" 
d="M237 159l-53.002 -0.000976562v23c0 23.333 3.5 45.833 10.5 67.5s17.5 42.167 31.5 61.5c28 36.667 63.333 63.334 106 80.001l2 1c18.667 6 36 14.667 52 26s29.667 24.833 41 40.5s20.166 33 26.499 52s9.5 38.833 9.5 59.5c0 25.333 -4.83301 49.166 -14.5 71.499
s-22.834 41.833 -39.501 58.5s-36.167 29.834 -58.5 39.501s-46.166 14.5 -71.499 14.5s-49.166 -4.83301 -71.499 -14.5s-41.666 -22.834 -57.999 -39.501s-29.333 -36.167 -39 -58.5s-14.5 -46.166 -14.5 -71.499v-26h-54v26c0 32 6 62.333 18 91s29.333 54.334 52 77.001
c22 22.667 47.333 40 76 52s59 18 91 18s62.333 -6 91 -18s54.334 -29.333 77.001 -52s40 -48.334 52 -77.001s18 -59 18 -91c0 -53.333 -15.667 -101.333 -47 -144c-7.33301 -10 -15.333 -19.333 -24 -28s-18.334 -16.667 -29.001 -24
c-19.333 -14.667 -41.666 -25.667 -66.999 -33c-34 -13.333 -61.333 -34.333 -82 -63s-31 -60.667 -31 -96v-23zM214.998 97.999c-14 0 -25.667 -4.83301 -35 -14.5s-14 -21.167 -14 -34.5s4.66699 -24.833 14 -34.5s21 -14.5 35 -14.5s25.833 4.83301 35.5 14.5
s14.5 21.167 14.5 34.5s-4.83301 24.833 -14.5 34.5s-21.5 14.5 -35.5 14.5z" />
    <glyph glyph-name="at" unicode="@" horiz-adv-x="882" 
d="M847 405c0 -37.333 -4.66211 -73.333 -13.9951 -108s-23.666 -68 -42.999 -100c-18 -30 -39.667 -57.333 -65 -82s-53.666 -45.667 -84.999 -63c-1.33301 -0.666992 -4.33301 -2.33398 -9 -5.00098s-10.334 -5.33398 -17.001 -8.00098s-14.167 -5 -22.5 -7
s-16.5 -3 -24.5 -3c-12.667 0 -25.334 4.33301 -38.001 13c-10 8.66699 -16.667 17.334 -20 26.001c-1.33301 3.33301 -2.83301 7.66602 -4.5 12.999s-2.5 14.333 -2.5 27v22v222h-134l-56 -94h26v-53h-147v53h59l231 388h-31v54h147v-54h-42v-240v-54v-222v-1
c-0.666992 -7.33301 -0.666992 -15 0 -23s1.66699 -13.333 3 -16c0.666992 -1.33301 2 -3 4 -5s3.66699 -3 5 -3c8 0 16.833 2.16699 26.5 6.5s16.167 7.5 19.5 9.5h1c28 16 53 35 75 57s40.833 46.167 56.5 72.5s27.667 54.5 36 84.5s12.5 61 12.5 93
c0 48 -9.16699 93.333 -27.5 136s-43.333 79.834 -75 111.501s-68.834 56.667 -111.501 75s-88.334 27.5 -137.001 27.5c-48 0 -93.333 -9.16699 -136 -27.5s-79.834 -43.333 -111.501 -75s-56.667 -68.834 -75 -111.501s-27.5 -88 -27.5 -136
c0 -45.333 8 -88.166 24 -128.499s38 -76 66 -107s61.167 -56.5 99.5 -76.5s80.166 -32.333 125.499 -37l26 -2l-5 -54l-27 3c-50 5.33301 -97 19 -141 41s-83 52 -117 90c-34 37.333 -60 79.166 -78 125.499s-27 94.833 -27 145.5c0 54 10.667 106.333 32 157
c20 48.667 49 91.334 87 128.001c36 37.333 78.667 66.666 128 87.999c51.333 20.667 103.666 31 156.999 31c28 0 55 -2.66699 81 -8s51.667 -13 77 -23c49.333 -21.333 92 -50.666 128 -87.999c18.667 -18 35.167 -37.833 49.5 -59.5s26.833 -44.5 37.5 -68.5
c20.667 -49.333 31 -101.666 31 -156.999zM502.005 406v170l-102 -170h102z" />
    <glyph glyph-name="A" unicode="A" horiz-adv-x="637" 
d="M626 54v-54h-172v54h50l-40 132h-293l-39 -132h50v-54h-172v54h66l206 690h-50v54h171v-54h-49l206 -690h66zM448 239l-130 438l-131 -438h261z" />
    <glyph glyph-name="B" unicode="B" horiz-adv-x="612" 
d="M406 24c-38 -16 -77.6709 -24 -119.004 -24h-106h-54h-59v54h59v690h-59v54h59h54h114c16.667 0 32.167 -3.16699 46.5 -9.5s26.833 -15 37.5 -26s19.167 -23.667 25.5 -38s9.5 -29.833 9.5 -46.5c0 -15.333 -2.5 -30 -7.5 -44s-12.833 -26.333 -23.5 -37
c30.667 -10 58.834 -24.5 84.501 -43.5s47.834 -41.167 66.501 -66.5s33.167 -53.333 43.5 -84s15.5 -63 15.5 -97c0 -41.333 -8 -81 -24 -119c-7.33301 -18.667 -16.666 -36 -27.999 -52s-24 -31 -38 -45c-27.333 -27.333 -59.666 -49.333 -96.999 -66zM180.996 613
l115 -0.000976562c18.667 1.33301 34 7.33301 46 18c12.667 12.667 19 28.334 19 47.001c0 18 -6.5 33.5 -19.5 46.5s-28.5 19.5 -46.5 19.5h-114v-131zM180.996 53.999l105.998 -0.000976562c34.667 0 67.334 6.66699 98.001 20s57.334 31.333 80.001 54
s40.667 49.334 54 80.001s20 63.334 20 98.001c0 34 -6.33301 66.167 -19 96.5s-30.167 57 -52.5 80s-48.333 41.167 -78 54.5s-61.5 20.666 -95.5 21.999h-113v-505z" />
    <glyph glyph-name="C" unicode="C" horiz-adv-x="507" 
d="M472 0h-28c-26.667 0 -53 2.5 -79 7.5s-51 12.833 -75 23.5c-24 10 -46.5 22.167 -67.5 36.5s-41.167 30.833 -60.5 49.5c-36 36.667 -64 78.667 -84 126c-21.333 48.667 -32 100.334 -32 155.001c0 56.667 10.667 108.667 32 156c20 47.333 48 89.666 84 126.999
c38 36.667 80.667 65 128 85c48.667 21.333 100 32 154 32h28v-54h-28c-47.333 0 -92 -9 -134 -27s-78.5 -42.667 -109.5 -74s-55.5 -68 -73.5 -110s-27 -87 -27 -135c0 -47.333 9 -92 27 -134s42.5 -78.5 73.5 -109.5s67.5 -55.5 109.5 -73.5s86.667 -27 134 -27h28v-54z
" />
    <glyph glyph-name="D" unicode="D" horiz-adv-x="673" 
d="M613 554c20.667 -48 31 -100 31 -156c0 -54 -10.333 -105.667 -31 -155c-20 -46.667 -48.667 -88.667 -86 -126c-38 -38 -80.333 -66.667 -127 -86c-48 -20.667 -99.667 -31 -155 -31h-67h-53h-3h-56v54h56h3v690h-3h-56v54h56h3h53h67c53.333 0 105 -10.667 155 -32
c48 -20 90.333 -48.333 127 -85c38 -38 66.667 -80.333 86 -127zM245 54c47.333 0 92 9 134 27s78.667 42.5 110 73.5s56 67.5 74 109.5s27 86.667 27 134c0 48 -9 93 -27 135s-42.667 78.667 -74 110s-68 56 -110 74s-86.667 27 -134 27h-67v-690h67z" />
    <glyph glyph-name="E" unicode="E" horiz-adv-x="523" 
d="M184 744v-318h264v-54h-264v-318h302v-54h-302h-54h-58v54h58v318v54v318h-58v54h58h54h302v-54h-302z" />
    <glyph glyph-name="F" unicode="F" horiz-adv-x="548" 
d="M535 744h-355v-318h258v-54h-258v-318h59v-54h-59h-54h-59v54h59v318v54v318h-59v54h59h54h355v-54v0z" />
    <glyph glyph-name="G" unicode="G" horiz-adv-x="889" 
d="M875 372l-59.998 -0.00292969c-3.33301 -45.333 -13.333 -88.333 -30 -129c-20 -46.667 -48.667 -88.667 -86 -126c-38 -38 -80.333 -66.667 -127 -86c-48 -20.667 -99.667 -31 -155 -31s-107 10.333 -155 31c-46.667 19.333 -89 48 -127 86
c-36.667 36.667 -65 78.667 -85 126c-21.333 50.667 -32 102.334 -32 155.001c0 54 10.667 106 32 156c20 48 48.333 90.333 85 127s79 65 127 85c50 21.333 101.667 32 155 32h27v-54h-27c-48 0 -92.833 -9 -134.5 -27s-78.167 -42.667 -109.5 -74s-56 -68 -74 -110
s-27 -87 -27 -135c0 -47.333 9 -92 27 -134s42.667 -78.5 74 -109.5s67.833 -55.5 109.5 -73.5s86.5 -27 134.5 -27c45.333 0 88.166 8.16699 128.499 24.5s76 38.833 107 67.5s56.167 62.334 75.5 101.001s30.666 80.334 33.999 125.001h-368v54h368h54h59v-54z" />
    <glyph glyph-name="H" unicode="H" 
d="M113 0h-59v54h59v318v54v318h-59v54h59h53h59v-54h-59v-318h322v318h-58v54h58h54h59v-54h-59v-318v-54v-318h59v-54h-171v54h58v318h-322v-318h59v-54h-59h-53z" />
    <glyph glyph-name="I" unicode="I" horiz-adv-x="244" 
d="M151 0h-53h-60v54h60v690h-60v54h172v-54h-59v-690h59v-54h-59v0z" />
    <glyph glyph-name="J" unicode="J" horiz-adv-x="792" 
d="M114 186c-12.667 30 -20.3311 60.6641 -22.998 91.9971h-60v54h59h53h59v-54h-57c3.33301 -32 12.166 -61.667 26.499 -89s32.666 -51 54.999 -71s48 -35.833 77 -47.5s59.833 -17.5 92.5 -17.5c34.667 0 67.167 6.66699 97.5 20s57 31.333 80 54
s41.167 49.334 54.5 80.001s20 63.334 20 98.001v439h-59v54h172v-54h-59v-439c0 -42.667 -8 -82.334 -24 -119.001c-16.667 -37.333 -38.667 -69.666 -66 -96.999c-14 -14 -29.167 -26.667 -45.5 -38s-33.833 -20.666 -52.5 -27.999c-37.333 -16 -76.666 -24 -117.999 -24
c-42.667 0 -82.334 8 -119.001 24c-36 14.667 -68.667 36.667 -98 66c-14 14 -26.333 29.167 -37 45.5s-20 33.5 -28 51.5z" />
    <glyph glyph-name="K" unicode="K" horiz-adv-x="580" 
d="M153 0h-54h-59v54h59v690h-59v54h59h54h58v-54h-58v-450l273 450h-37v54h171v-54h-71l-211 -346l212 -344h70v-54h-171v54h37l-179 293l-94 -155v-138h58v-54h-58v0z" />
    <glyph glyph-name="L" unicode="L" horiz-adv-x="527" 
d="M107 0h-59v54h59v690h-59v54h59h54h58v-54h-58v-690h348v-54h-348h-54z" />
    <glyph glyph-name="M" unicode="M" horiz-adv-x="1087" 
d="M188 54v-54h-171v54h66l206 690h-40v54h153v-54h-41l182 -611l183 611h-40v54h152v-54h-40l205 -690h65v-54h-171v54h50l-185 623l-187 -623h51v-54h-171v54h56l-186 623l-186 -623h49v0z" />
    <glyph glyph-name="N" unicode="N" horiz-adv-x="661" 
d="M138 0h-53h-59v54h59v689h-59v54h171v-54h-39l362 -617v617h-59v54h59h54h59v-54h-59v-689h59v-54h-172v54h39l-362 617v-617h59v-54h-59v0z" />
    <glyph glyph-name="O" unicode="O" horiz-adv-x="853" 
d="M426 0c-54.667 0 -106.667 10.3311 -156 30.998c-48 20.667 -90 49.334 -126 86.001c-36.667 36 -65.334 78 -86.001 126c-20.667 50.667 -31 102.334 -31 155.001c0 53.333 10.333 105.333 31 156c20 47.333 48.667 89.666 86 126.999c36.667 36.667 78.667 65 126 85
c25.333 10 50.833 17.833 76.5 23.5s52.167 8.5 79.5 8.5s53.833 -2.83301 79.5 -8.5s50.834 -13.5 75.501 -23.5c24 -10 46.5 -22.167 67.5 -36.5s40.833 -30.5 59.5 -48.5c18.667 -18.667 35 -38.667 49 -60s26.333 -43.666 37 -66.999
c20.667 -50.667 31 -102.667 31 -156c0 -52.667 -10.333 -104.334 -31 -155.001c-10.667 -23.333 -23 -45.666 -37 -66.999s-30.333 -41 -49 -59c-38 -38 -80.333 -66.667 -127 -86c-48 -20.667 -99.667 -31 -155 -31zM426 743.998c-48 0 -92.833 -9 -134.5 -27
s-78.167 -42.667 -109.5 -74s-56 -68 -74 -110s-27 -87 -27 -135c0 -47.333 9 -92 27 -134s42.667 -78.5 74 -109.5s67.833 -55.5 109.5 -73.5s86.5 -27 134.5 -27c47.333 0 92 9 134 27s78.667 42.5 110 73.5s56 67.5 74 109.5s27 86.667 27 134c0 48 -9 93 -27 135
s-42.667 78.667 -74 110s-68 56 -110 74s-86.667 27 -134 27z" />
    <glyph glyph-name="P" unicode="P" horiz-adv-x="678" 
d="M94 0l-60 -0.000976562v54h60v132v54v504h-60v54h60h53h200c42 0 81.667 -8 119 -24c36.667 -16 69 -38 97 -66c29.333 -29.333 51.333 -61.666 66 -96.999c16 -37.333 24 -77 24 -119c0 -42.667 -8 -82.334 -24 -119.001c-14.667 -35.333 -36.667 -67.666 -66 -96.999
c-28 -28 -60.333 -50 -97 -66c-37.333 -16 -77 -24 -119 -24h-200v-132h59v-54h-59h-53zM147 239.999l200 -0.00390625c34.667 0 67.334 6.66699 98.001 20s57.334 31.333 80.001 54s40.667 49.334 54 80.001s20 63.334 20 98.001s-6.66699 67.334 -20 98.001
s-31.333 57.334 -54 80.001s-49.334 40.667 -80.001 54s-63.334 20 -98.001 20h-200v-504z" />
    <glyph glyph-name="Q" unicode="Q" horiz-adv-x="907" 
d="M438 0c-55.333 0 -106.999 10.332 -154.999 30.999c-46.667 19.333 -89 48 -127 86c-36 36 -64.667 78 -86 126c-20.667 51.333 -31 103 -31 155c0 53.333 10.333 105.333 31 156c21.333 48.667 50 91 86 127c36.667 36.667 79 65 127 85c50 21.333 101.667 32 155 32
s105.333 -10.667 156 -32c47.333 -20 89.333 -48.333 126 -85c38 -38 66.667 -80.333 86 -127c20.667 -50.667 31 -102.667 31 -156c0 -52 -10.333 -103.667 -31 -155c-18.667 -42 -42.667 -79.333 -72 -112c28 -26 59.667 -45.833 95 -59.5s72.333 -20.5 111 -20.5h27v-53
h-27c-25.333 0 -49.833 2.33301 -73.5 7s-46.834 12 -69.501 22c-19.333 8 -37.333 17.667 -54 29s-32.667 24 -48 38c-15.333 -13.333 -31.5 -25.166 -48.5 -35.499s-34.5 -19.5 -52.5 -27.5c-49.333 -20.667 -101.333 -31 -156 -31zM93.001 397.999
c0 -47.333 9.00098 -92.001 27.001 -134.001s42.667 -78.5 74 -109.5s68 -55.5 110 -73.5s86.667 -27 134 -27c42 0 81.5 6.83301 118.5 20.5s70.5 32.834 100.5 57.501l-204 204l37 38l206 -205c27.333 30.667 48.666 65.5 63.999 104.5s23 80.5 23 124.5
c0 48 -9 93 -27 135s-42.667 78.667 -74 110s-67.833 56 -109.5 74s-86.5 27 -134.5 27c-47.333 0 -92 -9 -134 -27s-78.667 -42.667 -110 -74s-56 -68 -74 -110s-27 -87 -27 -135z" />
    <glyph glyph-name="R" unicode="R" horiz-adv-x="720" 
d="M863 -34l28.002 -45.999l-23 -14c-17.333 -11.333 -35.5 -20.333 -54.5 -27s-38.5 -11.667 -58.5 -15c-14 -2 -29 -3 -45 -3c-24 0 -47.333 3 -70 9c-38 8 -73.333 23.667 -106 47c-16 12 -30.833 25.333 -44.5 40s-25.834 30.667 -36.501 48l-111 181h-156v-132h59v-54
h-171v54h58v690h-58v54h312c41.333 0 81 -8 119 -24c36.667 -16 69 -38 97 -66c27.333 -27.333 49.333 -59.666 66 -96.999c16 -37.333 24 -77 24 -119s-8 -81.333 -24 -118c-16 -37.333 -38 -70 -66 -98s-60.333 -50 -97 -66c-16 -6.66699 -32.5 -11.834 -49.5 -15.501
s-34.167 -6.16699 -51.5 -7.5l94 -154c18 -29.333 40.5 -53.333 67.5 -72s56 -31.834 87 -39.501s62.667 -9.16699 95 -4.5s63.166 16 92.499 34zM186.002 240.001l200 -0.00195312c34.667 0 67.334 6.66699 98.001 20s57.334 31.5 80.001 54.5s40.667 49.667 54 80
s20 62.833 20 97.5s-6.66699 67.334 -20 98.001s-31.333 57.334 -54 80.001s-49.334 40.667 -80.001 54s-63.334 20 -98.001 20h-200v-504z" />
    <glyph glyph-name="S" unicode="S" horiz-adv-x="525" 
d="M110 46c-21.333 18 -38.8311 39.166 -52.498 63.499s-22.5 50.5 -26.5 78.5c-2 10.667 -3 22.667 -3 36v27h54v-27v-14.5c0 -4.33301 0.666992 -8.83301 2 -13.5c3.33301 -22 10.333 -42.5 21 -61.5s24 -35.333 40 -49s34 -24.334 54 -32.001s41.333 -11.5 64 -11.5
c24.667 0 48 4.83301 70 14.5s41.333 22.667 58 39s29.667 35.5 39 57.5s14 45.667 14 71c0 30.667 -5.83301 56.334 -17.5 77.001s-26 37.334 -43 50.001s-35.167 22.334 -54.5 29.001s-36.666 11.334 -51.999 14.001c-26 4 -50.5 12.167 -73.5 24.5
s-43.167 27.833 -60.5 46.5c-18.667 19.333 -32.834 41.166 -42.501 65.499s-14.5 49.166 -14.5 74.499c0 26.667 5 52.167 15 76.5s24.667 46.166 44 65.499c39.333 39.333 86.333 59 141 59c27.333 0 53.166 -5 77.499 -15s46.166 -24.667 65.499 -44
c18.667 -19.333 33 -41.166 43 -65.499s15 -49.833 15 -76.5v-27h-53v27c0 20 -3.83301 39 -11.5 57s-18.167 33.667 -31.5 47s-29 23.833 -47 31.5s-37.333 11.5 -58 11.5c-20 0 -38.833 -3.83301 -56.5 -11.5s-33.167 -18.167 -46.5 -31.5s-23.833 -29 -31.5 -47
s-11.5 -37 -11.5 -57c0 -19.333 3.66699 -37.666 11 -54.999s17.5 -33 30.5 -47s28.333 -25.833 46 -35.5s37.167 -16.5 58.5 -20.5c30.667 -4.66699 59 -13.334 85 -26.001c26.667 -12 49 -27.667 67 -47c20.667 -19.333 35.334 -41.333 44.001 -66
c10.667 -25.333 16 -53.333 16 -84c0 -31.333 -5.83301 -61.333 -17.5 -90s-28.834 -54 -51.501 -76c-22 -22 -47.167 -39 -75.5 -51s-58.5 -18 -90.5 -18c-28.667 0 -56 5 -82 15s-49.667 24 -71 42z" />
    <glyph glyph-name="T" unicode="T" horiz-adv-x="576" 
d="M261 745h-250v53h250h53h249v-53h-249v-691h59v-54h-59h-53h-59v54h59v691z" />
    <glyph glyph-name="U" unicode="U" horiz-adv-x="731" 
d="M58 744l-58.999 -0.000976562v54h59h53h59v-54h-59v-438c0 -34.667 6.66699 -67.334 20 -98.001s31.5 -57.334 54.5 -80.001s49.833 -40.667 80.5 -54s63.667 -20 99 -20c34.667 0 67.334 6.66699 98.001 20s57.5 31.333 80.5 54s41.167 49.334 54.5 80.001
s20 63.334 20 98.001v438h-60v54h60h53h59v-54h-59v-438c0 -41.333 -8 -81 -24 -119c-14.667 -36 -36.334 -68.333 -65.001 -97c-14 -14 -29.167 -26.667 -45.5 -38s-33.833 -20.666 -52.5 -27.999c-38 -16 -77.667 -24 -119 -24c-42.667 0 -82.334 8 -119.001 24
c-36 14.667 -68.667 36.667 -98 66c-28 28 -50 60.333 -66 97c-16 38 -24 77.667 -24 119v438z" />
    <glyph glyph-name="V" unicode="V" 
d="M290 54l-207 690h-65v54h171v-54h-50l187 -623l185 623h-49v54h171v-54h-66l-206 -690h50v-54h-172v54h51v0z" />
    <glyph glyph-name="W" unicode="W" horiz-adv-x="1066" 
d="M987 744l-205 -691h40v-54h-152v54h40l-183 611l-182 -611h41v-54h-152v54h40l-207 691h-66v54h171v-54h-49l186 -624l186 624h-56v54h172v-54h-51l186 -624l185 624h-50v54h172v-54h-66z" />
    <glyph glyph-name="X" unicode="X" horiz-adv-x="644" 
d="M185 54v-53h-171v53h70l204 346l-205 345h-69v53h171v-53h-39l173 -293l173 293h-35v53h172v-53h-75l-204 -345l205 -346h74v-54l-172 1v53h36l-174 293l-173 -293h39v0z" />
    <glyph glyph-name="Y" unicode="Y" horiz-adv-x="638" 
d="M184 798v-54h-38l172 -293l174 293h-39v54h172v-54h-71l-208 -353v-337h58v-54h-58h-54h-59v54h59v337l-209 353h-70v54h171v0z" />
    <glyph glyph-name="Z" unicode="Z" horiz-adv-x="656" 
d="M629 744h-71l-408 -690h479v-54h-611v54h70l408 690h-478v54h611v-54v0z" />
    <glyph glyph-name="bracketleft" unicode="[" horiz-adv-x="284" 
d="M40 866h207v-54h-153v-828h155v-54h-209v936z" />
    <glyph glyph-name="backslash" unicode="\" horiz-adv-x="438" 
d="M77 806l345 -827h-59l-345 827h59z" />
    <glyph glyph-name="bracketright" unicode="]" horiz-adv-x="295" 
d="M249 -70h-209v54h155v828h-153v54h207v-936z" />
    <glyph glyph-name="underscore" unicode="_" horiz-adv-x="606" 
d="M594 54v-53h-577v53h577v0z" />
    <glyph glyph-name="grave" unicode="`" horiz-adv-x="213" 
d="M126 743l-88 258l47 15l86 -258z" />
    <glyph glyph-name="a" unicode="a" horiz-adv-x="644" 
d="M182 0h-172v54h71l412 690h-39v54h172v-54h-60v-505v-53v-132h60v-54h-172v54h59v132h-291l-79 -132h39v-54zM513 239v435l-259 -435h259z" />
    <glyph glyph-name="b" unicode="b" horiz-adv-x="585" 
d="M450 398c8 -4.66699 15.833 -9.83105 23.5 -15.498s15.167 -12.167 22.5 -19.5c20.667 -20 36.167 -42.833 46.5 -68.5s15.5 -52.834 15.5 -81.501s-5.16699 -56 -15.5 -82s-25.833 -49 -46.5 -69c-20 -20 -43 -35.333 -69 -46s-53 -16 -81 -16h-173h-54h-58v54h58v318
v54v318h-58v54h58h54h173c28 0 55 -5.5 81 -16.5s49 -26.5 69 -46.5c20.667 -20 36.167 -42.833 46.5 -68.5s15.5 -52.834 15.5 -81.501s-5.16699 -56 -15.5 -82s-25.833 -49 -46.5 -69c-7.33301 -7.33301 -14.833 -13.833 -22.5 -19.5s-15.5 -11.167 -23.5 -16.5z
M173 426.003l173 0.00390625c22 0 42.667 4.16699 62 12.5s36.166 19.666 50.499 33.999s25.666 31.166 33.999 50.499s12.5 40 12.5 62s-4.16699 42.667 -12.5 62s-19.666 36.166 -33.999 50.499s-31.166 25.666 -50.499 33.999s-40 12.5 -62 12.5h-173v-318zM346 54.0068
c22 0 42.667 4.1709 62 12.5039s36.166 19.666 50.499 33.999s25.666 31.166 33.999 50.499s12.5 40 12.5 62s-4.16699 42.667 -12.5 62s-19.666 36.166 -33.999 50.499s-31.166 25.666 -50.499 33.999s-40 12.5 -62 12.5h-173v-318h173z" />
    <glyph glyph-name="c" unicode="c" horiz-adv-x="497" 
d="M472 0h-28c-26.667 0 -53 2.5 -79 7.5s-51 12.833 -75 23.5c-24 10 -46.5 22.167 -67.5 36.5s-41.167 30.833 -60.5 49.5c-36 36.667 -64 78.667 -84 126c-21.333 48.667 -32 100.334 -32 155.001c0 56.667 10.667 108.667 32 156c20 47.333 48 89.666 84 126.999
c38 36.667 80.667 65 128 85c48.667 21.333 100 32 154 32h28v-54h-28c-47.333 0 -92 -9 -134 -27s-78.5 -42.667 -109.5 -74s-55.5 -68 -73.5 -110s-27 -87 -27 -135c0 -47.333 9 -92 27 -134s42.5 -78.5 73.5 -109.5s67.5 -55.5 109.5 -73.5s86.667 -27 134 -27h28v-54z
" />
    <glyph glyph-name="d" unicode="d" horiz-adv-x="667" 
d="M613 554c20.667 -48 31 -100 31 -156c0 -54 -10.333 -105.667 -31 -155c-20 -46.667 -48.667 -88.667 -86 -126c-38 -38 -80.333 -66.667 -127 -86c-48 -20.667 -99.667 -31 -155 -31h-67h-53h-3h-56v54h56h3v690h-3h-56v54h56h3h53h67c53.333 0 105 -10.667 155 -32
c48 -20 90.333 -48.333 127 -85c38 -38 66.667 -80.333 86 -127zM245 54c47.333 0 92 9 134 27s78.667 42.5 110 73.5s56 67.5 74 109.5s27 86.667 27 134c0 48 -9 93 -27 135s-42.667 78.667 -74 110s-68 56 -110 74s-86.667 27 -134 27h-67v-690h67z" />
    <glyph glyph-name="e" unicode="e" horiz-adv-x="522" 
d="M185 744v-505h264v-53h-264v-132h301v-54h-301h-54v0h-59v54h59v0v132v53v505v0h-59v54h59v0h54h301v-54h-301z" />
    <glyph glyph-name="f" unicode="f" horiz-adv-x="562" 
d="M183 744v-505h259v-53h-259v-132h59v-54h-59h-53h-60v54h60v132v53v505v0h-60v54h60v0h53h355v-54h-355z" />
    <glyph glyph-name="g" unicode="g" horiz-adv-x="887" 
d="M875 372l-59.998 -0.00292969c-3.33301 -45.333 -13.333 -88.333 -30 -129c-20 -46.667 -48.667 -88.667 -86 -126c-38 -38 -80.333 -66.667 -127 -86c-48 -20.667 -99.667 -31 -155 -31s-107 10.333 -155 31c-46.667 19.333 -89 48 -127 86
c-36.667 36.667 -65 78.667 -85 126c-21.333 50.667 -32 102.334 -32 155.001c0 54 10.667 106 32 156c20 48 48.333 90.333 85 127s79 65 127 85c50 21.333 101.667 32 155 32h27v-54h-27c-48 0 -92.833 -9 -134.5 -27s-78.167 -42.667 -109.5 -74s-56 -68 -74 -110
s-27 -87 -27 -135c0 -47.333 9 -92 27 -134s42.667 -78.5 74 -109.5s67.833 -55.5 109.5 -73.5s86.5 -27 134.5 -27c45.333 0 88.166 8.16699 128.499 24.5s76 38.833 107 67.5s56.167 62.334 75.5 101.001s30.666 80.334 33.999 125.001h-368v54h368h54h59v-54z" />
    <glyph glyph-name="h" unicode="h" horiz-adv-x="624" 
d="M529 0h-54h-59v54h59v132h-322v-132h59v-54h-59h-54h-59v54h59v690h-59v54h59h54h59v-54h-59v-504h322v504h-59v54h59h54h59v-54h-59v-690h59v-54h-59z" />
    <glyph glyph-name="i" unicode="i" horiz-adv-x="219" 
d="M83 0h-59v54h59v690h-59v54h172v-54h-59v-690h59v-54h-59h-54z" />
    <glyph glyph-name="j" unicode="j" horiz-adv-x="614" 
d="M204 186l-56.9951 0.00195312c3.33301 -18.667 9.66602 -36 18.999 -52s21 -30 35 -42s29.833 -21.333 47.5 -28s36.167 -10 55.5 -10c22 0 42.667 4.16699 62 12.5s36.166 19.666 50.499 33.999s25.666 31.166 33.999 50.499s12.5 40 12.5 62v531h-58v54h171v-54h-59
v-531c0 -28.667 -5.33301 -56 -16 -82s-26.334 -49 -47.001 -69c-20 -20 -42.833 -35.333 -68.5 -46s-52.834 -16 -81.501 -16c-58.667 0 -108.667 20.667 -150 62c-34.667 34.667 -55 76 -61 124h-60v54h171v-54z" />
    <glyph glyph-name="k" unicode="k" horiz-adv-x="576" 
d="M378 580l108 -526h64v-54h-172v54h53l-93 459l-196 -321v-138h59v-54h-59h-53h-59v54h59v690h-59v54h59h53h59v-54h-59v-450l274 450h-38v54h172v-54h-72z" />
    <glyph glyph-name="l" unicode="l" horiz-adv-x="534" 
d="M107 0h-59v54h59v690h-59v54h59h54h58v-54h-58v-690h348v-54h-348h-54z" />
    <glyph glyph-name="m" unicode="m" horiz-adv-x="1098" 
d="M188 0h-172v54h70l412 690h-38v54h171v-54h-58v-620l369 620h-38v54h171v-54h-59v-690h59v-54h-59h-54h-58v54h58v620l-369 -620h38v-54h-171v54h59v620l-370 -620h39v-54z" />
    <glyph glyph-name="n" unicode="n" horiz-adv-x="664" 
d="M85 1h-59v53h59v690h-59v54h171v-54h-39l362 -618v618h-59v54h59h54h59v-54h-59v-690h59v-53h-172v53h39l-362 618v-618h59v-53h-59h-53z" />
    <glyph glyph-name="o" unicode="o" horiz-adv-x="838" 
d="M420 0c-55.333 0 -107.002 10.3311 -155.002 30.998c-23.333 10 -45.833 22.167 -67.5 36.5s-41.5 30.833 -59.5 49.5c-36.667 36.667 -65 78.667 -85 126c-10.667 24.667 -18.5 50 -23.5 76s-7.5 52.333 -7.5 79c0 27.333 2.5 54 7.5 80s12.833 51.333 23.5 76
c20 46.667 48.333 89 85 127c36 36 78.333 64.333 127 85c24.667 10 49.834 17.833 75.501 23.5s52.167 8.5 79.5 8.5s53.833 -2.83301 79.5 -8.5s50.834 -13.5 75.501 -23.5c48 -20 90.333 -48.333 127 -85c18.667 -18.667 35 -38.667 49 -60s26.333 -43.666 37 -66.999
c10.667 -24.667 18.5 -50 23.5 -76s7.5 -52.667 7.5 -80c0 -26.667 -2.5 -53 -7.5 -79s-12.833 -51.333 -23.5 -76c-10.667 -23.333 -23 -45.666 -37 -66.999s-30.333 -41 -49 -59c-36 -37.333 -78.333 -66 -127 -86c-48 -20.667 -99.667 -31 -155 -31zM419.998 743.998
c-47.333 0 -92 -9 -134 -27s-78.667 -42.667 -110 -74s-56 -68 -74 -110s-27 -87 -27 -135c0 -47.333 9 -92 27 -134s42.667 -78.5 74 -109.5s68 -55.5 110 -73.5s86.667 -27 134 -27s92 9 134 27s78.667 42.5 110 73.5s56.166 67.5 74.499 109.5s27.5 86.667 27.5 134
c0 48 -9.16699 93 -27.5 135s-43.166 78.667 -74.499 110s-68 56 -110 74s-86.667 27 -134 27z" />
    <glyph glyph-name="p" unicode="p" horiz-adv-x="519" 
d="M135 373v-318.999h59v-54h-59h-53h-60v54h60v319v53v318h-60v54h60h53h147c28 0 55 -5.5 81 -16.5s49 -26.5 69 -46.5s35.333 -42.833 46 -68.5s16 -52.834 16 -81.501c0 -28 -5.33301 -55 -16 -81s-26 -49 -46 -69s-43 -35.333 -69 -46s-53 -16 -81 -16h-147z
M135 426.001l147 0.00195312c22 0 42.667 4.16699 62 12.5s36.166 19.833 50.499 34.5s25.666 31.5 33.999 50.5s12.5 39.5 12.5 61.5s-4.16699 42.667 -12.5 62s-19.666 36.166 -33.999 50.499s-31.166 25.666 -50.499 33.999s-40 12.5 -62 12.5h-147v-318z" />
    <glyph glyph-name="q" unicode="q" horiz-adv-x="833" 
d="M136 117c-37.333 37.333 -66.001 79.332 -86.001 125.999c-20.667 51.333 -31 103 -31 155c0 53.333 10.333 105.333 31 156c19.333 46.667 48 89 86 127c36.667 36.667 78.667 65 126 85c50.667 21.333 102.667 32 156 32s105 -10.667 155 -32
c48 -20 90.333 -48.333 127 -85c38 -38 66.667 -80.333 86 -127c20.667 -50.667 31 -102.667 31 -156c0 -52 -10.333 -103.667 -31 -155c-20 -46.667 -48.667 -88.667 -86 -126c-38 -38 -80.333 -66.667 -127 -86c-48 -20.667 -99.667 -31 -155 -31
c-7.33301 0 -14.5 0.166992 -21.5 0.5s-14.167 0.833008 -21.5 1.5c19.333 -9.33301 39.833 -16.166 61.5 -20.499s43.5 -6.5 65.5 -6.5c38 0 74.333 6.5 109 19.5s66 32.167 94 57.5c20.667 17.333 38.334 38 53.001 62l15 22l45 -30l-15 -22
c-16.667 -25.333 -37.667 -49.666 -63 -72.999c-33.333 -28.667 -70.333 -50.667 -111 -66s-83 -23 -127 -23c-51.333 0 -99.333 9.66699 -144 29c-22 9.33301 -42.667 20.833 -62 34.5s-37.333 29.167 -54 46.5l-16 18c-34 17.333 -64 39.666 -90 66.999zM417.999 743.999
c-48 0 -92.833 -9 -134.5 -27s-78.167 -42.667 -109.5 -74s-56 -68 -74 -110s-27 -87 -27 -135c0 -47.333 9 -92 27 -134s42.667 -78.5 74 -109.5s67.833 -55.5 109.5 -73.5s86.5 -27 134.5 -27c47.333 0 92 9 134 27s78.667 42.5 110 73.5s56 67.5 74 109.5
s27 86.667 27 134c0 48 -9 93 -27 135s-42.667 78.667 -74 110s-68 56 -110 74s-86.667 27 -134 27z" />
    <glyph glyph-name="r" unicode="r" horiz-adv-x="715" 
d="M239 0h-171.999v54h59v690h-59v54h313c42 0 81.667 -8 119 -24c36.667 -16 69 -38 97 -66c14.667 -14 27.334 -29.167 38.001 -45.5s20 -33.5 28 -51.5c16 -37.333 24 -77 24 -119c0 -41.333 -8 -81 -24 -119c-8 -18 -17.333 -35.167 -28 -51.5
s-23.334 -31.5 -38.001 -45.5c-28 -28 -60.333 -50 -97 -66c-32.667 -13.333 -66.334 -21 -101.001 -23l80 -133h70v-54h-99l-2 -1v1h-70v54h38l-79 132h-156v-132h59v-54zM180.001 744v-504.004h185l1 1v-1h14c34.667 0 67.334 6.66699 98.001 20s57.334 31.333 80.001 54
s40.667 49.334 54 80.001s20 63.334 20 98.001s-6.66699 67.334 -20 98.001s-31.333 57.334 -54 80.001s-49.334 40.667 -80.001 54s-63.334 20 -98.001 20h-200z" />
    <glyph glyph-name="s" unicode="s" horiz-adv-x="530" 
d="M113 46c-21.333 18 -38.832 39.165 -52.499 63.498s-22.5 50.5 -26.5 78.5c-2 10.667 -3 22.667 -3 36v27h54v-27c0 -5.33301 0.166992 -10.166 0.5 -14.499s0.833008 -8.83301 1.5 -13.5c3.33301 -22 10.333 -42.5 21 -61.5s24 -35.333 40 -49s34 -24.334 54 -32.001
s41.333 -11.5 64 -11.5c24.667 0 48 4.83301 70 14.5s41.333 22.667 58 39s29.667 35.5 39 57.5s14 45.667 14 71c0 30.667 -5.83301 56.334 -17.5 77.001s-26 37.334 -43 50.001s-35.167 22.334 -54.5 29.001s-36.666 11.334 -51.999 14.001c-26 4 -50.5 12.167 -73.5 24.5
s-43.167 27.833 -60.5 46.5c-18 19.333 -31.833 41.166 -41.5 65.499s-14.5 49.166 -14.5 74.499c0 26.667 4.83301 52.167 14.5 76.5s24.167 46.166 43.5 65.499c39.333 39.333 86.666 59 141.999 59c26.667 0 52.167 -5 76.5 -15s46.166 -24.667 65.499 -44
s33.833 -41.166 43.5 -65.499s14.5 -49.833 14.5 -76.5v-27h-53v27c0 20 -3.83301 39 -11.5 57s-18.167 33.667 -31.5 47s-29 23.833 -47 31.5s-37 11.5 -57 11.5s-39 -3.83301 -57 -11.5s-33.667 -18.167 -47 -31.5s-23.833 -29 -31.5 -47s-11.5 -37 -11.5 -57
c0 -19.333 3.66699 -37.666 11 -54.999s17.5 -33 30.5 -47s28.333 -25.833 46 -35.5s37.167 -16.5 58.5 -20.5c30.667 -4.66699 59 -13.334 85 -26.001c26 -12 48.667 -27.667 68 -47s34 -41.333 44 -66c10 -26 15 -54 15 -84c0 -31.333 -5.83301 -61.333 -17.5 -90
s-28.834 -54 -51.501 -76c-22 -22 -47.167 -39 -75.5 -51s-58.5 -18 -90.5 -18c-28 0 -55.167 5 -81.5 15s-50.166 24 -71.499 42z" />
    <glyph glyph-name="t" unicode="t" horiz-adv-x="577" 
d="M262 744h-250v54h250h53h249v-54h-249v-691h59v-54h-59h-53h-60v54h60v691z" />
    <glyph glyph-name="u" unicode="u" horiz-adv-x="761" 
d="M72 744l-58.001 -0.000976562v54h58h54h59v-54h-59v-438c0 -34.667 6.66699 -67.334 20 -98.001s31.333 -57.334 54 -80.001s49.334 -40.667 80.001 -54s63.667 -20 99 -20c34.667 0 67.334 6.66699 98.001 20s57.5 31.333 80.5 54s41.167 49.334 54.5 80.001
s20 63.334 20 98.001v438h-59v54h59h54h59v-54h-59v-438c0 -41.333 -8 -81 -24 -119c-16 -36.667 -38 -69 -66 -97c-14 -14 -29.167 -26.667 -45.5 -38s-33.833 -20.666 -52.5 -27.999c-37.333 -16 -77 -24 -119 -24c-41.333 0 -81 8 -119 24
c-36 14.667 -68.667 36.667 -98 66c-28.667 28.667 -50.334 61 -65.001 97c-16.667 39.333 -25 79 -25 119v438z" />
    <glyph glyph-name="v" unicode="v" horiz-adv-x="653" 
d="M83 744h-65v54h171v-54h-50l187 -623l185 623h-49v54h171v-54h-66l-206 -690h50v-54h-172v54h51z" />
    <glyph glyph-name="w" unicode="w" horiz-adv-x="1068" 
d="M874 54h39l-371 620v-620h60v-54h-172v54h39l-412 690h-71v54h172v-54h-39l370 -620v620h-59v54h172v-54h-39l370 -620v620h-59v54h59h53h60v-54h-60v-690h60v-54h-172v54z" />
    <glyph glyph-name="x" unicode="x" horiz-adv-x="678" 
d="M203 1h-171v53h70l204 346l-204 345h-70v53h171v-53h-39l174 -293l172 293h-35v53h172v-53h-74l-204 -345l205 -346h73v-53h-172v53h36l-173 293l-173 -293h38v-53z" />
    <glyph glyph-name="y" unicode="y" 
d="M328 286l178 458h-44v54h172v-54h-70l-209 -536v-154h59v-54h-59h-53h-60v54h60v154l-208 536h-72v54h172v-54h-42z" />
    <glyph glyph-name="z" unicode="z" horiz-adv-x="486" 
d="M469 0h-451v54h67l259 690h-326v54h451v-54h-67l-260 -690h327v-54z" />
    <glyph glyph-name="bar" unicode="|" horiz-adv-x="138" 
d="M43 -103v1029h54v-1029h-54v0z" />
    <glyph glyph-name="asciitilde" unicode="~" horiz-adv-x="622" 
d="M548 465h54.001v-27c0 -19.333 -3.66699 -37.5 -11 -54.5s-17.5 -31.833 -30.5 -44.5s-28 -22.667 -45 -30s-34.833 -11 -53.5 -11c-26 0 -51.667 6.5 -77 19.5s-50.333 26.833 -75 41.5c-23.333 14.667 -46.5 28 -69.5 40s-45.5 18 -67.5 18
c-28 0 -51.5 -9.5 -70.5 -28.5s-28.5 -42.167 -28.5 -69.5v-27h-53v27c0 20.667 4 40.167 12 58.5s18.833 34.333 32.5 48s29.667 24.5 48 32.5s38.166 12 59.499 12c30 0 58.5 -6.66699 85.5 -20s53.5 -28.333 79.5 -45c22 -13.333 43.5 -25.5 64.5 -36.5
s40.833 -16.5 59.5 -16.5c24 0 44.333 8.33301 61 25s25 37 25 61v27z" />
    <glyph glyph-name="copyright" unicode="&#xa9;" horiz-adv-x="861" 
d="M264 573c23.333 23.333 49.833 41.167 79.5 53.5s61.167 18.5 94.5 18.5h27v-54h-27c-26.667 0 -51.667 -5 -75 -15s-43.666 -23.833 -60.999 -41.5s-31 -38.167 -41 -61.5s-15 -48.333 -15 -75c0 -26 5 -50.667 15 -74s23.667 -43.833 41 -61.5
s37.666 -31.5 60.999 -41.5s48.333 -15 75 -15h27v-53h-27c-33.333 0 -64.833 6.16699 -94.5 18.5s-56.167 30.166 -79.5 53.499s-41.166 49.833 -53.499 79.5s-18.5 60.834 -18.5 93.501c0 33.333 6.16699 65 18.5 95s30.166 56.667 53.499 80zM712 681.001
c38 -38 66.6689 -80.333 86.002 -127c20.667 -50.667 31 -102.667 31 -156c0 -52 -10.333 -103.667 -31 -155c-20.667 -48 -49.334 -90 -86.001 -126c-38 -38 -80.333 -66.667 -127 -86c-48 -20.667 -99.667 -31 -155 -31c-54.667 0 -106.667 10.333 -156 31
c-46.667 20 -88.667 48.667 -126 86c-36.667 36 -65.334 78 -86.001 126c-20.667 51.333 -31 103 -31 155c0 53.333 10.333 105.333 31 156c19.333 46.667 48 89 86 127c36.667 36.667 78.667 65 126 85c50.667 21.333 102.667 32 156 32s105 -10.667 155 -32
c48 -20 90.333 -48.333 127 -85zM430.002 54.001c47.333 0 92 9 134 27s78.667 42.5 110 73.5s56 67.5 74 109.5s27 86.667 27 134c0 48 -9 93 -27 135s-42.667 78.667 -74 110s-68 56 -110 74s-86.667 27 -134 27c-48 0 -92.833 -9 -134.5 -27s-78.167 -42.667 -109.5 -74
s-56 -68 -74 -110s-27 -87 -27 -135c0 -47.333 9 -92 27 -134s42.667 -78.5 74 -109.5s67.833 -55.5 109.5 -73.5s86.5 -27 134.5 -27z" />
    <glyph glyph-name="registered" unicode="&#xae;" horiz-adv-x="912" 
d="M824 558c21.333 -50.667 32 -102.666 32 -155.999s-10.333 -105.333 -31 -156c-21.333 -48.667 -50 -91 -86 -127c-37.333 -37.333 -80 -66 -128 -86c-50 -21.333 -102 -32 -156 -32c-53.333 0 -105 10.667 -155 32c-48 20 -90.667 48.667 -128 86
c-18.667 18 -35 37.667 -49 59s-26.333 44 -37 68c-10.667 24.667 -18.5 50 -23.5 76s-7.5 52.667 -7.5 80c0 54.667 10.333 106.667 31 156c10.667 23.333 23 45.666 37 66.999s30.333 41.333 49 60c37.333 37.333 80 66 128 86c48 20.667 99.667 31 155 31
c56 0 108 -10.333 156 -31c48 -20 90.667 -48.667 128 -86c36.667 -38 65 -80.333 85 -127zM455 55.001c48 0 93 9 135 27s78.833 42.833 110.5 74.5s56.5 68.5 74.5 110.5s27 87 27 135s-9 93 -27 135s-42.833 78.667 -74.5 110s-68.5 56.166 -110.5 74.499
s-87 27.5 -135 27.5s-93 -9.16699 -135 -27.5s-78.667 -43.166 -110 -74.499s-56.166 -68 -74.499 -110s-27.5 -87 -27.5 -135s9.16699 -93 27.5 -135s43.166 -78.833 74.499 -110.5s68 -56.5 110 -74.5s87 -27 135 -27zM679 262.001l0.995117 -54.002h-27h-1
c-21.333 0 -42.166 3.83301 -62.499 11.5s-38.5 19.167 -54.5 34.5c-15.333 14 -27.666 30.167 -36.999 48.5s-15 37.833 -17 58.5c-3.33301 -0.666992 -6.16602 -1 -8.49902 -1h-7.5h-65v-99h47v-53h-148v53h47v295h-55v54h174c17.333 0 33.5 -3.33301 48.5 -10
s28.167 -15.667 39.5 -27s20.333 -24.5 27 -39.5s10 -31.167 10 -48.5c0 -22 -5.16699 -42.167 -15.5 -60.5s-24.166 -33.166 -41.499 -44.499v-9c1.33301 -15.333 5.5 -29.666 12.5 -42.999s15.833 -25 26.5 -35s22.834 -17.833 36.501 -23.5s28.167 -8.5 43.5 -8.5h1z
M464.995 412.999c19.333 0 36 7 50 21s21 31 21 51c0 19.333 -7 36 -21 50s-30.667 21 -50 21h-65v-143h65z" />
    <glyph glyph-name="quoteleft" unicode="&#x2018;" horiz-adv-x="215" 
d="M126 700l-88 258l47 15l86 -258z" />
    <glyph glyph-name="quoteright" unicode="&#x2019;" horiz-adv-x="215" 
d="M42 715l86 258l47 -15l-88 -258z" />
    <glyph glyph-name="quotedblleft" unicode="&#x201c;" horiz-adv-x="350" 
d="M263 700l-88 258l47 15l86 -258zM126 700l-88 258l47 15l86 -258z" />
    <glyph glyph-name="quotedblright" unicode="&#x201d;" horiz-adv-x="355" 
d="M38 715l86 258l47 -15l-88 -258zM175 715l86 258l47 -15l-88 -258z" />
    <glyph glyph-name="Euro" unicode="&#x20ac;" horiz-adv-x="567" 
d="M341 766c50 21.333 101.666 32.0029 154.999 32.0029h27v-54h-27c-40 0 -78 -6.5 -114 -19.5s-68.667 -31 -98 -54s-54.5 -50.333 -75.5 -82s-36.5 -65.834 -46.5 -102.501h349v-53h-358c-0.666992 -5.33301 -1.16699 -11 -1.5 -17s-0.5 -12 -0.5 -18
s0.166992 -12 0.5 -18s0.833008 -11.667 1.5 -17h358v-53h-349c10 -37.333 25.5 -71.5 46.5 -102.5s46.167 -58 75.5 -81s62 -40.833 98 -53.5s74 -19 114 -19h27v-54h-27c-55.333 0 -107 10.333 -155 31c-47.333 20 -89.666 48.667 -126.999 86
c-36.667 36.667 -65 78.667 -85 126c-9.33301 22 -16.666 44.333 -21.999 67h-77v53h69c-0.666992 5.33301 -1 11 -1 17v18v18c0 6 0.333008 11.667 1 17h-69v53h77c2.66699 11.333 5.66699 22.666 9 33.999s7.66602 22.666 12.999 33.999c10 24 22.167 46.5 36.5 67.5
s30.5 40.833 48.5 59.5c38 36.667 80.333 65 127 85z" />
    <glyph glyph-name="A_N_2" horiz-adv-x="970" 
d="M883 798h59v-54h-59v-690h59v-53h-171v53h39l-362 618v-432v-54v-132h59v-53h-172v53h59v132h-291l-78 -132h38v-53h-171v53h70l412 690h-63v54h196v-54h-39l362 -618v618h-59v54h59h53zM394 240v434l-259 -434h259z" />
    <glyph glyph-name="A_R" horiz-adv-x="949" 
d="M846 708c28 -28 49.668 -60.332 65.001 -96.999c16 -37.333 24 -77 24 -119c0 -42.667 -8 -82.334 -24 -119.001c-15.333 -36.667 -37 -69 -65 -97s-60.333 -50 -97 -66c-32.667 -13.333 -66.334 -21 -101.001 -23l79 -133h71v-54h-172v54h39l-79 132h-156v-132h59v-54
h-59h-54h-59v54h59v132h-290l-80 -132h39v-54h-171v54h70l412 690h-63v54h137h200c41.333 0 81 -8 119 -24c36.667 -16 69 -38 97 -66zM376.001 240.001v434l-258 -434h258zM630.001 240.001c34.667 0 67.334 6.66309 98.001 19.9961s57.334 31.333 80.001 54
s40.667 49.334 54 80.001s20 63.334 20 98.001s-6.66699 67.334 -20 98.001s-31.333 57.334 -54 80.001s-49.334 40.667 -80.001 54s-63.334 20 -98.001 20h-200v-504h200z" />
    <glyph glyph-name="A_R_6" horiz-adv-x="1279" 
d="M1270 294c16 -38 24 -77.3311 24 -117.998c0 -19.333 -1.83301 -38.5 -5.5 -57.5s-9.16699 -37.5 -16.5 -55.5c-7.33301 -18.667 -16.5 -36 -27.5 -52s-23.167 -31 -36.5 -45c-14 -14 -29.333 -26.833 -46 -38.5s-34.334 -21.167 -53.001 -28.5
c-38 -16 -77.333 -24 -118 -24h-1c-40.667 0 -79.334 7.66699 -116.001 23c-37.333 16 -69.666 37.833 -96.999 65.5s-48.333 60.167 -63 97.5l-17.5 45l-22.5 58.5l-24.5 64.5l-23.5 61.5l-19 50.5c-5.33301 14.667 -9.33301 25.334 -12 32.001h-111v-134v-53v-132h59v-54
h-59h-54h-58v54h58v132h-290l-79 -132h38v-54h-171v54h70l111 184v1h1l300 505h-62v54h136h148c28.667 0 55.834 -5.5 81.501 -16.5s48.5 -26.5 68.5 -46.5s35.5 -42.833 46.5 -68.5s16.5 -52.834 16.5 -81.501s-5.5 -55.834 -16.5 -81.501s-26.5 -48.834 -46.5 -69.501
c-36 -36 -79.333 -56 -130 -60l24 -64l31.5 -83l31.5 -83c10 -26.667 18.333 -47.667 25 -63c12 -30 29.167 -56.333 51.5 -79s48.5 -40.667 78.5 -54c32 -13.333 64.5 -20 97.5 -20s65.167 6.66699 96.5 20s58.5 31.833 81.5 55.5s40.5 50.167 52.5 79.5
s18.167 60.5 18.5 93.5s-6.16699 65.167 -19.5 96.5l-11 25l50 20zM430 373.002v53v248l-258 -435h258v134zM484 426.002l148 0.00195312c22 0 42.667 4.16699 62 12.5s36.166 19.833 50.499 34.5s25.666 31.5 33.999 50.5s12.5 39.5 12.5 61.5s-4.16699 42.667 -12.5 62
s-19.666 36.166 -33.999 50.499s-31.166 25.666 -50.499 33.999s-40 12.5 -62 12.5h-148v-318z" />
    <glyph glyph-name="L_E_U" horiz-adv-x="1229" 
d="M1195 0h-1035h-54h-58v54h58v690h-58v54h58h54h59v-54h-59v-690h1035v-54zM732 256c-22.667 22 -39.9951 47.333 -51.9951 76s-18 59 -18 91v321h-31h-27h-226v-318h220v-54h-220v-132h253v-54h-253h-54h-59v54h59v132v54v318h-59v54h59h54h226h27h144v-54h-59v-321
c0 -25.333 4.83301 -49.166 14.5 -71.499s22.667 -41.666 39 -57.999s35.666 -29.333 57.999 -39s46.166 -14.5 71.499 -14.5s49.166 4.83301 71.499 14.5s41.666 22.667 57.999 39s29.333 35.666 39 57.999s14.5 46.166 14.5 71.499v321h-59v54h172v-54h-59v-321
c0 -32 -6 -62.333 -18 -91s-29 -54 -51 -76c-22.667 -22.667 -48.334 -40 -77.001 -52s-59 -18 -91 -18s-62.167 6 -90.5 18s-53.833 29.333 -76.5 52z" />
    <glyph glyph-name="E_2" horiz-adv-x="525" 
d="M184 798h302v-54h-302v-132h264v-54h-264v-504h302v-54h-302h-53h-1h-58v54h58h1v504v54v132h-1h-58v54h58h1h53z" />
    <glyph glyph-name="R_2" horiz-adv-x="661" 
d="M635 -29l-21.998 -1.99707c-7.33301 -0.666992 -15 -1 -23 -1c-24 0 -47.333 3 -70 9c-38 9.33301 -73.333 25 -106 47c-33.333 24.667 -60.333 54 -81 88l-44 74h-157v-132h59v-54h-171v54h58v690h-58v54h313c41.333 0 81 -8 119 -24
c37.333 -16.667 69.666 -38.667 96.999 -66c28 -28 49.667 -60.333 65 -97c16 -37.333 24 -77 24 -119c0 -42.667 -8 -82.334 -24 -119.001c-15.333 -36.667 -37 -69 -65 -97c-27.333 -27.333 -59.666 -49.333 -96.999 -66
c-16.667 -6.66699 -33.334 -11.834 -50.001 -15.501s-34 -6.16699 -52 -7.5l28 -47c18 -29.333 40.5 -53.333 67.5 -72s56 -31.834 87 -39.501s62.667 -9.16699 95 -4.5s63.166 16 92.499 34l22 15l28 -46l-22 -14c-17.333 -11.333 -35.5 -20.333 -54.5 -27
s-38.5 -11.667 -58.5 -15zM132.002 240.003l201 -0.00390625c34.667 0 67.334 6.66699 98.001 20s57.334 31.333 80.001 54s40.667 49.334 54 80.001s20 63.334 20 98.001s-6.66699 67.334 -20 98.001s-31.333 57.334 -54 80.001s-49.334 40.667 -80.001 54
s-63.334 20 -98.001 20h-201v-504z" />
    <glyph glyph-name="T_2" horiz-adv-x="478" 
d="M189 798h261v-54h-261v-690h59v-54h-59h-54h-59v54h59v690h-124v54h124h54z" />
    <glyph glyph-name="T_3" horiz-adv-x="474" 
d="M326 744v-690h59v-54h-59h-54h-59v54h59v690h-261v54h261h54h124v-54h-124z" />
    <glyph glyph-name="R_O_O" horiz-adv-x="1815" 
d="M459 214c-1.33301 -0.666992 -2.5 -1.16504 -3.5 -1.49805s-2.16699 -0.833008 -3.5 -1.5c-32 -12.667 -65.667 -20.667 -101 -24l95 -154c18 -29.333 40.333 -53.333 67 -72s55.5 -31.667 86.5 -39s62.667 -8.83301 95 -4.5s63.166 15.5 92.499 33.5l23 15l28 -46
l-23 -14c-17.333 -10.667 -35.5 -19.5 -54.5 -26.5s-38.5 -11.833 -58.5 -14.5c-13.333 -2.66699 -28 -4 -44 -4c-24.667 0 -48.334 3 -71.001 9c-38 8 -73 24 -105 48c-32.667 22.667 -60 51.667 -82 87l-111 182h-156v-133h59v-54h-172v54h59v690h-59v54h314
c40.667 0 80 -8 118 -24c38.667 -16.667 71.334 -38.334 98.001 -65.001c0.666992 -1.33301 1.33398 -2.33301 2.00098 -3s1.33398 -1.66699 2.00098 -3c16 13.333 32.5 25.166 49.5 35.499s34.833 19.5 53.5 27.5c50 21.333 102 32 156 32
c52.667 0 104.334 -10.667 155.001 -32c23.333 -10 45.666 -22 66.999 -36s41 -30.333 59 -49l3 -3l3 -3l3 3l3 3c18 18.667 37.667 35 59 49s44 26 68 36c50 21.333 101.667 32 155 32s105 -10.667 155 -32c23.333 -10 45.833 -22 67.5 -36s41.5 -30.333 59.5 -49
c36.667 -36.667 65 -79 85 -127c10.667 -24 18.5 -49 23.5 -75s7.5 -52.667 7.5 -80c0 -26.667 -2.5 -53 -7.5 -79s-12.833 -51.333 -23.5 -76c-20 -46.667 -48.333 -89 -85 -127c-36 -36 -78.333 -64.333 -127 -85c-50 -21.333 -101.667 -32 -155 -32s-105 10.667 -155 32
c-48 20 -90.333 48.333 -127 85l-6 6l-6 -6c-36.667 -36.667 -78.667 -65 -126 -85c-50.667 -21.333 -102.334 -32 -155.001 -32c-54 0 -106 10.667 -156 32c-46.667 20 -89 48.333 -127 85c-29.333 30 -53 62.333 -71 97zM1388 744.002
c-50 0 -96.666 -9.83398 -139.999 -29.501s-81 -46.5 -113 -80.5c9.33301 -12 17.666 -24.833 24.999 -38.5s14 -27.5 20 -41.5c10.667 -24 18.5 -49 23.5 -75s7.5 -52.667 7.5 -80c0 -26.667 -2.5 -53 -7.5 -79s-12.833 -51.333 -23.5 -76
c-12.667 -29.333 -27.667 -55.666 -45 -78.999c32 -34 69.667 -61 113 -81s90 -30 140 -30c47.333 0 92 9 134 27s78.667 42.667 110 74s56 68 74 110s27 86.667 27 134c0 48 -9 92.833 -27 134.5s-42.667 78.167 -74 109.5s-68 56 -110 74s-86.667 27 -134 27z
M1100 209.001c18.667 27.333 33 57 43 89s15 65.667 15 101c0 36 -5 69.833 -15 101.5s-24.333 61.5 -43 89.5c-18 -28 -32.167 -57.833 -42.5 -89.5s-15.5 -65.5 -15.5 -101.5c0 -35.333 5.16699 -69 15.5 -101s24.5 -61.667 42.5 -89zM813.001 744.001
c-44 0 -85 -7.33398 -123 -22.001s-72 -34.667 -102 -60c10.667 -17.333 19.334 -34.333 26.001 -51c16 -37.333 24 -76.666 24 -117.999c0 -42.667 -8 -82.334 -24 -119.001c-15.333 -37.333 -36.666 -69.666 -63.999 -96.999c-14.667 -14.667 -29.334 -27 -44.001 -37
c14 -27.333 31.667 -52.5 53 -75.5s45.166 -42.667 71.499 -59s55 -29 86 -38s63.167 -13.5 96.5 -13.5c50 0 96.667 10 140 30s81 47 113 81c-18.667 23.333 -33.667 49.666 -45 78.999c-21.333 50 -32 101.667 -32 155c0 54.667 10.667 106.334 32 155.001
c5.33301 14 11.833 27.833 19.5 41.5s16.167 26.5 25.5 38.5c-32 34 -69.667 60.833 -113 80.5s-90 29.5 -140 29.5zM467.001 399c0 -18.667 1.66797 -37 5.00098 -55s7.66602 -35.667 12.999 -53c30.667 23.333 55 52.333 73 87s27 73 27 115c0 46.667 -12 89.667 -36 129
c-25.333 -30 -45.333 -64 -60 -102s-22 -78.333 -22 -121zM133.002 241l201 0.000976562c36 0 70.667 7.33301 104 22c-16 42.667 -24 88 -24 136c0 27.333 2.5 54 7.5 80s12.833 51 23.5 75c17.333 41.333 41 78.666 71 111.999c-23.333 24 -50.5 43 -81.5 57
s-64.5 21 -100.5 21h-201v-503z" />
    <glyph glyph-name="D_O_V" horiz-adv-x="1690" 
d="M1224 744h-50l186 -623l186 623h-49v54h65l2 7l22 -7h82v-54h-66l-206 -690h50v-54h-172v54h50l-206 690h-65v54h81l22 7l2 -7h66v-54zM94 54v690h-2h-57v54h57h55h67c53.333 0 105.333 -10.667 156 -32c20 -8 39.167 -17.833 57.5 -29.5s35.833 -24.834 52.5 -39.501
c16.667 14.667 34.167 27.834 52.5 39.501s37.5 21.5 57.5 29.5c50.667 21.333 102.667 32 156 32s105 -10.667 155 -32c48 -20 90.333 -48.333 127 -85c37.333 -36 66 -78.333 86 -127c20.667 -49.333 31 -101 31 -155c0 -52.667 -10.333 -104.334 -31 -155.001
c-20 -47.333 -48.667 -89.666 -86 -126.999c-18.667 -18 -38.5 -34.167 -59.5 -48.5s-43.5 -26.5 -67.5 -36.5c-50 -21.333 -101.667 -32 -155 -32s-105.333 10.667 -156 32c-39.333 16.667 -76 40 -110 70c-34 -30 -70.667 -53.333 -110 -70
c-50.667 -21.333 -102.667 -32 -156 -32h-67h-55h-57v54h57h2zM480 619c-25.333 -30 -44.833 -63.667 -58.5 -101s-20.5 -77 -20.5 -119s6.83301 -81.667 20.5 -119s33.167 -71 58.5 -101c25.333 30 44.833 63.667 58.5 101s20.5 77 20.5 119s-6.83301 81.667 -20.5 119
s-33.167 71 -58.5 101zM746 744c-44 0 -85.5 -7.49902 -124.5 -22.499s-73.5 -36.167 -103.5 -63.5c27.333 -32 48.666 -66.667 63.999 -104c20.667 -49.333 31 -101 31 -155c0 -52.667 -10.333 -104.334 -31 -155.001c-15.333 -37.333 -36.666 -72 -63.999 -104
c30 -27.333 64.5 -48.5 103.5 -63.5s80.5 -22.5 124.5 -22.5c47.333 0 92 9 134 27s78.667 42.667 110 74s56 68 74 110s27 86.667 27 134c0 48 -9 92.833 -27 134.5s-42.667 78.167 -74 109.5s-68 56 -110 74s-86.667 27 -134 27zM147 54.001l67 -0.000976562
c44 0 85.5 7.5 124.5 22.5s73.5 36.167 103.5 63.5c-27.333 32 -48.666 66.667 -63.999 104c-20.667 50.667 -31 102.334 -31 155.001c0 54 10.333 105.667 31 155c15.333 37.333 36.666 72 63.999 104c-30 27.333 -64.5 48.5 -103.5 63.5s-80.5 22.5 -124.5 22.5h-67v-690z
" />
    <glyph glyph-name="O_U_R" horiz-adv-x="1706" 
d="M2 243c-21.333 50.667 -32.0029 102.331 -32.0029 154.998c0 54 10.667 106 32 156c20 48 48.333 90.333 85 127s79 65 127 85c50 21.333 102 32 156 32c52.667 0 104.334 -10.667 155.001 -32c47.333 -20 89.333 -48.333 126 -85c38 -38 66.667 -80.333 86 -127
c20.667 -48 31 -100 31 -156c0 -54 -10.333 -105.667 -31 -155c-20 -46.667 -48.667 -88.667 -86 -126c-7.33301 -8 -16 -16 -26 -24c19.333 -12.667 40.5 -22.334 63.5 -29.001s47.167 -10 72.5 -10c34.667 0 67.334 6.66699 98.001 20s57.5 31.333 80.5 54
s41.167 49.334 54.5 80.001s20 63.334 20 98.001v438h-60v54h60h53h6h53h260c40 0 79.667 -8 119 -24c37.333 -16.667 69.666 -38.667 96.999 -66c28 -28 49.667 -60.333 65 -97c16 -38 24 -77.667 24 -119c0 -42.667 -8 -82.334 -24 -119.001
c-15.333 -36.667 -37 -69 -65 -97c-27.333 -27.333 -59.666 -49.333 -96.999 -66c-34 -13.333 -67.667 -21 -101 -23l94 -154c18 -29.333 40.333 -53.5 67 -72.5s55.5 -32.167 86.5 -39.5s62.667 -8.66602 95 -3.99902s63.166 16 92.499 34l23 14l28 -46l-23 -13
c-34 -22 -71.333 -36 -112 -42c-15.333 -2 -30.333 -3 -45 -3c-12 0 -24 0.5 -36 1.5s-23.667 3.16699 -35 6.5c-38 8.66699 -73 24.667 -105 48c-16.667 11.333 -31.667 24.5 -45 39.5s-25.666 31.167 -36.999 48.5l-111 181h-156v-132h59v-54h-171v54h58v690h-5h-53h-6
v-438c0 -41.333 -8 -81 -24 -119c-16 -37.333 -37.667 -69.666 -65 -96.999c-14.667 -14 -30.167 -26.667 -46.5 -38s-33.5 -20.666 -51.5 -27.999c-38 -16 -77.667 -24 -119 -24c-42 0 -82 8 -120 24l-32.5 16c-10.333 5.33301 -20.166 11.666 -29.499 18.999
c-18.667 -10.667 -36.667 -20 -54 -28c-49.333 -20.667 -101 -31 -155 -31c-56 -0 -108 10.333 -156 31c-46.667 19.333 -89 48 -127 86c-36.667 36.667 -65 78.667 -85 126zM1638 491.997c0 34.667 -6.66699 67.3301 -20 97.9971s-31.333 57.334 -54 80.001
s-49.334 40.667 -80.001 54s-63.334 20 -98.001 20h-201v-504h201c34.667 0 67.334 6.66699 98.001 20s57.334 31.333 80.001 54s40.667 49.334 54 80.001s20 63.334 20 98.001zM369.997 743.993c-48 0 -92.998 -9.00195 -134.998 -27.002s-78.667 -42.667 -110 -74
s-56 -68 -74 -110s-27 -87 -27 -135c0 -47.333 9 -92 27 -134s42.667 -78.5 74 -109.5s68 -55.5 110 -73.5s87 -27 135 -27c60 0 115.667 14.333 167 43c-24.667 26 -44.334 56 -59.001 90c-16 38 -24 77.667 -24 119v192h-59v53h59h53h59v-53h-59v-192
c0 -35.333 6.66699 -68.166 20 -98.499s31.666 -57.166 54.999 -80.499c40 32 72 71.5 96 118.5s36 97.833 36 152.5c0 48 -9 93 -27 135s-42.667 78.667 -74 110s-67.833 56 -109.5 74s-86.167 27 -133.5 27z" />
    <glyph glyph-name="M_A" horiz-adv-x="1600" 
d="M402 744h-41l182 -611l183 611h-40v54h152v-54h-40l205 -690h66v-54h-172v54h50l-185 623l-187 -623h51v-54h-171v54h56l-186 623l-186 -623h49v-54h-171v54h66l206 690h-40v54h153v-54zM1579 0h-171v54h50l-96 318h-181l-39 -132h49v-54h-171v54h66l150 504h-50v54h172
v-54h-50l206 -690h65v-54zM1346 426l-74 251l-75 -251h149z" />
    <glyph glyph-name="O_W" horiz-adv-x="1786" 
d="M1702 744l-205 -690h41v-54h-153v54h40l-183 611l-182 -611h41v-54h-153v54h40l-206 690h-66v54h171v-54h-49l186 -623l186 623h-56v54h172v-54h-51l186 -623l185 623h-50v54h172v-54h-66zM89 681c36.667 36.667 78.666 65.001 125.999 85.001
c50.667 21.333 102.334 32 155.001 32c54 0 106 -10.667 156 -32c48 -20 90.333 -48.333 127 -85s65 -79 85 -127c21.333 -50 32 -102 32 -156c0 -52.667 -10.667 -104.334 -32 -155.001c-20 -47.333 -48.333 -89.333 -85 -126c-38 -38 -80.333 -66.667 -127 -86
c-48 -20.667 -100 -31 -156 -31c-54 -0 -105.667 10.333 -155 31c-46.667 20 -88.667 48.667 -126 86s-66 79.333 -86 126c-20.667 49.333 -31 101 -31 155c0 56 10.333 108 31 156c19.333 46.667 48 89 86 127zM715.999 398.001c0 48 -9 93 -27 135s-42.667 78.667 -74 110
s-68 56 -110 74s-87 27 -135 27c-47.333 0 -92 -9 -134 -27s-78.5 -42.667 -109.5 -74s-55.5 -68 -73.5 -110s-27 -87 -27 -135c0 -47.333 9 -92 27 -134s42.5 -78.5 73.5 -109.5s67.5 -55.5 109.5 -73.5s86.667 -27 134 -27c48 0 93 9 135 27s78.667 42.5 110 73.5
s56 67.5 74 109.5s27 86.667 27 134z" />
    <glyph glyph-name="O_W_N" horiz-adv-x="2145" 
d="M1550 54l-370 620v-620h59v-54h-172v54h39l-412 690h-70v54h171v-54h-38l369 -620v620h-59v54h172v-54h-38l369 -620v620h-59v54h59h54h59v-54h-39l362 -618v618h-59v54h59h53h59v-54h-59v-690h59v-53h-171v53h39l-362 618v-618h59v-53v-1h-172v1v53h39zM525 32
c-50.667 -21.333 -102.333 -32.001 -155 -32.001c-54 0 -106 10.667 -156 32c-24 10 -46.5 22.167 -67.5 36.5s-40.833 30.5 -59.5 48.5c-18 18.667 -34.167 38.5 -48.5 59.5s-26.5 43.5 -36.5 67.5c-10 24.667 -17.833 50 -23.5 76s-8.5 52.333 -8.5 79
c0 27.333 2.83301 53.833 8.5 79.5s13.5 50.834 23.5 75.501c20 48 48.333 90.333 85 127s79 65 127 85c50 21.333 102 32 156 32c52.667 0 104.334 -10.667 155.001 -32c23.333 -10 45.666 -22 66.999 -36s41 -30.333 59 -49c37.333 -36 66 -78.333 86 -127
c20.667 -48 31 -99.667 31 -155c0 -26.667 -2.5 -53 -7.5 -79s-12.833 -51.333 -23.5 -76c-19.333 -46.667 -48 -89 -86 -127c-36.667 -36.667 -78.667 -65 -126 -85zM24.001 398.999c0 -47.333 9 -92 27 -134s42.667 -78.667 74 -110s68 -56 110 -74s87 -27 135 -27
c47.333 0 92 9 134 27s78.5 42.667 109.5 74s55.5 68 73.5 110s27 86.667 27 134c0 48 -9 92.833 -27 134.5s-42.5 78.167 -73.5 109.5s-67.5 56 -109.5 74s-86.667 27 -134 27c-48 0 -93 -9 -135 -27s-78.667 -42.667 -110 -74s-56 -67.833 -74 -109.5
s-27 -86.5 -27 -134.5z" />
    <glyph glyph-name="A_N" horiz-adv-x="1214" 
d="M1126 744v-690h60v-53h-172v53h40l-363 618v-433h59v-53h-59h-53h-60v53h60v505h-60v54h172v-54h-39l362 -618v618h-59v54h59h53h60v-54h-60zM559 54h67v-54h-172v54h50l-40 132h-293l-39 -132h50v-54h-172v54h66l206 690h-50v54h171v-54h-49zM448 240l-130 438
l-131 -438h261z" />
    <glyph glyph-name="A_R_5" horiz-adv-x="1187" 
d="M566 187l-0.000976562 -132.999h60v-54h-172v54h50l-40 132h-293l-39 -132h50v-54h-172v54h66l206 690h-50v54h171v-54h-49l159 -534v534h-59v54h313c41.333 0 81 -8 119 -24c18 -8 35.167 -17.333 51.5 -28s31.5 -23.334 45.5 -38.001
c28.667 -28.667 50.334 -61 65.001 -97c16.667 -38.667 25 -78.334 25 -119.001c0 -40 -8.33301 -79.333 -25 -118c-15.333 -37.333 -37 -70 -65 -98s-60.333 -49.667 -97 -65c-32 -12.667 -65.667 -20.667 -101 -24l28 -47c18 -29.333 40.333 -53.333 67 -72
s55.5 -31.667 86.5 -39s62.667 -8.66602 95 -3.99902s63.166 16 92.499 34l23 14l28 -46l-23 -14c-36 -21.333 -73.333 -35 -112 -41c-16 -2 -31.333 -3 -46 -3c-11.333 0 -23 0.5 -35 1.5s-23.667 3.16699 -35 6.5c-38 8.66699 -73 24.667 -105 48
c-33.333 23.333 -60.666 52.333 -81.999 87l-1 1l-44 74h-156zM565.999 744.001v-503.002h201c34.667 0 67.334 6.66699 98.001 20s57.334 31.333 80.001 54s40.667 49.167 54 79.5s20 62.833 20 97.5s-6.66699 67.334 -20 98.001s-31.333 57.334 -54 80.001
s-49.334 40.667 -80.001 54s-63.334 20 -98.001 20h-201zM447.999 239.999l-130 438l-131 -438h261z" />
  </font>
</defs>
</svg>
